<svg width="94" height="94" viewBox="0 0 94 94" fill="none" xmlns="http://www.w3.org/2000/svg">
<path d="M83.0828 1.43355C88.3017 1.43355 92.5416 5.66255 92.5416 10.852V90.7226C92.5416 91.511 91.8937 92.1561 91.1019 92.1561H57.0099C56.2181 92.1561 55.5702 91.511 55.5702 90.7226C55.5702 89.9341 56.2181 89.289 57.0099 89.289H89.6622V10.852C89.6622 7.23946 86.7108 4.30066 83.0828 4.30066H59.0183C55.3903 4.30066 52.4389 7.23946 52.4389 10.852V64.7609C52.4389 65.5494 51.791 66.1945 50.9992 66.1945C50.2074 66.1945 49.5595 65.5494 49.5595 64.7609V10.852C49.5595 5.65538 53.8066 1.43355 59.0183 1.43355H83.0828ZM22.8892 5.15368C23.681 5.15368 24.3289 5.79877 24.3289 6.58723V9.93452C24.3289 10.723 23.681 11.3681 22.8892 11.3681C22.0973 11.3681 21.4495 10.723 21.4495 9.93452V6.58723C21.4495 5.79877 22.0973 5.15368 22.8892 5.15368ZM6.88697 14.3571C7.13172 14.3571 7.37646 14.4216 7.60681 14.5506L10.515 16.2207C11.2061 16.6149 11.4364 17.4965 11.0405 18.1775C10.7741 18.6362 10.2918 18.8942 9.79515 18.8942C9.5504 18.8942 9.30565 18.8298 9.0753 18.7008L6.16712 17.0306C5.47607 16.6364 5.24572 15.7548 5.64163 15.0738C5.90798 14.6151 6.39027 14.3571 6.88697 14.3571ZM38.8842 14.3571C39.3809 14.3571 39.8632 14.6151 40.1295 15.0738C40.5254 15.762 40.2951 16.6364 39.604 17.0306L36.6958 18.7008C36.4655 18.8298 36.2207 18.8942 35.976 18.8942C35.4793 18.8942 34.997 18.6362 34.7307 18.1775C34.3347 17.4894 34.5651 16.6149 35.2561 16.2207L38.1643 14.5506C38.3947 14.4216 38.6394 14.3571 38.8842 14.3571ZM72.2851 15.4107C72.5226 15.4107 72.7602 15.4681 72.9833 15.5899C73.6744 15.977 73.9263 16.8443 73.5448 17.5396L69.1609 25.3955H75.0709C75.582 25.3955 76.0499 25.6678 76.309 26.1051C76.5682 26.5423 76.5754 27.087 76.3234 27.5314L70.7518 37.5162C70.4855 37.9893 69.996 38.2544 69.4921 38.2544C69.2545 38.2544 69.017 38.1971 68.7938 38.0752C68.1028 37.6882 67.8508 36.8209 68.2323 36.1256L72.6162 28.2697H66.7063C66.1952 28.2697 65.7273 27.9974 65.4681 27.5601C65.209 27.1229 65.2018 26.5782 65.4537 26.1338L71.0254 16.149C71.2917 15.6759 71.7812 15.4107 72.2851 15.4107ZM22.8892 17.3819C24.9263 17.3819 26.8483 18.1703 28.288 19.611C29.7277 21.0446 30.5268 22.9584 30.5268 24.9868C30.5268 27.0153 29.7349 28.9291 28.288 30.3627C26.8483 31.7962 24.9263 32.5919 22.8892 32.5919C20.852 32.5919 18.93 31.8034 17.4903 30.3627C16.0506 28.9291 15.2516 27.0153 15.2516 24.9868C15.2516 22.9584 16.0434 21.0446 17.4903 19.611C18.93 18.1775 20.852 17.3819 22.8892 17.3819ZM22.8892 29.7248C24.1633 29.7248 25.351 29.2302 26.2509 28.3342C27.1507 27.4383 27.6474 26.2484 27.6402 24.9868C27.6402 23.7182 27.1435 22.5284 26.2509 21.6396C25.351 20.7436 24.1561 20.249 22.8892 20.249C21.6222 20.249 20.4273 20.7436 19.5275 21.6396C18.6277 22.5355 18.131 23.7253 18.1382 24.9868C18.1382 26.2555 18.6349 27.4454 19.5275 28.3342C20.4273 29.2302 21.6222 29.7248 22.8892 29.7248ZM35.9832 31.0795C36.2279 31.0795 36.4727 31.144 36.703 31.273L39.6112 32.9431C40.3023 33.3374 40.5326 34.219 40.1367 34.8999C39.8704 35.3587 39.3881 35.6167 38.8914 35.6167C38.6466 35.6167 38.4019 35.5522 38.1715 35.4232L35.2633 33.7531C34.5723 33.3589 34.3419 32.4772 34.7379 31.7962C35.0042 31.3375 35.4865 31.0795 35.9832 31.0795ZM9.78795 31.0795C10.2846 31.0795 10.7669 31.3375 11.0333 31.7962C11.4292 32.4843 11.1989 33.3589 10.5078 33.7531L7.59962 35.4232C7.37646 35.5522 7.12452 35.6167 6.87977 35.6167C6.38307 35.6167 5.90078 35.3587 5.63443 34.8999C5.23852 34.2118 5.46887 33.3374 6.15992 32.9431L9.0681 31.273C9.29846 31.144 9.5432 31.0795 9.78795 31.0795ZM22.8892 38.6128C23.681 38.6128 24.3289 39.2579 24.3289 40.0463V43.3937C24.3289 44.1822 23.681 44.8273 22.8892 44.8273C22.0973 44.8273 21.4495 44.1822 21.4495 43.3937V40.0463C21.4495 39.2579 22.0973 38.6128 22.8892 38.6128ZM38.9706 62.331C39.6832 62.331 40.2879 62.8471 40.3959 63.5495L42.2387 75.4552C42.2459 75.5053 42.2531 75.5484 42.2603 75.5986L44.4054 89.504C44.4702 89.9197 44.3478 90.3355 44.0743 90.6581C43.8007 90.9735 43.4048 91.1598 42.9801 91.1598H2.87742C2.45991 91.1598 2.05679 90.9806 1.78325 90.6581C1.50971 90.3427 1.38733 89.9197 1.45212 89.504L3.59727 75.5986C3.59727 75.5484 3.61166 75.5053 3.61886 75.4552L5.46167 63.5495C5.56965 62.8471 6.17432 62.331 6.88697 62.331H38.9706ZM24.3649 74.3083H39.1433L37.7324 65.1981H24.3649V74.3083ZM6.7142 74.3083H21.4927V65.1981H8.11791L6.70701 74.3083M24.3649 88.2855H41.3029L39.5896 77.1755H24.3721V88.2855M4.55466 88.2855H21.4927V77.1755H6.2679L4.55466 88.2855ZM83.0828 0H59.0183C53.0076 0 48.1198 4.86693 48.1198 10.852V64.7609C48.1198 66.345 49.4083 67.628 50.9992 67.628C52.5901 67.628 53.8786 66.345 53.8786 64.7609V10.852C53.8786 8.02792 56.1821 5.73422 59.0183 5.73422H83.0828C85.919 5.73422 88.2225 8.02792 88.2225 10.852V87.8555H57.0099C55.4191 87.8555 54.1305 89.1385 54.1305 90.7226C54.1305 92.3066 55.4191 93.5897 57.0099 93.5897H91.1019C92.6928 93.5897 93.9813 92.3066 93.9813 90.7226V10.852C93.9813 4.86693 89.0935 0 83.0828 0ZM22.8892 3.72012C21.2983 3.72012 20.0098 5.00315 20.0098 6.58723V9.93452C20.0098 11.5186 21.2983 12.8016 22.8892 12.8016C24.48 12.8016 25.7686 11.5186 25.7686 9.93452V6.58723C25.7686 5.00315 24.48 3.72012 22.8892 3.72012ZM6.88697 12.9235C5.86478 12.9235 4.90739 13.4754 4.3963 14.3571C4.01478 15.0165 3.9068 15.7906 4.10836 16.5289C4.30991 17.2672 4.78501 17.8908 5.44727 18.2706L8.35546 19.948C8.79456 20.1988 9.29126 20.335 9.79515 20.335C10.8173 20.335 11.7747 19.7831 12.2858 18.9014C13.0777 17.5324 12.6098 15.7763 11.2348 14.9807L8.32666 13.3106C7.88755 13.0597 7.39086 12.9235 6.88697 12.9235ZM38.8842 12.9235C38.3803 12.9235 37.8836 13.0597 37.4445 13.3106L34.5363 14.9807C33.874 15.3606 33.3917 15.9842 33.1974 16.7225C32.9958 17.4608 33.1038 18.2348 33.4853 18.9014C33.9964 19.7831 34.9538 20.335 35.976 20.335C36.4799 20.335 36.9766 20.1988 37.4157 19.948L40.3239 18.2778C40.9861 17.8979 41.4684 17.2744 41.6628 16.5361C41.8643 15.7978 41.7564 15.0237 41.3748 14.3571C40.8638 13.4754 39.9064 12.9235 38.877 12.9235H38.8842ZM72.2851 13.9772C71.2413 13.9772 70.2767 14.5435 69.7656 15.4538L64.194 25.4384C63.6973 26.3201 63.7117 27.4096 64.23 28.2841C64.7483 29.1586 65.6985 29.6961 66.7135 29.6961H70.1759L66.9798 35.4232C66.6055 36.0898 66.5191 36.8639 66.7279 37.6022C66.9366 38.3405 67.4261 38.9497 68.0956 39.3224C68.5203 39.5589 69.0026 39.6808 69.4921 39.6808C70.5359 39.6808 71.5005 39.1146 72.0115 38.2043L77.5832 28.2195C78.0799 27.3379 78.0655 26.2484 77.5472 25.3739C77.0289 24.4995 76.0787 23.9619 75.0637 23.9619H71.6012L74.7973 18.242C75.1717 17.5754 75.2581 16.8013 75.0493 16.063C74.8405 15.3247 74.351 14.7154 73.6816 14.3427C73.2569 14.1062 72.7746 13.9843 72.2851 13.9843V13.9772ZM22.8892 15.9483C20.4633 15.9483 18.1814 16.8873 16.4681 18.5933C14.7549 20.2992 13.8119 22.5713 13.8119 24.9868C13.8119 27.4024 14.7549 29.6674 16.4681 31.3805C18.1814 33.0865 20.4633 34.0255 22.8892 34.0255C25.3151 34.0255 27.597 33.0865 29.3102 31.3805C31.0234 29.6746 31.9664 27.4024 31.9664 24.9868C31.9664 22.5713 31.0234 20.3063 29.3102 18.5933C27.597 16.8873 25.3151 15.9483 22.8892 15.9483ZM22.8892 28.2913C22.0038 28.2913 21.1687 27.9471 20.5425 27.3236C19.9162 26.7 19.5707 25.8685 19.5707 24.9868C19.5707 24.1052 19.9162 23.2738 20.5425 22.6502C21.1687 22.0266 22.0038 21.6825 22.8892 21.6825C23.7746 21.6825 24.6096 22.0266 25.2359 22.6502C25.8621 23.2738 26.2077 24.1052 26.2077 24.9868C26.2077 25.8685 25.8621 26.7 25.2359 27.3236C24.6096 27.9471 23.7746 28.2913 22.8892 28.2913ZM35.9832 29.6459C34.9538 29.6459 34.0036 30.1978 33.4925 31.0795C32.7007 32.4485 33.1686 34.2047 34.5435 34.9931L37.4517 36.6632C37.8836 36.9141 38.3875 37.0503 38.8914 37.0503C39.9208 37.0503 40.871 36.4983 41.3892 35.6167C42.1811 34.2477 41.7132 32.4916 40.3383 31.7031L37.4301 30.033C36.991 29.7821 36.4943 29.6459 35.9904 29.6459H35.9832ZM9.78795 29.6459C9.28406 29.6459 8.78736 29.7821 8.34826 30.033L5.44007 31.7031C4.06517 32.4916 3.59007 34.2477 4.3891 35.6167C4.90019 36.4983 5.85759 37.0503 6.88697 37.0503C7.39086 37.0503 7.88755 36.9141 8.32666 36.6632L11.2348 34.9931C12.6098 34.2047 13.0849 32.4485 12.2858 31.0795C11.7747 30.1978 10.8173 29.6459 9.79515 29.6459H9.78795ZM22.8892 37.1792C21.2983 37.1792 20.0098 38.4623 20.0098 40.0463V43.3937C20.0098 44.9778 21.2983 46.2608 22.8892 46.2608C24.48 46.2608 25.7686 44.9778 25.7686 43.3937V40.0463C25.7686 38.4623 24.48 37.1792 22.8892 37.1792ZM38.9706 60.8975H6.88697C5.45447 60.8975 4.25952 61.9225 4.04357 63.3274L2.20796 75.2043C2.19356 75.2688 2.18637 75.3405 2.17917 75.405L0.0340219 89.2818C-0.0955506 90.1061 0.149197 90.9447 0.696281 91.5827C1.24337 92.2206 2.0424 92.5862 2.88462 92.5862H42.9873C43.8295 92.5862 44.6214 92.2206 45.1684 91.5898C45.7155 90.9519 45.9603 90.1133 45.8307 89.289L43.6856 75.4122C43.6784 75.3477 43.664 75.276 43.6568 75.2115L41.8212 63.3344C41.6052 61.9224 40.4103 60.9046 38.9778 60.9046L38.9706 60.8975ZM25.8046 66.6317H36.4943L37.4589 72.8748H25.8046V66.6317ZM9.35604 66.6317H20.0458V72.8748H8.39145L9.35604 66.6317ZM25.8046 78.609H38.3443L39.6184 86.8519H25.8046V78.609ZM7.50604 78.609H20.053V86.8519H6.23191L7.50604 78.609Z" fill="#0E2253"/>
</svg>
