<svg width="98" height="81" viewBox="0 0 98 81" fill="none" xmlns="http://www.w3.org/2000/svg">
<path d="M79.6406 43.0547C79.9092 43.0573 80.1654 43.1687 80.3516 43.3623L83.9463 47.1006C84.3229 47.4925 84.3169 48.1137 83.9336 48.499L74.5947 57.8867H96C96.5523 57.8867 97 58.3344 97 58.8867V64.1689C96.9998 64.7211 96.5522 65.1689 96 65.1689H74.5957L83.9336 74.5566C84.3169 74.9419 84.3227 75.5622 83.9463 75.9541L80.3516 79.6934C80.1654 79.8868 79.9091 79.9973 79.6406 80C79.3721 80.0026 79.1137 79.8969 78.9238 79.707L61.4492 62.2344C61.2617 62.0468 61.1562 61.7926 61.1562 61.5273C61.1563 61.2622 61.2617 61.0078 61.4492 60.8203L78.9238 43.3477C79.1137 43.1578 79.3721 43.0521 79.6406 43.0547ZM41.4678 44.5791C44.1234 44.5791 46.3911 45.4904 48.1992 47.3193C50.0066 49.1476 50.9033 51.4356 50.9033 54.1123V68.9424C50.9033 71.6192 50.0068 73.908 48.1992 75.7363C46.3911 77.5651 44.1233 78.4756 41.4678 78.4756H10.4365C7.78021 78.4756 5.51227 77.5652 3.7041 75.7363C1.89657 73.908 1 71.6192 1 68.9424V54.1123C1.00004 51.4356 1.89676 49.1476 3.7041 47.3193C5.51229 45.4903 7.78015 44.5791 10.4365 44.5791H41.4678ZM10.4365 51.8613C9.7386 51.8613 9.23279 52.0777 8.83594 52.4785C8.43953 52.8806 8.22269 53.3974 8.22266 54.1123V68.9424C8.22266 69.6573 8.4396 70.1741 8.83594 70.5762C9.23279 70.977 9.73859 71.1934 10.4365 71.1934H41.4678C42.1656 71.1934 42.6707 70.9773 43.0664 70.5771L43.207 70.4209C43.5147 70.0427 43.6816 69.5685 43.6816 68.9424V54.1123C43.6816 53.3968 43.4635 52.8798 43.0664 52.4775C42.6707 52.0775 42.1655 51.8613 41.4678 51.8613H10.4365ZM18.3643 1C18.63 0.998819 18.8858 1.10368 19.0742 1.29102L36.5488 18.6611C36.7372 18.8484 36.8433 19.1035 36.8438 19.3691C36.8441 19.6349 36.7387 19.8902 36.5508 20.0781L19.0762 37.5508C18.8863 37.7406 18.6279 37.8463 18.3594 37.8438C18.0908 37.8411 17.8346 37.7298 17.6484 37.5361L14.0537 33.7979C13.6771 33.406 13.683 32.7848 14.0664 32.3994L23.4053 23.0117H2C1.44772 23.0117 1 22.564 1 22.0117V16.7295C1.0001 16.1773 1.44778 15.7295 2 15.7295H23.4053L14.0664 6.3418C13.6792 5.95261 13.6776 5.32406 14.0635 4.93359L17.6582 1.29688L17.7305 1.23047C17.9079 1.08323 18.1317 1.00112 18.3643 1ZM87.5635 2.52441C90.2198 2.52441 92.4877 3.43477 94.2959 5.26367C96.1034 7.09199 97 9.38076 97 12.0576V26.8877C97 29.5644 96.1032 31.8524 94.2959 33.6807C92.4877 35.5096 90.2198 36.4209 87.5635 36.4209H56.5322C53.8766 36.4209 51.6089 35.5096 49.8008 33.6807C47.9934 31.8524 47.0967 29.5644 47.0967 26.8877V12.0576C47.0967 9.38076 47.9932 7.09199 49.8008 5.26367C51.6089 3.43488 53.8767 2.52441 56.5322 2.52441H87.5635ZM56.5322 9.80664C55.9216 9.80664 55.4582 9.97167 55.0869 10.2812L54.9336 10.4229C54.5366 10.8251 54.3184 11.3421 54.3184 12.0576V26.8877C54.3184 27.6027 54.5362 28.1194 54.9326 28.5215C55.3284 28.9218 55.8343 29.1387 56.5322 29.1387H87.5635C88.2614 29.1387 88.7672 28.9223 89.1641 28.5215C89.5605 28.1194 89.7773 27.6026 89.7773 26.8877V12.0576C89.7773 11.3427 89.5604 10.8259 89.1641 10.4238L89.0098 10.2822C88.6376 9.97215 88.1743 9.80664 87.5635 9.80664H56.5322Z" stroke="#0E2253" stroke-width="2" stroke-linejoin="round"/>
</svg>
