<svg width="79" height="79" viewBox="0 0 79 79" fill="none" xmlns="http://www.w3.org/2000/svg">
<path d="M9.4043 10.7891C10.2677 10.877 10.9443 11.608 10.9443 12.4941C10.9443 13.4393 10.1747 14.209 9.22949 14.209C6.58154 14.209 4.42897 16.3609 4.42871 19.0088V69.5303C4.42891 72.1782 6.5815 74.3311 9.22949 74.3311H41.8193C44.4665 74.331 46.6199 72.1719 46.6201 69.5303V61.3789C46.6201 60.4338 47.389 59.6643 48.334 59.6641C49.2792 59.6641 50.0488 60.4337 50.0488 61.3789V69.5303C50.0486 74.0647 46.364 77.7524 41.8311 77.7588L41.8262 77.7598H9.22949C4.69112 77.7598 1.0002 74.0686 1 69.5303V19.0088C1.00026 14.4705 4.69116 10.7803 9.22949 10.7803L9.4043 10.7891ZM40.1973 1C54.9872 1 67.0078 13.0281 67.0078 27.8105C67.0078 34.6681 64.4228 40.9279 60.1777 45.6719L77.2529 62.4443L77.2598 62.4502C77.9157 63.1062 77.9487 64.1899 77.2666 64.8721C76.9383 65.2003 76.5057 65.3789 76.0518 65.3789H76.0449C75.6138 65.3789 75.1742 65.2108 74.8447 64.8848V64.8857L57.7246 48.0752C53.0238 52.1471 46.8896 54.6211 40.1904 54.6211C25.4079 54.6211 13.38 42.5931 13.3799 27.8105C13.3799 13.0279 25.4078 1.00021 40.1973 1ZM40.1973 4.42871C27.3052 4.42892 16.8164 14.9184 16.8164 27.8105C16.8165 40.7026 27.3052 51.1922 40.1973 51.1924C53.0895 51.1924 63.579 40.7027 63.5791 27.8105C63.5791 14.9183 53.0895 4.42871 40.1973 4.42871ZM36.2832 40.1123C37.2282 40.1125 37.9969 40.8812 37.9971 41.8262C37.9971 42.7713 37.2282 43.5408 36.2832 43.541H33.0254C32.0802 43.541 31.3105 42.7714 31.3105 41.8262C31.3107 40.8811 32.0803 40.1123 33.0254 40.1123H36.2832ZM41.8262 10.7803C46.3645 10.7803 50.0554 14.4705 50.0557 19.0088V40.1973C50.0557 41.1424 49.2869 41.912 48.3418 41.9121C47.3966 41.9121 46.627 41.1425 46.627 40.1973V19.0088C46.6267 16.3609 44.4741 14.209 41.8262 14.209H33.6758C32.7306 14.209 31.9609 13.4393 31.9609 12.4941C31.961 11.549 32.7306 10.7803 33.6758 10.7803H41.8262ZM36.2832 30.332C37.2282 30.3322 37.9971 31.1018 37.9971 32.0469C37.9969 32.9918 37.2282 33.7606 36.2832 33.7607H24.874C23.988 33.7606 23.2569 33.0849 23.1689 32.2217L23.1602 32.0469L23.1689 31.8721C23.2567 31.0086 23.9879 30.3322 24.874 30.332H36.2832ZM36.2832 20.5527C37.2282 20.5529 37.9969 21.3216 37.9971 22.2666C37.9971 23.2117 37.2282 23.9813 36.2832 23.9814H26.5029C25.6167 23.9814 24.8856 23.3049 24.7979 22.4414L24.7891 22.2666L24.7979 22.0918C24.8858 21.2285 25.6169 20.5528 26.5029 20.5527H36.2832Z" stroke="#0E2253" stroke-width="2" stroke-linejoin="round"/>
</svg>
