<svg width="80" height="80" viewBox="0 0 80 80" fill="none" xmlns="http://www.w3.org/2000/svg">
<path d="M40.5811 13.4678C55.5325 13.468 67.7019 25.6374 67.7021 40.5889C67.7021 47.3178 65.239 53.4843 61.1641 58.2275L77.9941 75.3584H77.9932C78.7288 76.1001 78.6931 77.2834 77.9795 77.9971C77.6502 78.3263 77.2168 78.5071 76.7832 78.5352C76.7812 78.5354 76.7793 78.5359 76.7773 78.5361L76.6748 78.541H76.666C76.6294 78.541 76.5932 78.539 76.5576 78.5352C76.1215 78.5077 75.682 78.3285 75.3457 77.9805V77.9814L58.5645 60.8926C53.7789 65.1371 47.485 67.7109 40.5977 67.7109C32.5237 67.7109 25.2741 64.1667 20.3008 58.5615L14.5557 61.4336C14.5667 61.5899 14.5752 61.7487 14.5752 61.9111C14.5752 65.6518 11.5277 68.6992 7.78711 68.6992C4.04668 68.699 1 65.6516 1 61.9111C1.00006 58.1707 4.04671 55.1242 7.78711 55.124C10.0384 55.124 12.0293 56.2206 13.2617 57.9082L17.9688 55.5547C15.1215 51.2671 13.459 46.1211 13.459 40.5889C13.4592 25.6284 25.6296 13.4678 40.5811 13.4678ZM7.78711 58.8564C6.10432 58.8567 4.73248 60.2283 4.73242 61.9111C4.73242 63.594 6.10428 64.9656 7.78711 64.9658C9.47012 64.9658 10.8418 63.5941 10.8418 61.9111C10.8417 60.2282 9.47009 58.8564 7.78711 58.8564ZM40.5889 17.2002C27.695 17.2004 17.2004 27.695 17.2002 40.5889C17.2002 53.4829 27.6949 63.9783 40.5889 63.9785C53.483 63.9785 63.9785 53.483 63.9785 40.5889C63.9783 27.6949 53.4829 17.2002 40.5889 17.2002ZM35.1787 22.4902C40.2232 22.4902 44.3153 26.5905 44.3154 31.626C44.3154 36.0537 41.1486 39.7528 36.9561 40.585V44.2334C38.3953 44.6644 39.612 45.6066 40.3984 46.8447L46.6475 45.0889C46.6452 45.0148 46.6436 44.9412 46.6436 44.8682C46.6436 41.4561 49.4229 38.6768 52.835 38.6768C56.2469 38.6768 59.0264 41.4562 59.0264 44.8682C59.0263 48.2801 56.2469 51.0595 52.835 51.0596C50.755 51.0596 48.9182 50.0333 47.7979 48.4658L41.3672 50.2773C41.3126 53.6427 38.5568 56.3672 35.1787 56.3672C35.1088 56.3672 35.0405 56.3594 34.9746 56.3457C31.6567 56.2373 28.9883 53.5038 28.9883 50.1602C28.9883 47.365 30.8516 44.9969 33.4023 44.2334V40.5859C29.2151 39.7596 26.043 36.0599 26.043 31.626C26.0431 26.5906 30.1343 22.4904 35.1787 22.4902ZM35.1787 47.5234C33.7262 47.5236 32.542 48.7076 32.542 50.1602C32.542 51.6127 33.7262 52.7967 35.1787 52.7969C36.6313 52.7969 37.8154 51.6128 37.8154 50.1602C37.8154 48.7075 36.6314 47.5234 35.1787 47.5234ZM52.835 42.2236C51.3823 42.2236 50.1982 43.4077 50.1982 44.8604C50.1983 45.1316 50.2425 45.4007 50.3223 45.665C50.3445 45.717 50.3623 45.7683 50.377 45.8184C50.7661 46.8023 51.7238 47.4971 52.835 47.4971C54.2875 47.497 55.4716 46.3129 55.4717 44.8604C55.4717 43.4077 54.2876 42.2237 52.835 42.2236ZM35.1787 26.0361C32.1021 26.0363 29.5968 28.5416 29.5967 31.6182C29.5967 34.6933 32.1005 37.1922 35.1787 37.1924C38.2563 37.1924 40.7607 34.6864 40.7607 31.6182C40.7606 28.5485 38.2547 26.0361 35.1787 26.0361ZM8.77539 1C12.5254 1.0001 15.5623 4.04771 15.5625 7.78711C15.5625 8.81789 15.3294 9.78907 14.9238 10.6592L19.0957 13.8555H19.0947C19.9254 14.485 20.0564 15.656 19.4521 16.4619L19.4443 16.4717C19.0706 16.9575 18.5193 17.2002 17.959 17.2002C17.562 17.2002 17.1536 17.0699 16.8164 16.8076V16.8066L12.4619 13.4805C11.3985 14.1725 10.1317 14.5752 8.77539 14.5752C5.03477 14.5752 1.9873 11.5277 1.9873 7.78711C1.98753 4.04765 5.02527 1 8.77539 1ZM8.77051 4.73242C7.08978 4.73497 5.72093 6.10585 5.7207 7.78711C5.7207 9.47012 7.09238 10.8418 8.77539 10.8418C9.5609 10.8418 10.2735 10.5408 10.8145 10.0508C10.8421 10.0089 10.8766 9.96476 10.915 9.91895L10.9141 9.91797C11.0068 9.80209 11.1062 9.70496 11.207 9.62109C11.5923 9.11558 11.8213 8.48312 11.8213 7.78711C11.8211 6.1056 10.4516 4.73457 8.77051 4.73242Z" stroke="#0E2253" stroke-width="2" stroke-linejoin="round"/>
</svg>
