<svg width="73" height="80" viewBox="0 0 73 80" fill="none" xmlns="http://www.w3.org/2000/svg">
<path d="M53.3691 1C54.828 1.00002 56.2008 1.57193 57.2266 2.59766H57.2256L70.3105 15.6729L70.498 15.8691C71.406 16.8704 71.9082 18.1626 71.9082 19.5303V73.0986C71.9081 76.1112 69.4569 78.5625 66.4443 78.5625H6.46387C3.45137 78.5624 1.0001 76.1111 1 73.0986V6.46387C1.00009 3.45137 3.45137 1.00009 6.46387 1H53.3691ZM6.59277 4.85449C6.55058 4.85992 6.50754 4.86426 6.46387 4.86426C5.58109 4.86435 4.86435 5.58109 4.86426 6.46387V73.1074C4.86426 73.9903 5.58103 74.7079 6.46387 74.708H66.4541C67.3368 74.7078 68.0537 73.9902 68.0537 73.1074V19.5391C68.0537 19.1166 67.8897 18.7178 67.582 18.4102L54.498 5.32617C54.189 5.0171 53.7991 4.85451 53.3691 4.85449H6.59277ZM27.8213 52.8994C28.44 52.0314 29.6499 51.8346 30.5088 52.4512H30.5098C31.3885 53.076 31.5713 54.2904 30.96 55.1504L30.958 55.1523L23.3447 65.8047L23.3408 65.8105C22.7065 66.6859 21.7243 67.2493 20.6367 67.3389L20.5547 67.3418H20.3311C20.3229 67.3418 20.3148 67.34 20.3066 67.3398C19.3555 67.3286 18.4275 66.9512 17.7422 66.2568L13.9209 62.4355C13.167 61.6816 13.1669 60.461 13.9209 59.707L14.0674 59.5752C14.7751 58.9977 15.7953 58.9976 16.5029 59.5752L16.6494 59.707L20.3262 63.3848L27.8213 52.8994ZM55.8574 58.1846C56.9222 58.1846 57.789 59.0514 57.7891 60.1162C57.7891 61.1811 56.9223 62.0488 55.8574 62.0488H41.748C40.6832 62.0488 39.8154 61.1811 39.8154 60.1162C39.8155 59.0514 40.6833 58.1846 41.748 58.1846H55.8574ZM27.8213 35.2578C28.44 34.3896 29.6498 34.1928 30.5088 34.8096H30.5098C31.3885 35.4345 31.5714 36.6487 30.96 37.5088L30.958 37.5107L23.3447 48.1631L23.3408 48.168C22.7065 49.0434 21.7243 49.6067 20.6367 49.6963L20.5547 49.7002H20.3311C20.3232 49.7002 20.3154 49.6984 20.3076 49.6982C19.3411 49.6873 18.4229 49.3056 17.7324 48.6152L13.9111 44.7939C13.1574 44.04 13.1573 42.8194 13.9111 42.0654C14.6651 41.3115 15.8856 41.3116 16.6396 42.0654L20.3223 45.748L27.8213 35.2578ZM55.8574 40.543C56.9223 40.543 57.7891 41.4098 57.7891 42.4746C57.7891 43.5394 56.9223 44.4062 55.8574 44.4062H41.748C40.7498 44.4062 39.9254 43.6445 39.8262 42.6719L39.8154 42.4746L39.8262 42.2773C39.9254 41.3047 40.7498 40.543 41.748 40.543H55.8574ZM27.8213 17.6162C28.4423 16.7448 29.659 16.5489 30.5186 17.1738H30.5176C31.3897 17.8004 31.5697 19.0097 30.96 19.8672L30.958 19.8691L23.3447 30.5215L23.3408 30.5264C22.7065 31.4018 21.7243 31.9651 20.6367 32.0547L20.5547 32.0586H20.3311C20.3255 32.0586 20.32 32.0577 20.3145 32.0576C19.3607 32.0484 18.4294 31.6698 17.7422 30.9736L13.9209 27.1523C13.1669 26.3984 13.1669 25.1778 13.9209 24.4238L14.0674 24.291C14.775 23.7138 15.7954 23.7137 16.5029 24.291L16.6494 24.4238L20.3262 28.1016L27.8213 17.6162ZM55.8574 22.9004C56.9223 22.9004 57.7891 23.7682 57.7891 24.833C57.7889 25.8977 56.9222 26.7646 55.8574 26.7646H41.748C40.7499 26.7646 39.9255 26.0028 39.8262 25.0303L39.8154 24.833L39.8262 24.6357C39.9253 23.663 40.7497 22.9004 41.748 22.9004H55.8574Z" stroke="#0E2253" stroke-width="2" stroke-linejoin="round"/>
</svg>
