<svg width="65" height="81" viewBox="0 0 65 81" fill="none" xmlns="http://www.w3.org/2000/svg">
<path d="M63.1953 12.7295V36.5107C63.1953 46.4609 60.2378 55.5005 54.3086 63.6572C48.4371 71.7346 41.0383 76.8996 32.0977 79.21C23.1571 76.8996 15.7582 71.7346 9.88672 63.6572C3.95754 55.5005 1 46.4609 1 36.5107V12.7295L32.0977 1.06738L63.1953 12.7295ZM49.1387 31.6963L27.8848 52.9512L15.1553 40.2217L19.459 35.9189L27.1777 43.6377C27.5682 44.0282 28.2013 44.0282 28.5918 43.6377L44.8359 27.3936L49.1387 31.6963ZM57.1709 17.5537C57.1709 17.137 56.9125 16.7637 56.5225 16.6172L32.4492 7.58984C32.251 7.51552 32.0346 7.50572 31.832 7.56152L31.7461 7.58984L7.67285 16.6172C7.28278 16.7637 7.02441 17.137 7.02441 17.5537V36.5107C7.02441 44.8025 9.35802 52.3565 14.0205 59.1445C18.6802 65.9285 24.6068 70.4906 31.7949 72.7715C31.9917 72.8339 32.2036 72.8339 32.4004 72.7715C39.5885 70.4906 45.5151 65.9285 50.1748 59.1445C54.8373 52.3565 57.1709 44.8025 57.1709 36.5107V17.5537Z" stroke="#0E2253" stroke-width="2" stroke-linejoin="round"/>
</svg>
