<svg width="33" height="34" viewBox="0 0 33 34" fill="none" xmlns="http://www.w3.org/2000/svg">
<path d="M17.8486 23.833C18.4912 23.833 19.0222 24.3503 19.0225 24.999V31.167H20.5439C21.1864 31.1671 21.7175 31.6844 21.7178 32.333C21.7178 32.9818 21.1865 33.4999 20.5439 33.5H15.1533C14.5107 33.4999 13.9795 32.9818 13.9795 32.333C13.9797 31.6844 14.5109 31.1671 15.1533 31.167H16.6748V24.999C16.675 24.3503 17.2061 23.833 17.8486 23.833ZM6.64453 9.37793C8.53211 7.76781 11.1778 7.23822 13.5488 7.99219L23.8818 11.2432L23.8828 11.2441C24.1903 11.3414 24.5196 11.2606 24.7422 11.0391L24.7432 11.0381L27.0469 8.75879C28.2527 7.56589 30.1902 7.529 31.4434 8.64648L31.5625 8.75879C32.1581 9.34804 32.5021 10.1636 32.5 11.002C32.5 11.7856 32.1977 12.5514 31.6689 13.1299L31.5605 13.2432L29.2607 15.5205C27.783 16.9872 25.7824 17.7217 23.7578 17.6094C24.4729 18.0122 25.1225 18.5364 25.6709 19.1709H25.6719L28.3633 22.2656L28.3672 22.2705C29.4598 23.5594 29.3397 25.4696 28.126 26.6104L28.0049 26.7178C27.4111 27.222 26.6827 27.4671 25.959 27.4736C25.9485 27.4743 25.9383 27.4775 25.9277 27.4775C25.0409 27.4775 24.1539 27.1148 23.5234 26.4043L23.5195 26.3994L20.8291 23.2949H20.8281C20.6492 23.0883 20.3776 22.9793 20.1084 23.0049L20.1064 23.0059L16.0752 23.3682L15.3799 24.9355L15.3809 24.9365C14.8717 26.0897 13.7214 26.8324 12.4551 26.835H3.69531C1.93777 26.835 0.500218 25.4207 0.5 23.6689C0.5 21.9171 1.93763 20.502 3.69531 20.502H10.3701L13.041 14.4785L11.6133 14.0293L11.6094 14.0283C11.3281 13.9374 11.021 14.0013 10.8066 14.1855L10.8037 14.1875L7.79883 16.7354L7.7998 16.7363C6.94346 17.4786 5.73781 17.7138 4.65234 17.3379V17.3389C3.56865 16.9671 2.7648 16.0419 2.55762 14.9209C2.34811 13.7991 2.76811 12.6496 3.64941 11.918L6.64453 9.37793ZM12.8418 10.2148C11.2345 9.70371 9.44704 10.0652 8.1748 11.1504L8.17383 11.1514L5.16797 13.7012L5.16406 13.7051C4.92558 13.9028 4.81749 14.2057 4.87109 14.4961C4.92462 14.7854 5.13508 15.0311 5.4248 15.1328L5.53418 15.1631C5.79332 15.2153 6.06694 15.1454 6.26758 14.9717L6.27148 14.9688L9.2832 12.4141C10.1156 11.6996 11.2836 11.4643 12.3369 11.8057H12.3359L15.0039 12.6455H15.0049C15.3217 12.7463 15.5788 12.9742 15.7178 13.2715C15.8608 13.5774 15.8587 13.9265 15.7256 14.2275V14.2285L12.2178 22.1387L12.2168 22.1396C12.0266 22.5648 11.6054 22.833 11.1436 22.833H3.69531C3.22316 22.833 2.84787 23.2121 2.84766 23.666C2.84766 24.1201 3.22303 24.499 3.69531 24.499H12.4561C12.7946 24.499 13.099 24.3006 13.2334 23.9971L14.209 21.7979C14.3815 21.4073 14.7569 21.1438 15.1787 21.1064L19.8945 20.6826H19.9004C19.9814 20.6763 20.067 20.6719 20.1553 20.6709C20.1666 20.6701 20.178 20.668 20.1895 20.668C21.1137 20.668 22.0018 21.0697 22.6104 21.7734L25.292 24.8682L25.3496 24.9277C25.6534 25.2074 26.1467 25.2272 26.4805 24.9443L26.542 24.8867C26.8311 24.5864 26.852 24.11 26.5801 23.7861L23.8955 20.6963L23.8945 20.6953C22.869 19.5074 21.3189 18.8836 19.7354 19.0225L19.7363 19.0234L17.248 19.2471L17.2393 19.248C16.841 19.2769 16.4374 19.1074 16.1904 18.7676C15.9459 18.4311 15.9006 17.993 16.0674 17.6143L16.0684 17.6123L17.4502 14.5059L17.4512 14.5049C17.6959 13.9572 18.3147 13.69 18.877 13.8643H18.8789L22.6631 15.0557L22.9932 15.1475C24.6509 15.5485 26.3889 15.0733 27.6074 13.8682L29.9092 11.5889C30.0669 11.4329 30.1572 11.2162 30.1572 11C30.1572 10.7809 30.0667 10.5657 29.9111 10.4131L29.9092 10.4121C29.578 10.0845 29.0382 10.0845 28.707 10.4121L26.4033 12.6904L26.4023 12.6914C25.5529 13.5291 24.3163 13.827 23.1748 13.4658V13.4648L12.8428 10.2148H12.8418ZM19.0186 16.7441L19.5225 16.6992H19.5234C19.6891 16.6843 19.8545 16.6764 20.0195 16.6729L19.1689 16.4053L19.0186 16.7441ZM19.1963 0.5C21.6972 0.500063 23.7392 2.51191 23.7393 4.99902C23.7393 7.47454 21.7163 9.47825 19.2314 9.49707C19.2198 9.49789 19.2082 9.50097 19.1963 9.50098C16.6953 9.50098 14.6533 7.4882 14.6533 5.00098C14.6535 2.51427 16.6951 0.5 19.1963 0.5ZM19.1963 2.83301C17.9807 2.83301 17.0011 3.80965 17.001 4.99902C17.001 6.18847 17.9807 7.16504 19.1963 7.16504C20.4118 7.16498 21.3916 6.18844 21.3916 4.99902C21.3915 3.80969 20.4118 2.83307 19.1963 2.83301Z" stroke="#0E2253" stroke-linejoin="round"/>
</svg>
