<svg width="117" height="168" viewBox="0 0 117 168" fill="none" xmlns="http://www.w3.org/2000/svg">
<g clip-path="url(#clip0_1069_205)">
<path d="M12.6809 11.47C14.7809 10.87 16.1009 11.52 16.6309 13.41C16.9309 14.46 16.7909 15.18 16.2209 15.57C16.9109 15.6 17.4009 16.14 17.7009 17.19C18.2409 19.08 17.4609 20.32 15.3609 20.92L9.07086 22.71L6.38086 13.27L12.6709 11.48L12.6809 11.47ZM13.7609 15.25C14.6009 15.01 14.9309 14.58 14.7509 13.95C14.5709 13.32 13.9609 13.16 12.9109 13.45L8.82086 14.61L9.36086 16.5L13.7709 15.25H13.7609ZM14.2909 17.13L9.88086 18.38L10.4209 20.27L14.5109 19.11C15.5609 18.81 15.9909 18.35 15.8109 17.72C15.6309 17.09 15.1209 16.89 14.2809 17.13H14.2909Z" fill="#25316B"/>
<path d="M22.0412 16.97L21.7612 19.09L19.7012 19.67L21.1112 9.05998L23.1612 8.47998L29.9412 16.75L27.8912 17.33L26.5312 15.67L22.0312 16.95L22.0412 16.97ZM25.1812 14.04L22.8112 11.16L22.3212 14.86L25.1812 14.05V14.04Z" fill="#25316B"/>
<path d="M33.1899 11.76C31.0899 12.36 29.7699 11.71 29.2399 9.82005C28.6999 7.93005 29.4799 6.69005 31.5799 6.09005L37.8699 4.30005L38.4099 6.19005L32.4299 7.89005C31.3799 8.19005 30.9499 8.65005 31.1299 9.28005C31.3099 9.91005 31.9199 10.07 32.9699 9.78005L35.7999 8.97005C37.8999 8.37005 39.2199 9.02005 39.7499 10.91C40.2899 12.8 39.5099 14.04 37.4099 14.64L31.1199 16.43L30.5799 14.54L36.5599 12.84C37.6099 12.54 38.0399 12.08 37.8599 11.45C37.6799 10.82 37.0699 10.66 36.0199 10.95L33.1899 11.76Z" fill="#25316B"/>
<path d="M44.33 12.67L42.44 13.21L39.75 3.76998L41.64 3.22998L44.33 12.67Z" fill="#25316B"/>
<path d="M55.14 7.55L55.68 9.44L49.39 11.23C47.29 11.83 45.94 11.08 45.35 8.98L44.45 5.83C43.85 3.73 44.6 2.38 46.7 1.79L52.99 0L53.53 1.89L47.49 3.61C46.48 3.9 46.12 4.54 46.4 5.55L47.15 8.19C47.44 9.2 48.09 9.56 49.1 9.27L55.13 7.55H55.14Z" fill="#25316B"/>
<path d="M69.7905 10.3301L69.2505 12.2201L59.8105 9.53009L62.5005 0.0900879L64.3905 0.630088L62.2405 8.18009L69.7905 10.3301Z" fill="#25316B"/>
<path d="M73.5901 11.4101L81.1402 13.5601L80.6002 15.4501L71.1602 12.7601L73.8502 3.32007L83.2902 6.01007L82.7502 7.90007L75.2001 5.75007L74.6602 7.64007L82.2102 9.79007L81.6702 11.6801L74.1202 9.53007L73.5802 11.4201L73.5901 11.4101Z" fill="#25316B"/>
<path d="M94.7009 9.25008L87.9209 17.5201L85.8709 16.9401L84.4609 6.33008L86.5209 6.91008L87.5709 14.8501L92.6509 8.66008L94.7009 9.24008V9.25008Z" fill="#25316B"/>
<path d="M95.5999 17.6701L103.15 19.8201L102.61 21.7101L93.1699 19.0201L95.8599 9.58008L105.3 12.2701L104.76 14.1601L97.2099 12.0101L96.6699 13.9001L104.22 16.0501L103.68 17.9401L96.1299 15.7901L95.5899 17.6801L95.5999 17.6701Z" fill="#25316B"/>
<path d="M114.48 23.04L113.94 24.93L104.5 22.24L107.19 12.8L109.08 13.34L106.93 20.89L114.48 23.04Z" fill="#25316B"/>
<path fill-rule="evenodd" clip-rule="evenodd" d="M57.59 14.49L0 30.88C0.83 56.6 6.32 78.01 16.33 94.53C25.83 110.22 39.71 121.96 57.59 129.45C75.48 121.95 89.35 110.21 98.86 94.53C100.39 92 101.82 89.35 103.14 86.61L80.28 80.09C75.05 89.44 67.88 97.01 58.96 102.61L57.59 103.46L56.23 102.61C46.72 96.65 39.21 88.45 33.91 78.25C29.77 70.28 26.9 61.15 25.16 50.33L24.8 48.08L26.99 47.46L56.89 38.95L57.59 38.75L58.29 38.95L88.19 47.46L90.38 48.08L90.02 50.33C89.7 52.33 89.32 54.4 88.86 56.53C87.67 61.99 86.16 66.93 84.53 71.31C86.71 71.97 88.88 72.63 91.06 73.29C92.17 70.43 93.17 67.42 94.03 64.31C95.83 57.85 97.14 50.71 97.93 43.05L57.58 31.57L17.23 43.05C18.69 57.2 21.8 69.08 26.71 79.31C33.57 93.6 43.68 104.08 57.58 111.36C67.75 106.03 76.1 98.75 82.42 89.7L83.46 88.2L85.22 88.7L89.66 89.96L93.04 90.92L91.08 93.85C83.12 105.75 72.22 115.03 58.67 121.42L57.58 121.93L56.49 121.42C26.29 107.16 10.2 79.91 7.28 38.11L7.13 36.04L9.13 35.47L56.88 21.88L57.58 21.68L58.28 21.88L106.03 35.47L108.03 36.04L107.89 38.11C107.16 48.57 105.57 58.24 103.16 66.87C102.3 69.97 101.31 73 100.21 75.9L106.85 77.79C107.92 74.9 108.9 71.87 109.76 68.79C112.89 57.56 114.71 44.82 115.16 30.89L57.59 14.49Z" fill="url(#paint0_linear_1069_205)"/>
<path d="M20.2905 151.91V155.91H6.97055C2.53055 155.91 0.310547 153.69 0.310547 149.24V142.57C0.310547 138.12 2.53055 135.9 6.97055 135.9H20.2905V139.9H7.51055C5.37055 139.9 4.30055 140.97 4.30055 143.1V148.69C4.30055 150.84 5.37055 151.91 7.52055 151.91H20.2805H20.2905Z" fill="#24336B"/>
<path d="M31.6112 147.9L22.9512 135.9H27.6012L33.6012 143.9L39.6012 135.9H44.2612L35.6012 147.9V155.91H31.6012V147.9H31.6112Z" fill="#24336B"/>
<path d="M60.2497 135.9C64.6897 135.9 66.9097 137.9 66.9097 141.9C66.9097 144.12 66.2397 145.46 64.9097 145.9C66.2397 146.34 66.9097 147.68 66.9097 149.9C66.9097 153.9 64.6897 155.9 60.2497 155.9H46.9297V135.89H60.2497V135.9ZM60.2497 143.91C62.0297 143.91 62.9097 143.24 62.9097 141.91C62.9097 140.58 61.7997 139.91 59.5797 139.91H50.9197V143.92H60.2397L60.2497 143.91ZM60.2497 147.9H50.9297V151.91H59.5897C61.8097 151.91 62.9197 151.24 62.9197 149.91C62.9197 148.58 62.0297 147.91 60.2597 147.91L60.2497 147.9Z" fill="#24336B"/>
<path d="M70.9102 135.9H90.9102V139.9H70.9102V135.9ZM70.9102 143.91H90.9102V147.91H70.9102V143.91ZM70.9102 155.91V151.91H90.9102V155.91H70.9102Z" fill="#24336B"/>
<path d="M100.881 147.9H98.8809V155.91H94.8809V135.9H108.201C112.641 135.9 114.861 137.9 114.861 141.9C114.861 145.9 112.641 147.9 108.201 147.9H106.871L116.171 155.91H110.201L100.881 147.9ZM107.541 143.91C109.761 143.91 110.871 143.24 110.871 141.91C110.871 140.58 109.761 139.91 107.541 139.91H98.8809V143.92H107.541V143.91Z" fill="#24336B"/>
<path d="M11.2303 167.17H5.07031V161.21H11.1703V162.23H6.45031V163.56H9.20031V164.58H6.45031V166.06H11.2203V167.18L11.2303 167.17Z" fill="#7C8DB5"/>
<path d="M22.9104 167.17H21.0304L18.8504 164.86L16.8404 167.17H15.2004L18.0304 164.11L15.1504 161.21H16.9904L18.9004 163.23L20.7104 161.21H22.3004L19.7004 163.95L22.9104 167.17Z" fill="#7C8DB5"/>
<path d="M32.8403 165.76C32.8403 166.31 32.7303 166.69 32.5203 166.88C32.3103 167.07 31.9203 167.17 31.3603 167.17H27.8003C27.2403 167.17 26.8503 167.07 26.6403 166.88C26.4303 166.69 26.3203 166.31 26.3203 165.76V162.62C26.3203 162.07 26.4303 161.69 26.6403 161.5C26.8503 161.31 27.2403 161.21 27.8003 161.21H31.3603C32.0703 161.21 32.5103 161.38 32.6803 161.71C32.7903 161.9 32.8403 162.4 32.8403 163.19L31.4503 163.41V162.28H27.7103V166.06H31.4503V164.78L32.8403 165.07V165.77V165.76Z" fill="#7C8DB5"/>
<path d="M44.1795 167.17H38.0195V161.21H44.1195V162.23H39.3995V163.56H42.1495V164.58H39.3995V166.06H44.1695V167.18L44.1795 167.17Z" fill="#7C8DB5"/>
<path d="M54.9205 167.17H49.0605V161.21H50.4505V166.05H54.9205V167.17Z" fill="#7C8DB5"/>
<path d="M65.1198 167.17H59.2598V161.21H60.6498V166.05H65.1198V167.17Z" fill="#7C8DB5"/>
<path d="M75.6307 167.17H69.4707V161.21H75.5707V162.23H70.8507V163.56H73.6007V164.58H70.8507V166.06H75.6207V167.18L75.6307 167.17Z" fill="#7C8DB5"/>
<path d="M87.5102 167.17H86.5602L82.1802 163.48C82.0002 163.33 81.8302 163.16 81.6802 162.99C81.7202 163.38 81.7402 163.68 81.7402 163.9V167.16H80.4902V161.2H81.4402L85.6402 164.71C85.9402 164.96 86.1702 165.18 86.3202 165.36C86.2802 164.81 86.2602 164.46 86.2602 164.33V161.2H87.5102V167.16V167.17Z" fill="#7C8DB5"/>
<path d="M99.2505 165.76C99.2505 166.31 99.1405 166.69 98.9305 166.88C98.7205 167.07 98.3305 167.17 97.7705 167.17H94.2105C93.6505 167.17 93.2605 167.07 93.0505 166.88C92.8405 166.69 92.7305 166.31 92.7305 165.76V162.62C92.7305 162.07 92.8405 161.69 93.0505 161.5C93.2605 161.31 93.6505 161.21 94.2105 161.21H97.7705C98.4805 161.21 98.9205 161.38 99.0905 161.71C99.2005 161.9 99.2505 162.4 99.2505 163.19L97.8605 163.41V162.28H94.1205V166.06H97.8605V164.78L99.2505 165.07V165.77V165.76Z" fill="#7C8DB5"/>
<path d="M110.59 167.17H104.43V161.21H110.53V162.23H105.81V163.56H108.56V164.58H105.81V166.06H110.58V167.18L110.59 167.17Z" fill="#7C8DB5"/>
<path d="M69.0409 78.39V84.35H45.1609V79.61L57.3509 68.1C60.1509 65.44 60.6509 63.81 60.6509 62.28C60.6509 59.8 58.9309 58.35 55.5909 58.35C52.8809 58.35 50.5809 59.39 49.0409 61.51L43.7109 58.08C46.1509 54.51 50.5709 52.21 56.2609 52.21C63.3009 52.21 68.0009 55.82 68.0009 61.56C68.0009 64.63 67.1409 67.43 62.7209 71.54L55.4509 78.4H69.0409V78.39Z" fill="#25316B"/>
</g>
<defs>
<linearGradient id="paint0_linear_1069_205" x1="0" y1="71.97" x2="115.17" y2="71.97" gradientUnits="userSpaceOnUse">
<stop offset="0.13" stop-color="#613995"/>
<stop offset="0.5" stop-color="#9E5FA6"/>
<stop offset="0.88" stop-color="#4A3080"/>
</linearGradient>
<clipPath id="clip0_1069_205">
<rect width="116.17" height="167.17" fill="white"/>
</clipPath>
</defs>
</svg>
