<svg width="33" height="33" viewBox="0 0 33 33" fill="none" xmlns="http://www.w3.org/2000/svg">
<path d="M16.487 32.974C13.2262 32.974 10.0387 32.0071 7.32744 30.1955C4.61618 28.3839 2.503 25.8091 1.25511 22.7965C0.007218 19.784 -0.319349 16.469 0.316724 13.2709C0.952798 10.0728 2.52295 7.13504 4.8286 4.82925C7.13424 2.52346 10.0718 0.953188 13.2699 0.31692C16.468 -0.319347 19.783 0.00701666 22.7956 1.25473C25.8083 2.50243 28.3832 4.61542 30.195 7.32656C32.0067 10.0377 32.9738 13.2252 32.974 16.486C32.9695 20.8573 31.2311 25.0483 28.1402 28.1394C25.0493 31.2305 20.8583 32.9693 16.487 32.974ZM16.487 1.43099C13.5092 1.43119 10.5983 2.31442 8.12251 3.96896C5.64667 5.6235 3.71708 7.97502 2.57771 10.7262C1.43834 13.4774 1.14038 16.5047 1.72151 19.4253C2.30264 22.3458 3.73675 25.0284 5.84251 27.1339C7.94827 29.2394 10.6311 30.6731 13.5517 31.2539C16.4723 31.8346 19.4996 31.5363 22.2506 30.3966C25.0017 29.2568 27.353 27.3269 29.0072 24.8509C30.6614 22.3748 31.5442 19.4638 31.544 16.486C31.5393 12.4943 29.9513 8.66744 27.1286 5.84506C24.3058 3.02267 20.4787 1.43523 16.487 1.43099Z" fill="#0E2253"/>
<path d="M14.6912 17.4819H12.0752V14.5349H12.2642C13.0042 14.5349 13.7442 14.5349 14.4842 14.5349C14.6442 14.5349 14.6982 14.4939 14.6962 14.3259C14.6872 13.6259 14.6892 12.9329 14.6962 12.2359C14.6716 11.4314 14.8596 10.6346 15.2412 9.9259C15.4882 9.49946 15.8267 9.13313 16.2324 8.85333C16.6381 8.57354 17.1008 8.38728 17.5872 8.30792C18.2308 8.19582 18.8874 8.17792 19.5362 8.25488C19.9252 8.28988 20.3132 8.33591 20.7022 8.37891C20.7682 8.38591 20.8342 8.40393 20.9022 8.41693V10.9169C20.8142 10.9169 20.7302 10.9169 20.6472 10.9169C20.1201 10.9124 19.5931 10.9391 19.0692 10.9969C18.7449 11.0455 18.4496 11.2108 18.2386 11.4618C18.0276 11.7128 17.9154 12.0321 17.9232 12.3599C17.9002 13.0379 17.9092 13.7159 17.8992 14.3939C17.8992 14.5389 17.9852 14.5309 18.0832 14.5309H20.5242C20.5972 14.5309 20.6702 14.5379 20.7712 14.5429L20.3162 17.4809H17.9052V24.7179C17.8262 24.7179 17.7712 24.7279 17.7162 24.7279H14.9362C14.6902 24.7279 14.6902 24.7279 14.6902 24.4809V17.4809L14.6912 17.4819Z" fill="#0E2253"/>
</svg>
