<svg width="33" height="33" viewBox="0 0 33 33" fill="none" xmlns="http://www.w3.org/2000/svg">
<path d="M16.488 32.974C13.2272 32.9742 10.0395 32.0075 7.32814 30.196C4.61676 28.3846 2.50343 25.8098 1.25539 22.7972C0.0073427 19.7847 -0.319355 16.4697 0.316606 13.2715C0.952566 10.0733 2.52262 7.13552 4.82823 4.82963C7.13384 2.52374 10.0715 0.953345 13.2696 0.316997C16.4677 -0.319352 19.7827 0.00693977 22.7954 1.25462C25.808 2.5023 28.3831 4.61536 30.1949 7.32652C32.0067 10.0377 32.9738 13.2252 32.974 16.486C32.9692 20.8571 31.2309 25.0478 28.1402 28.1388C25.0496 31.2298 20.8591 32.9687 16.488 32.974ZM16.488 1.43101C13.5101 1.43081 10.5991 2.3137 8.12297 3.968C5.64687 5.6223 3.71693 7.97373 2.57726 10.7249C1.43758 13.4761 1.13935 16.5034 1.72026 19.4241C2.30117 22.3447 3.73513 25.0275 5.84081 27.1332C7.94649 29.2389 10.6293 30.6729 13.55 31.2538C16.4706 31.8347 19.498 31.5364 22.2491 30.3968C25.0003 29.2571 27.3517 27.3272 29.006 24.8511C30.6603 22.375 31.5432 19.4639 31.543 16.486C31.538 12.4947 29.9502 8.66832 27.1279 5.84605C24.3057 3.02378 20.4793 1.43604 16.488 1.43101Z" fill="#0E2253"/>
<path d="M20.3222 25.274H12.6522L12.1812 25.21C11.042 25.0555 9.98884 24.5197 9.19319 23.6899C8.7044 23.1935 8.32033 22.6039 8.06386 21.9561C7.80739 21.3083 7.68372 20.6155 7.70018 19.9189C7.70018 17.6769 7.70018 15.4353 7.70018 13.194C7.69809 12.8482 7.72015 12.5027 7.76619 12.16C7.91848 11.0363 8.44726 9.99736 9.26619 9.21296C9.76596 8.7191 10.3598 8.33071 11.0126 8.07081C11.6654 7.8109 12.3637 7.68477 13.0662 7.69996C15.3402 7.69996 17.6139 7.69996 19.8872 7.69996C20.926 7.67789 21.9484 7.96169 22.8272 8.516C23.9468 9.20449 24.7553 10.3009 25.0822 11.574C25.1732 11.916 25.2132 12.274 25.2822 12.621V20.353C25.2713 20.3883 25.2633 20.4244 25.2582 20.461C25.2233 20.9404 25.1182 21.4121 24.9462 21.861C24.6561 22.6631 24.171 23.3803 23.5344 23.9481C22.8979 24.5158 22.1301 24.9161 21.3002 25.113C20.9772 25.193 20.6462 25.22 20.3222 25.274ZM23.5092 16.4919H23.4902C23.4902 15.2189 23.5302 13.945 23.4782 12.675C23.4576 12.1365 23.3032 11.6115 23.0289 11.1476C22.7547 10.6838 22.3691 10.2955 21.9072 10.0179C21.3209 9.64153 20.6357 9.44868 19.9392 9.46399C17.6725 9.46399 15.4039 9.46399 13.1332 9.46399C12.8726 9.46147 12.6123 9.48155 12.3552 9.52399C11.8108 9.60923 11.2955 9.82615 10.8541 10.1559C10.4126 10.4856 10.0584 10.9182 9.82219 11.416C9.5764 11.9203 9.45468 12.4761 9.46718 13.037C9.46718 15.0823 9.46718 17.1273 9.46718 19.172C9.46718 19.55 9.45518 19.93 9.48918 20.305C9.52682 20.9008 9.72126 21.476 10.0528 21.9725C10.3844 22.4689 10.8413 22.8689 11.3772 23.132C11.8981 23.3945 12.4761 23.5234 13.0592 23.507C15.2105 23.5123 17.3618 23.5123 19.5132 23.507C19.7792 23.507 20.0452 23.502 20.3132 23.483C20.7902 23.4522 21.2552 23.3204 21.6774 23.0963C22.0997 22.8721 22.4694 22.5608 22.7622 22.183C23.266 21.553 23.5316 20.7655 23.5122 19.959C23.5109 18.8037 23.5098 17.6483 23.5092 16.493V16.4919Z" fill="#0E2253"/>
<path d="M11.9464 16.4642C11.951 15.5685 12.2203 14.6942 12.7205 13.9513C13.2207 13.2083 13.9294 12.6299 14.7575 12.2887C15.5856 11.9475 16.4961 11.8588 17.3745 12.0338C18.2529 12.2088 19.0599 12.6396 19.6941 13.2721C20.3282 13.9046 20.7612 14.7104 20.9385 15.5884C21.1158 16.4663 21.0295 17.3771 20.6905 18.2061C20.3515 19.0351 19.7749 19.7453 19.0332 20.2475C18.2916 20.7496 17.418 21.0212 16.5224 21.0281C15.9209 21.0337 15.3244 20.9196 14.7674 20.6924C14.2105 20.4651 13.7044 20.1293 13.2785 19.7046C12.8526 19.2798 12.5155 18.7745 12.2868 18.2182C12.0581 17.6619 11.9424 17.0656 11.9464 16.4642ZM16.3564 13.7231C15.8044 13.7492 15.2727 13.9397 14.8298 14.2702C14.3868 14.6006 14.0527 15.056 13.8704 15.5777C13.6881 16.0994 13.6659 16.6637 13.8067 17.1981C13.9475 17.7325 14.2448 18.2127 14.6604 18.5769C15.0761 18.9411 15.5911 19.1728 16.1394 19.2421C16.6877 19.3115 17.2442 19.2153 17.7374 18.9661C18.2307 18.7169 18.6382 18.3259 18.9076 17.8434C19.177 17.3608 19.296 16.8088 19.2494 16.2582C19.1918 15.5415 18.8568 14.8756 18.3158 14.4022C17.7747 13.9288 17.0703 13.6851 16.3524 13.7231H16.3564Z" fill="#0E2253"/>
<path d="M21.0163 10.893C21.3049 10.8894 21.5831 11.0006 21.7896 11.2022C21.9962 11.4037 22.1143 11.679 22.1178 11.9675C22.1214 12.2561 22.0102 12.5343 21.8087 12.7409C21.6072 12.9474 21.3319 13.0655 21.0433 13.069C20.8963 13.0682 20.7509 13.0379 20.6158 12.9799C20.4807 12.9219 20.3586 12.8374 20.2567 12.7314C20.1548 12.6254 20.0752 12.5 20.0226 12.3627C19.9699 12.2254 19.9454 12.079 19.9503 11.932C19.9499 11.7932 19.9773 11.6556 20.0311 11.5276C20.0848 11.3996 20.1638 11.2836 20.2632 11.1867C20.3627 11.0898 20.4806 11.0138 20.6099 10.9634C20.7393 10.9129 20.8775 10.889 21.0163 10.893Z" fill="#0E2253"/>
</svg>
