<svg width="33" height="33" viewBox="0 0 33 33" fill="none" xmlns="http://www.w3.org/2000/svg">
<path d="M16.487 32.974C13.2262 32.974 10.0387 32.0071 7.32744 30.1955C4.61618 28.3839 2.503 25.8091 1.25511 22.7965C0.007218 19.784 -0.319349 16.469 0.316724 13.2709C0.952798 10.0728 2.52295 7.13504 4.8286 4.82925C7.13424 2.52346 10.0718 0.953188 13.2699 0.31692C16.468 -0.319347 19.783 0.00701666 22.7956 1.25473C25.8082 2.50243 28.3832 4.61542 30.195 7.32656C32.0067 10.0377 32.9738 13.2252 32.974 16.486C32.9695 20.8573 31.2311 25.0483 28.1402 28.1394C25.0493 31.2305 20.8583 32.9693 16.487 32.974ZM16.487 1.43099C13.5092 1.43099 10.5982 2.31405 8.12224 3.96847C5.64627 5.62289 3.7165 7.97437 2.57698 10.7256C1.43745 13.4767 1.13936 16.504 1.72038 19.4246C2.3014 22.3453 3.73545 25.028 5.84117 27.1336C7.94689 29.2391 10.6297 30.673 13.5503 31.2538C16.471 31.8346 19.4983 31.5363 22.2494 30.3966C25.0005 29.2569 27.3518 27.327 29.0061 24.8509C30.6603 22.3748 31.5432 19.4638 31.543 16.486C31.5382 12.4944 29.9504 8.66778 27.1279 5.84542C24.3053 3.02307 20.4786 1.43549 16.487 1.43099Z" fill="#0E2253"/>
<path d="M21.3864 24.7062C21.2807 24.3328 21.2522 23.9419 21.3024 23.5571C21.2814 21.7871 21.3024 20.0171 21.2474 18.2491C21.2124 17.0721 20.5874 16.4291 19.6094 16.4161C19.3607 16.39 19.1092 16.4149 18.8705 16.4893C18.6317 16.5636 18.4106 16.686 18.2208 16.8488C18.0309 17.0116 17.8763 17.2114 17.7664 17.436C17.6564 17.6607 17.5935 17.9054 17.5814 18.1551C17.4646 19.7747 17.4312 21.3992 17.4814 23.0222C17.4664 23.5792 17.4554 24.1351 17.4424 24.6921H14.1034C14.0934 21.1771 14.0884 17.6612 14.0674 14.1462C14.0674 13.7332 14.2594 13.6662 14.6044 13.6752C15.2827 13.709 15.9623 13.7063 16.6404 13.6672C17.2544 13.6152 17.4124 13.8721 17.3404 14.4141C17.3289 14.5926 17.3289 14.7716 17.3404 14.9501C17.5064 15.0241 17.5614 14.9321 17.6194 14.8591C18.2065 14.1558 19.0103 13.667 19.9049 13.4692C20.7995 13.2715 21.7345 13.3759 22.5634 13.7662C22.9831 13.9277 23.3605 14.1827 23.6668 14.512C23.9732 14.8412 24.2005 15.2359 24.3314 15.6661C24.5639 16.2782 24.6926 16.9247 24.7124 17.5792C24.7394 19.8092 24.7274 22.0401 24.7284 24.2701C24.7284 24.4361 24.7554 24.6162 24.5804 24.7272L21.3864 24.7062Z" fill="#0E2253"/>
<path d="M8.56539 24.7112C8.47018 24.4871 8.43568 24.2419 8.46538 24.0002C8.46538 20.8212 8.48437 17.6412 8.45037 14.4622C8.44337 13.8002 8.65038 13.6192 9.28038 13.6622C9.98348 13.7001 10.688 13.7024 11.3914 13.6692C11.7434 13.6592 11.9214 13.7352 11.9204 14.1442C11.9074 17.5442 11.9134 20.9442 11.9124 24.3382C11.9243 24.4101 11.9167 24.484 11.8906 24.552C11.8644 24.62 11.8205 24.6798 11.7634 24.7252L8.56539 24.7112Z" fill="#0E2253"/>
<path d="M8.24416 10.1748C8.24561 9.91503 8.29917 9.65814 8.40163 9.4194C8.50409 9.18065 8.65338 8.96491 8.84069 8.78487C9.02799 8.60484 9.2495 8.46417 9.49211 8.37124C9.73473 8.27831 9.99351 8.23497 10.2532 8.2438C10.7656 8.25273 11.2548 8.45975 11.6179 8.82143C11.9811 9.18312 12.1901 9.67137 12.2012 10.1838C12.169 10.755 11.9224 11.2931 11.5105 11.6902C11.0987 12.0874 10.5522 12.3144 9.98015 12.3258C9.23015 12.3478 8.23916 11.1198 8.24416 10.1748Z" fill="#0E2253"/>
</svg>
