<svg width="19" height="24" viewBox="0 0 19 24" fill="none" xmlns="http://www.w3.org/2000/svg">
<path d="M0.00288641 8.9834C0.00888748 6.68956 0.889849 4.48442 2.46605 2.81788C4.04225 1.15134 6.19493 0.149022 8.48488 0.015324C10.7748 -0.118374 13.0295 0.626663 14.789 2.09845C16.5484 3.57024 17.68 5.65787 17.9529 7.93543C18.1137 9.07293 18.0437 10.2311 17.7472 11.341C17.4506 12.4509 16.9336 13.4897 16.2269 14.3954C14.0099 17.2364 11.7369 20.0344 9.4829 22.8464C9.1339 23.2814 8.8699 23.2874 8.5219 22.8544C6.2349 20.0024 3.93688 17.1544 1.67888 14.2824C0.543412 12.7532 -0.0466825 10.8875 0.00288641 8.9834ZM8.99288 20.4964C9.14688 20.3114 9.25889 20.1804 9.36589 20.0464C11.0872 17.8957 12.8082 15.7448 14.5289 13.5934C15.328 12.62 15.8569 11.4534 16.0624 10.2109C16.268 8.96844 16.143 7.69373 15.6999 6.51484C15.2569 5.33594 14.5115 4.29437 13.5385 3.49476C12.5655 2.69514 11.3993 2.16564 10.1569 1.95942C8.82013 1.74043 7.44868 1.90549 6.20207 2.43543C4.95547 2.96537 3.88497 3.83842 3.1151 4.95295C2.34523 6.06747 1.90764 7.37767 1.85326 8.73114C1.79887 10.0846 2.12991 11.4257 2.80788 12.5984C3.39347 13.5186 4.04802 14.3932 4.76589 15.2144C6.15289 16.9664 7.55688 18.7034 8.99288 20.4964Z" fill="#0E2253"/>
<path d="M9.02519 12.1891C8.39766 12.1956 7.78229 12.0158 7.25697 11.6725C6.73165 11.3291 6.31998 10.8377 6.07404 10.2603C5.8281 9.68298 5.75896 9.0456 5.87534 8.42892C5.99173 7.81224 6.28842 7.24399 6.72788 6.79599C7.16735 6.34798 7.72983 6.04037 8.34415 5.91214C8.95848 5.7839 9.59703 5.8408 10.179 6.07559C10.761 6.31037 11.2603 6.71249 11.6136 7.2311C11.967 7.74972 12.1586 8.3615 12.1642 8.98904C12.17 9.40575 12.0932 9.8195 11.9383 10.2064C11.7833 10.5933 11.5533 10.9456 11.2615 11.2431C10.9696 11.5406 10.6218 11.7774 10.238 11.9398C9.85412 12.1021 9.44193 12.1868 9.02519 12.1891Z" fill="#0E2253"/>
</svg>
