<svg width="197" height="78" viewBox="0 0 197 78" fill="none" xmlns="http://www.w3.org/2000/svg">
<path fill-rule="evenodd" clip-rule="evenodd" d="M0 39.4105C0.0913952 39.1382 0.197894 38.8711 0.319 38.6105C0.464585 38.319 0.674415 38.0644 0.932678 37.8657C1.19094 37.667 1.4909 37.5295 1.81 37.4635C1.94458 37.4378 2.08324 37.4426 2.21568 37.4778C2.34812 37.513 2.47094 37.5776 2.575 37.6667C2.67905 37.7559 2.76167 37.8674 2.81673 37.9928C2.87178 38.1183 2.89786 38.2546 2.89301 38.3915C2.88773 38.449 2.90143 38.5066 2.93201 38.5555C2.95609 38.5233 2.97499 38.4876 2.98801 38.4495C3.03118 38.1921 2.98068 37.9276 2.84566 37.7042C2.71063 37.4807 2.50002 37.3131 2.252 37.2315C1.97 37.1315 1.96801 37.1015 2.16501 36.8695C2.37421 36.6034 2.66634 36.4147 2.99501 36.3335C3.15801 36.3005 3.35101 36.4105 3.52901 36.4515C3.81258 36.5408 4.10333 36.6053 4.39801 36.6445C4.95801 36.6745 5.521 36.6725 6.08 36.6445C6.5351 36.6002 6.9583 36.3911 7.27 36.0565C7.308 36.0185 7.29601 35.9285 7.30701 35.8625C7.23601 35.8565 7.14001 35.8185 7.09801 35.8515C6.65365 36.1772 6.12156 36.3615 5.571 36.3805C5.31736 36.3886 5.06378 36.3627 4.817 36.3035C4.276 36.1915 3.745 36.0275 3.202 35.9395C3.04224 35.9289 2.88855 35.8743 2.75795 35.7817C2.62735 35.689 2.52495 35.5621 2.4621 35.4148C2.39924 35.2676 2.37838 35.1058 2.40184 34.9474C2.4253 34.789 2.49216 34.6402 2.595 34.5175C2.8522 34.2129 3.13307 33.929 3.435 33.6685C3.547 33.5615 3.595 33.6595 3.644 33.7525C3.80658 34.0978 4.06126 34.3916 4.38 34.6015C4.50879 34.6845 4.65491 34.7368 4.8071 34.7543C4.95928 34.7718 5.11346 34.7541 5.25774 34.7026C5.40201 34.6511 5.53251 34.5672 5.63919 34.4572C5.74587 34.3473 5.82587 34.2143 5.873 34.0685C5.916 33.8825 6.006 33.9185 6.125 33.9915C6.488 34.2195 6.84601 34.4615 7.22501 34.6645C7.95127 35.0415 8.78862 35.1454 9.58501 34.9575C11.0401 34.6073 12.4073 33.9604 13.601 33.0575C15.1548 31.9426 16.6429 30.7389 18.058 29.4525C18.1784 29.3579 18.2926 29.2557 18.4 29.1465C18.439 29.1025 18.426 29.0085 18.436 28.9395C18.372 28.9465 18.289 28.9275 18.244 28.9585C17.702 29.3552 17.164 29.7575 16.63 30.1655C16.451 30.3015 16.37 30.2945 16.35 30.0655C16.2995 29.6268 16.2804 29.185 16.293 28.7435C16.3297 28.5078 16.4243 28.2849 16.5682 28.0947C16.7122 27.9044 16.9011 27.7529 17.118 27.6535C17.368 27.4935 17.638 27.3635 17.899 27.2145C17.9557 27.1785 18.0105 27.1395 18.063 27.0975C17.3462 26.8762 16.5818 26.8596 15.856 27.0495C15.1515 27.2437 14.5038 27.6037 13.967 28.0995C13.8901 27.7664 13.8986 27.4193 13.9916 27.0903C14.0846 26.7613 14.2591 26.4611 14.499 26.2175C15.0667 25.8304 15.7595 25.6719 16.439 25.7735C16.439 25.7515 16.439 25.7265 16.439 25.7045C16.23 25.6515 16.018 25.5955 15.809 25.5455C15.1887 25.3855 14.5495 25.3101 13.909 25.3215C13.8331 25.3128 13.7592 25.2919 13.69 25.2595C13.729 25.1975 13.754 25.1135 13.811 25.0735C14.149 24.8505 14.493 24.6355 14.835 24.4175C14.858 24.4015 14.894 24.3985 14.912 24.3785C14.958 24.3265 14.998 24.2675 15.041 24.2105C14.9666 24.1859 14.8884 24.1744 14.81 24.1765C14.556 24.2335 14.31 24.3145 14.052 24.3765C13.8027 24.448 13.5416 24.469 13.2841 24.4384C13.0266 24.4079 12.7777 24.3263 12.552 24.1985C12.724 24.0425 12.852 23.9215 12.985 23.7985C13.256 23.5545 13.531 23.3125 13.796 23.0655C13.839 23.0265 13.85 22.9535 13.875 22.8975C13.811 22.8895 13.724 22.8505 13.681 22.8785C13.1123 23.1692 12.5106 23.3901 11.889 23.5365C11.4779 23.6296 11.0985 23.8293 10.789 24.1155C10.7673 24.1309 10.7427 24.1415 10.7168 24.1469C10.6908 24.1522 10.6639 24.1521 10.638 24.1465C10.618 24.1465 10.599 24.0655 10.6 24.0235C10.622 23.6308 10.735 23.2486 10.93 22.9071C11.1251 22.5655 11.3969 22.274 11.724 22.0555C11.9094 21.9416 12.1065 21.848 12.312 21.7765C12.3599 21.7422 12.403 21.7015 12.44 21.6555C12.384 21.6325 12.327 21.5815 12.276 21.5875C12.068 21.6165 11.866 21.6805 11.657 21.6975C11.324 21.7535 10.982 21.7128 10.6714 21.5802C10.3609 21.4476 10.0949 21.2287 9.905 20.9495C9.75661 20.7062 9.68065 20.4255 9.686 20.1405C9.686 20.1025 9.71601 20.0635 9.73201 20.0265C9.93901 20.1535 10.126 20.2875 10.332 20.3865C10.5016 20.4825 10.6967 20.5234 10.8905 20.5037C11.0843 20.484 11.2672 20.4046 11.414 20.2765C11.5528 20.126 11.6462 19.9393 11.6836 19.738C11.7209 19.5366 11.7006 19.3288 11.625 19.1385C11.3225 18.474 10.9217 17.8587 10.436 17.3135C10.347 17.1995 10.263 17.0855 10.152 16.9365L9.994 17.6795C9.96945 17.8547 9.89982 18.0204 9.79196 18.1605C9.6841 18.3007 9.5417 18.4104 9.37869 18.4789C9.21569 18.5475 9.03767 18.5725 8.86208 18.5516C8.68648 18.5307 8.51933 18.4645 8.377 18.3595C8.5547 18.1871 8.68134 17.969 8.74292 17.7292C8.8045 17.4894 8.79865 17.2372 8.726 17.0005C8.69697 16.9094 8.6449 16.8272 8.57483 16.762C8.50476 16.6969 8.41905 16.6509 8.326 16.6285C8.344 16.6745 8.34501 16.7025 8.35901 16.7185C8.46119 16.8266 8.5359 16.9577 8.57689 17.1007C8.61787 17.2437 8.62391 17.3944 8.59451 17.5403C8.56511 17.6861 8.50113 17.8227 8.40794 17.9387C8.31475 18.0546 8.19509 18.1465 8.05901 18.2065C7.78398 18.3256 7.48338 18.3734 7.185 18.3455C6.78251 18.3289 6.39073 18.211 6.04601 18.0025C5.98166 17.9543 5.92115 17.9011 5.86501 17.8435C5.949 17.8196 6.03504 17.8035 6.12201 17.7955C6.26894 17.7997 6.41428 17.7642 6.54274 17.6927C6.6712 17.6213 6.77803 17.5166 6.85201 17.3895C6.93101 17.2755 7.003 17.1575 7.071 17.0375C7.092 16.9975 7.114 16.9265 7.095 16.8985C7.01426 16.7466 6.96512 16.5798 6.95053 16.4084C6.93595 16.2369 6.95622 16.0643 7.01013 15.9009C7.06404 15.7374 7.15049 15.5866 7.26424 15.4575C7.37799 15.3284 7.51668 15.2236 7.672 15.1495C7.972 15.0085 8.283 14.8825 8.591 14.7615C8.704 14.7175 8.711 14.6615 8.634 14.5885C8.26336 14.1898 7.78041 13.9129 7.24901 13.7945C6.68901 13.6785 6.112 13.6335 5.549 13.5465C5.0591 13.5242 4.58511 13.3659 4.18001 13.0895C4.02584 12.9556 3.90103 12.7912 3.81343 12.6068C3.72584 12.4223 3.67735 12.2217 3.67101 12.0175C3.65201 11.8375 3.53201 11.6385 3.72301 11.4705C3.69698 11.413 3.65956 11.3613 3.61301 11.3185C3.27001 11.0585 2.924 10.8025 2.576 10.5485C2.482 10.4805 2.457 10.4065 2.576 10.3485C3.12617 10.0279 3.75814 9.87529 4.394 9.90954C4.52582 9.91749 4.65393 9.9563 4.76801 10.0228C4.88208 10.0894 4.97891 10.1818 5.05072 10.2926C5.12253 10.4034 5.16731 10.5296 5.18143 10.6609C5.19554 10.7922 5.17861 10.925 5.132 11.0485C5.11393 11.0972 5.11393 11.1508 5.132 11.1995C5.16566 11.1661 5.19613 11.1296 5.22301 11.0905C5.29723 10.9336 5.33092 10.7605 5.32103 10.5872C5.31114 10.4138 5.25797 10.2457 5.16637 10.0982C5.07476 9.95073 4.94765 9.82854 4.79666 9.74282C4.64567 9.6571 4.4756 9.61059 4.302 9.60754C4.22705 9.5985 4.15329 9.5814 4.082 9.55654C4.10461 9.4791 4.13829 9.40534 4.18201 9.33754C4.32149 9.19149 4.49486 9.08212 4.68675 9.01915C4.87864 8.95618 5.0831 8.94154 5.282 8.97654C5.67268 9.03563 6.03351 9.22027 6.31 9.50254C7.21695 10.25 8.21081 10.8853 9.27 11.3945C9.828 11.6775 10.403 11.9265 10.97 12.1835C11.022 12.2065 11.098 12.1765 11.162 12.1705C11.132 12.1208 11.095 12.0756 11.052 12.0365C10.259 11.5205 9.46101 11.0115 8.66901 10.4915C7.84881 9.89757 6.96298 9.39997 6.02901 9.00854C5.98081 8.99232 5.93794 8.96328 5.905 8.92454C5.64457 8.62271 5.40755 8.30144 5.196 7.96354C5.02732 7.69614 4.96103 7.37676 5.00937 7.06432C5.0577 6.75188 5.2174 6.46746 5.459 6.26354C5.64071 6.09497 5.83311 5.93831 6.035 5.79454C6.09511 5.76393 6.159 5.7414 6.22501 5.72754C6.19766 5.90139 6.20873 6.07911 6.25743 6.24822C6.30613 6.41733 6.39128 6.57372 6.5069 6.7064C6.62251 6.83908 6.76579 6.94482 6.92665 7.0162C7.08751 7.08757 7.26205 7.12285 7.438 7.11954C8.005 7.11954 8.319 6.76554 8.506 5.90754C8.58293 5.93548 8.65615 5.97276 8.724 6.01854C9.28384 6.53361 9.74239 7.14886 10.076 7.83254C10.27 8.22054 10.376 8.65154 10.559 9.04554C10.798 9.56154 11.073 10.0565 11.331 10.5605C11.392 10.6775 11.447 10.7975 11.512 10.9105C11.559 10.9847 11.6101 11.0561 11.665 11.1245L11.743 11.0845C11.685 10.9315 11.637 10.7735 11.566 10.6245C11.135 9.69654 10.694 8.77054 10.266 7.83954C10.1906 7.69694 10.1495 7.53869 10.146 7.37741C10.1425 7.21612 10.1768 7.05626 10.246 6.91054C10.3323 6.77955 10.4555 6.67706 10.6 6.61601C10.7446 6.55497 10.9039 6.5381 11.058 6.56754C11.4012 6.57625 11.7345 6.6839 12.018 6.87754C12.038 6.89754 12.104 6.89154 12.137 6.87754C12.418 6.73854 12.702 6.60654 12.97 6.44554C13.082 6.37854 13.153 6.24554 13.25 6.15254C13.2876 6.11265 13.3377 6.08688 13.392 6.07954C13.416 6.07954 13.462 6.14654 13.468 6.18954C13.5508 6.50492 13.5456 6.83696 13.4529 7.14957C13.3601 7.46217 13.1834 7.74336 12.942 7.96254C12.8709 8.04394 12.7829 8.10881 12.6841 8.1526C12.5853 8.19639 12.4782 8.21805 12.3701 8.21605C12.2621 8.21404 12.1558 8.18844 12.0587 8.14102C11.9616 8.0936 11.876 8.02551 11.808 7.94154C11.796 7.92554 11.772 7.92154 11.752 7.90954C11.7538 8.00093 11.7843 8.08943 11.8392 8.16249C11.8942 8.23555 11.9707 8.28945 12.058 8.31654C12.2632 8.38013 12.4806 8.3935 12.692 8.35554C12.86 8.31754 12.931 8.34754 12.969 8.48454C13.0852 8.85902 13.176 9.24088 13.241 9.62754C13.2988 10.055 13.3155 10.4869 13.291 10.9175C13.2663 11.5321 13.3762 12.1446 13.6131 12.7122C13.8499 13.2798 14.2079 13.7888 14.662 14.2035C16.086 15.6885 17.528 17.1595 18.962 18.6355C20.0333 19.7335 21.1053 20.8302 22.178 21.9255C22.218 21.9635 22.261 21.9955 22.317 22.0445C22.3241 21.7894 22.3438 21.5347 22.376 21.2815C22.4504 20.8069 22.6595 20.3635 22.9787 20.0044C23.2978 19.6452 23.7134 19.3852 24.176 19.2555C24.3031 19.22 24.4361 19.2104 24.567 19.2275C25.0124 19.2587 25.4588 19.1804 25.867 18.9995C26.0157 18.9615 26.1727 18.972 26.315 19.0295C26.5881 19.077 26.8691 19.0334 27.115 18.9055C27.203 18.8785 27.288 18.8475 27.379 18.8165C27.438 19.0325 27.472 19.2235 27.54 19.4045C27.6534 19.646 27.8212 19.8579 28.0303 20.0236C28.2394 20.1893 28.484 20.3043 28.745 20.3595C28.7863 20.3606 28.8272 20.3522 28.8647 20.3348C28.9022 20.3175 28.9351 20.2917 28.961 20.2595C28.9736 20.2249 28.9786 20.1879 28.9757 20.1512C28.9728 20.1144 28.9619 20.0787 28.944 20.0465C28.874 19.9125 28.766 19.7965 28.7 19.6625C28.6154 19.4711 28.5818 19.261 28.6023 19.0527C28.6228 18.8443 28.6967 18.6449 28.817 18.4735C28.825 18.4605 28.831 18.4475 28.839 18.4355L29.039 18.1945C29.0762 18.2884 29.1224 18.3785 29.177 18.4635C29.353 18.6845 29.53 18.9035 29.725 19.1075C29.8263 19.2056 29.952 19.2746 30.089 19.3075C29.999 19.1075 29.919 18.8985 29.82 18.7015C29.7646 18.5894 29.7485 18.4619 29.7742 18.3395C29.8 18.2171 29.8661 18.1069 29.962 18.0265C30.1456 17.8565 30.2667 17.6297 30.306 17.3825C30.315 17.2895 30.306 17.1945 30.306 17.0995L30.385 17.0765C30.567 17.2985 30.751 17.5185 30.929 17.7435C31.1404 17.9711 31.403 18.145 31.6949 18.2509C31.9869 18.3568 32.2999 18.3916 32.608 18.3525C32.5498 18.2843 32.4869 18.2202 32.42 18.1605C32.1737 18.0126 31.9821 17.7887 31.874 17.5225C31.8334 17.3927 31.8086 17.2584 31.8 17.1225C31.7735 16.8764 31.7692 16.6284 31.787 16.3815C31.8264 16.1827 31.8868 15.9887 31.967 15.8025C32.0538 15.5417 32.0649 15.2616 31.9991 14.9948C31.9332 14.7279 31.7931 14.4851 31.595 14.2945C31.5429 14.2328 31.4973 14.1657 31.459 14.0945C31.5346 14.0656 31.6126 14.0432 31.692 14.0275C31.8613 14.0026 32.0232 13.9417 32.167 13.849C32.3108 13.7563 32.4331 13.6339 32.5258 13.49C32.6184 13.3462 32.6792 13.1842 32.7041 13.0149C32.7289 12.8456 32.7173 12.673 32.67 12.5085C32.618 12.5765 32.57 12.6445 32.492 12.7385C32.756 12.8485 32.692 13.0055 32.634 13.1385C32.5456 13.3632 32.3932 13.5569 32.1957 13.6958C31.9982 13.8346 31.7643 13.9124 31.523 13.9195C31.3468 13.8881 31.1775 13.8258 31.023 13.7355C30.7002 13.5638 30.3386 13.478 29.973 13.4865C29.9389 13.4882 29.9052 13.495 29.873 13.5065C29.862 13.5065 29.855 13.5295 29.83 13.5645C29.8869 13.5904 29.9462 13.6109 30.007 13.6255C30.6643 13.7205 31.2593 14.0663 31.667 14.5905C31.7872 14.7554 31.86 14.9499 31.8776 15.1531C31.8953 15.3563 31.857 15.5605 31.767 15.7435C31.707 15.6545 31.649 15.5775 31.598 15.4965C31.464 15.2701 31.2771 15.0796 31.0533 14.9413C30.8295 14.803 30.5754 14.7211 30.313 14.7025C30.2771 14.6948 30.2399 14.6948 30.204 14.7025C30.1452 14.7287 30.0881 14.7584 30.033 14.7915C30.0833 14.8328 30.1376 14.869 30.195 14.8995C30.4053 14.9499 30.61 15.0212 30.806 15.1125C31.053 15.2828 31.2556 15.5097 31.3969 15.7743C31.5381 16.039 31.614 16.3336 31.618 16.6335C31.6256 16.7503 31.6216 16.8676 31.606 16.9835C31.5597 17.3053 31.6416 17.6325 31.834 17.8945C31.8556 17.9252 31.8724 17.9589 31.884 17.9945C31.884 18.0055 31.884 18.0225 31.875 18.0665C31.6609 18.0468 31.4628 17.945 31.322 17.7825C30.943 17.3395 30.581 16.8825 30.213 16.4295C30.1652 16.3562 30.111 16.2873 30.051 16.2235C29.9912 16.1873 29.9256 16.1616 29.857 16.1475C29.84 16.2235 29.794 16.3085 29.811 16.3765C29.874 16.6065 29.972 16.8265 30.033 17.0565C30.0664 17.1805 30.067 17.3111 30.0347 17.4354C30.0025 17.5597 29.9385 17.6734 29.849 17.7655C29.705 17.9335 29.592 18.1275 29.423 18.3715C29.4013 18.2652 29.386 18.1577 29.377 18.0495C29.377 17.9265 29.41 17.8025 29.406 17.6795C29.4058 17.6455 29.3982 17.6119 29.3839 17.581C29.3696 17.5502 29.3488 17.5227 29.323 17.5005C29.2889 17.4912 29.2531 17.4899 29.2184 17.4967C29.1838 17.5034 29.1511 17.5181 29.123 17.5395C28.83 17.808 28.6091 18.1457 28.4805 18.5217C28.3519 18.8976 28.3198 19.2999 28.387 19.6915C28.3948 19.7375 28.3948 19.7845 28.387 19.8305C28.3326 19.826 28.2793 19.8129 28.229 19.7915C27.9828 19.6275 27.8109 19.3734 27.7503 19.0838C27.6897 18.7943 27.7452 18.4925 27.905 18.2435C27.9543 18.1717 27.994 18.0937 28.023 18.0115C28.0271 17.9758 28.0237 17.9396 28.0132 17.9052C28.0027 17.8708 27.9853 17.8389 27.962 17.8115C27.941 17.7875 27.819 17.8115 27.782 17.8555C27.628 18.0285 27.496 18.2245 27.339 18.3925C27.2339 18.4878 27.1209 18.5738 27.001 18.6495L26.943 18.6135C26.951 18.5545 26.953 18.4955 26.965 18.4405C26.974 18.4135 27.011 18.3975 27.017 18.3705C27.06 18.2085 27.194 18.0235 27.026 17.8845C26.842 17.7325 26.726 17.9425 26.606 18.0365C26.339 18.2365 26.082 18.4545 25.815 18.6595C25.7268 18.7176 25.6342 18.7688 25.538 18.8125L25.938 17.5125C25.9144 17.5043 25.8914 17.4946 25.869 17.4835C25.761 17.6265 25.651 17.7635 25.548 17.9075C25.2621 18.3274 24.8342 18.6299 24.343 18.7595C24.2758 18.7641 24.2083 18.7581 24.143 18.7415C24.1504 18.6796 24.1683 18.6194 24.196 18.5635C24.453 18.2295 24.712 17.8945 24.982 17.5635C25.1228 17.3942 25.2046 17.1836 25.215 16.9635C25.234 16.6635 25.294 16.6245 25.587 16.6795C26.3365 16.8077 27.1052 16.7671 27.837 16.5605C28.0199 16.5323 28.1847 16.4341 28.2966 16.2868C28.4085 16.1394 28.4589 15.9543 28.437 15.7705C28.381 15.2635 28.315 14.7595 28.245 14.2555C28.216 14.0395 28.162 13.8275 28.123 13.6115C28.0807 13.4034 27.9806 13.2113 27.8342 13.0574C27.6877 12.9035 27.5008 12.7941 27.295 12.7415C26.5772 12.5162 25.7998 12.5797 25.128 12.9185C24.707 13.0905 24.274 13.2375 23.836 13.3685C23.6653 13.4091 23.4883 13.4159 23.315 13.3885C22.984 13.3505 22.815 13.0995 22.833 12.6755C22.8172 12.5255 22.8477 12.3743 22.9205 12.2421C22.9933 12.11 23.1048 12.0034 23.24 11.9365C23.31 11.9055 23.397 11.8365 23.411 11.7755C23.4484 11.6644 23.4434 11.5433 23.397 11.4355C23.355 11.3765 23.173 11.3665 23.085 11.4065C22.9604 11.4767 22.8518 11.5721 22.766 11.6865C22.684 11.7865 22.645 11.9285 22.466 11.8105C22.242 11.6605 22.159 11.5245 22.3 11.3785C22.5218 11.1385 22.7727 10.9272 23.047 10.7495C23.4064 10.544 23.7781 10.3607 24.16 10.2005C25.0148 9.79738 25.7627 9.19855 26.343 8.45254C26.4511 8.29677 26.5985 8.17248 26.7704 8.09237C26.9422 8.01225 27.1322 7.97919 27.321 7.99654C27.968 8.04354 28.621 8.03454 29.268 8.03554C29.499 8.03554 29.73 7.97554 29.96 7.97554C30.529 7.97554 31.095 7.99454 31.66 7.99654C31.988 7.99654 32.315 7.97254 32.644 7.97454C33.506 7.98054 34.366 7.99154 35.228 8.00654C35.284 8.00654 35.339 8.05454 35.391 8.07854C35.3646 8.13404 35.331 8.18582 35.291 8.23254C35.127 8.38654 34.944 8.52354 34.791 8.68954C34.465 9.03954 34.454 9.04954 34.004 8.91854C34.076 9.01854 34.131 9.17754 34.227 9.21054C34.2904 9.22534 34.3564 9.22584 34.42 9.21201C34.4837 9.19817 34.5434 9.17034 34.595 9.13054C34.979 8.80354 35.327 8.43854 35.713 8.11654C36.1323 7.76716 36.6679 7.58863 37.213 7.61654C37.3517 7.62279 37.4877 7.6568 37.613 7.71654C37.7011 7.75295 37.7759 7.81554 37.8272 7.89585C37.8785 7.97616 37.904 8.07031 37.9 8.16554C37.909 8.49354 37.947 8.81854 37.972 9.14454C37.9743 9.16082 37.9813 9.17609 37.992 9.18854C38.4043 9.14206 38.8217 9.18833 39.2138 9.32398C39.6058 9.45963 39.9626 9.68122 40.258 9.97254C40.6734 10.436 41.1945 10.7925 41.777 11.0115C41.9373 11.074 42.1098 11.0986 42.2812 11.0835C42.4525 11.0684 42.6181 11.014 42.765 10.9245C42.8221 10.9032 42.8821 10.8908 42.943 10.8875C42.9516 10.9481 42.9536 11.0095 42.949 11.0705C42.9122 11.3135 42.8054 11.5405 42.6416 11.7238C42.4779 11.9071 42.2643 12.0387 42.027 12.1025C41.8976 12.152 41.757 12.1642 41.621 12.1377C41.4851 12.1111 41.3593 12.047 41.258 11.9525C40.9853 11.7534 40.6753 11.6112 40.3465 11.5344C40.0176 11.4576 39.6767 11.4478 39.344 11.5055C40.1341 11.685 40.854 12.093 41.414 12.6785C41.691 12.9713 41.9058 13.3172 42.0453 13.6954C42.1849 14.0735 42.2464 14.476 42.226 14.8785C42.1634 14.8387 42.1057 14.7917 42.054 14.7385C41.4721 14.0394 40.7042 13.5194 39.839 13.2385C39.7346 13.2052 39.6264 13.1853 39.517 13.1795C39.4568 13.1848 39.3979 13.2004 39.343 13.2255C39.377 13.2835 39.393 13.3665 39.443 13.3965C39.764 13.5965 40.101 13.7735 40.416 13.9825C41.333 14.5571 42.0278 15.4258 42.387 16.4465C42.4839 16.7969 42.5508 17.1549 42.587 17.5165C42.5861 17.5822 42.5644 17.6459 42.525 17.6985C42.2299 17.28 41.8563 16.9227 41.425 16.6465C40.99 16.3942 40.5173 16.2133 40.025 16.1105C40.017 16.1295 40.008 16.1465 39.999 16.1635C40.138 16.2455 40.277 16.3295 40.418 16.4065C41.3096 16.882 41.991 17.674 42.328 18.6265C42.611 19.4045 42.928 20.1705 43.236 20.9405C43.4775 21.5099 43.8884 21.991 44.413 22.3185C44.4701 22.374 44.5187 22.4377 44.557 22.5075C44.4917 22.5462 44.4223 22.5774 44.35 22.6005C44.1104 22.6604 43.8667 22.7028 43.621 22.7275C43.1928 22.7526 42.7648 22.675 42.3727 22.501C41.9806 22.3271 41.6358 22.0619 41.367 21.7275C41.0467 21.3597 40.7491 20.9726 40.476 20.5685C39.98 19.8354 39.2221 19.3201 38.358 19.1285C38.079 19.0575 37.804 18.9745 37.528 18.8955C37.517 18.9155 37.507 18.9355 37.497 18.9545C37.5591 18.9984 37.6235 19.0388 37.69 19.0755C38.5811 19.4878 39.3725 20.0879 40.01 20.8345C40.9235 21.9171 41.3803 23.3124 41.284 24.7255C41.2305 25.4656 41.0868 26.1963 40.856 26.9015C40.8256 26.987 40.7892 27.0702 40.747 27.1505H40.683C40.634 26.9225 40.583 26.6935 40.536 26.4665C40.2992 25.2413 39.6827 24.1218 38.774 23.2665C38.166 22.7314 37.4595 22.32 36.694 22.0555C36.594 22.0195 36.506 21.9835 36.411 21.9495C36.402 21.9495 36.385 21.9595 36.343 21.9785L37.072 22.5785C38.2155 23.4683 39.0422 24.7025 39.43 26.0985C39.678 27.0105 39.949 27.9165 40.189 28.8295C40.2873 29.3141 40.4614 29.7802 40.705 30.2105C41.0493 30.7469 41.5101 31.1987 42.053 31.5325C42.1207 31.5889 42.1809 31.6538 42.232 31.7255C42.1534 31.7665 42.0702 31.7978 41.984 31.8185C41.4036 31.8858 40.8158 31.8454 40.25 31.6995C39.7521 31.5937 39.288 31.367 38.8986 31.0392C38.5091 30.7115 38.2063 30.293 38.017 29.8205C37.9334 29.6183 37.8958 29.4001 37.907 29.1815C37.9363 28.7281 37.8748 28.2733 37.7259 27.844C37.577 27.4147 37.3438 27.0195 37.04 26.6815C36.876 26.4755 36.733 26.2525 36.58 26.0385L36.527 26.0695C36.688 26.4255 36.849 26.7785 37.008 27.1345C37.2503 27.5927 37.3815 28.1014 37.391 28.6195C37.3615 29.0095 37.2805 29.3939 37.15 29.7625C36.804 30.6447 36.6083 31.5787 36.571 32.5255C36.5693 32.9777 36.6641 33.4249 36.849 33.8375C36.8732 33.8954 36.8792 33.9592 36.866 34.0205C35.8572 33.606 34.998 32.895 34.402 31.9815C33.8197 31.0607 33.5213 29.9888 33.544 28.8995C33.522 28.8995 33.497 28.8995 33.473 28.8995C33.4 29.1595 33.329 29.4225 33.25 29.6825C33.0626 30.3636 32.7236 30.9935 32.2585 31.5251C31.7934 32.0567 31.2141 32.4763 30.564 32.7525C30.4559 32.7893 30.3443 32.8148 30.231 32.8285C30.2491 32.7205 30.2749 32.6139 30.308 32.5095C30.7505 31.3456 30.9109 30.0934 30.776 28.8555C30.7668 28.7461 30.7631 28.6363 30.765 28.5265V28.1995L30.699 28.1875C30.6656 28.3028 30.6396 28.42 30.621 28.5385C30.5264 29.4884 30.3145 30.4228 29.99 31.3205C29.6315 32.4923 28.8392 33.4831 27.775 34.0905C27.4887 34.2337 27.1946 34.3605 26.894 34.4705C26.863 34.4835 26.816 34.4585 26.734 34.4425C26.861 34.2605 26.971 34.1025 27.081 33.9485C27.5658 33.2536 27.7589 32.3963 27.619 31.5605C27.555 31.0045 27.486 30.4465 27.477 29.8865C27.4863 29.3764 27.6372 28.8788 27.913 28.4495C28.1934 27.9236 28.4451 27.3828 28.667 26.8295C28.677 26.8095 28.673 26.7805 28.633 26.7365C28.433 27.0265 28.216 27.3085 28.033 27.6075C27.8818 27.8574 27.7453 28.1159 27.624 28.3815C27.3194 28.9574 26.8824 29.4526 26.349 29.8265C25.8279 30.2532 25.2181 30.558 24.564 30.7185C24.0141 30.8181 23.4593 30.8885 22.902 30.9295C22.856 30.9295 22.802 30.8875 22.758 30.8655C22.7861 30.8102 22.8221 30.7594 22.865 30.7145C23.7869 30.0489 24.5372 29.1734 25.054 28.1605C25.3694 27.6176 25.5772 27.0191 25.666 26.3975C25.747 26.0197 25.9241 25.6691 26.18 25.3795C26.5274 24.7918 26.9533 24.2542 27.446 23.7815C27.5172 23.7307 27.5949 23.6897 27.677 23.6595C27.729 23.7423 27.7684 23.8323 27.794 23.9265C27.835 24.2885 27.851 24.6515 27.894 25.0145C27.9546 25.4935 28.1719 25.9389 28.512 26.2815C28.8837 26.6992 29.3544 27.0168 29.8809 27.205C30.4074 27.3932 30.9728 27.446 31.525 27.3585C31.8243 27.3096 32.1183 27.2323 32.403 27.1275C32.487 27.0985 32.537 26.9715 32.603 26.8935C32.5246 26.816 32.4365 26.7487 32.341 26.6935C31.963 26.5245 31.574 26.3775 31.198 26.2105C31.0524 26.1399 30.9272 26.0333 30.8341 25.9008C30.741 25.7684 30.6832 25.6145 30.666 25.4535C30.558 24.9765 30.5373 24.4839 30.605 23.9995C30.6122 23.832 30.5995 23.6641 30.567 23.4995C30.559 23.4265 30.559 23.3525 30.553 23.2285C30.7472 23.3759 30.8751 23.5941 30.909 23.8355C31.037 24.2875 31.128 24.7505 31.235 25.2095C31.2477 25.2813 31.2685 25.3514 31.297 25.4185C31.3142 25.4614 31.3418 25.4993 31.3773 25.5288C31.4129 25.5583 31.4552 25.5785 31.5005 25.5874C31.5459 25.5964 31.5927 25.5938 31.6368 25.5801C31.6809 25.5663 31.7208 25.5417 31.753 25.5085C31.9095 25.3686 32.0405 25.2024 32.14 25.0175C32.5457 24.2584 32.8254 23.4384 32.968 22.5895C33.0412 22.1264 33.0146 21.6529 32.8899 21.2009C32.7652 20.7488 32.5453 20.3287 32.245 19.9685C32.179 19.8895 32.119 19.8015 32.034 19.6875C32.115 19.6875 32.157 19.6735 32.18 19.6875C32.4381 19.8668 32.6571 20.0966 32.8237 20.363C32.9902 20.6295 33.1009 20.927 33.149 21.2375C33.21 21.5665 33.217 21.9045 33.249 22.2375C33.2573 22.324 33.2778 22.4088 33.31 22.4895C33.388 22.6565 33.561 22.7205 33.683 22.5895C33.8602 22.4204 34.0038 22.2192 34.106 21.9965C34.347 21.4163 34.4619 20.7915 34.443 20.1635C34.4242 19.5944 34.3061 19.033 34.094 18.5045C34.0765 18.4392 34.0664 18.3721 34.064 18.3045C34.1357 18.3124 34.206 18.3299 34.273 18.3565C34.6863 18.6159 35.174 18.7305 35.6595 18.6823C36.145 18.6342 36.6007 18.426 36.955 18.0905C37.064 17.9815 37.233 17.8545 37.112 17.6905C36.991 17.5265 36.824 17.6225 36.675 17.6905C36.4662 17.7996 36.2253 17.8307 35.9956 17.7781C35.7659 17.7255 35.5625 17.5927 35.422 17.4035C35.0728 17.0148 34.8741 16.514 34.862 15.9915C34.8758 15.6729 34.8058 15.3563 34.659 15.0732C34.5121 14.7902 34.2935 14.5506 34.025 14.3785C34.137 14.3785 34.207 14.3495 34.253 14.3725C34.4486 14.4612 34.6197 14.5962 34.7513 14.7659C34.8828 14.9357 34.971 15.135 35.008 15.3465C35.0739 15.951 35.3097 16.5245 35.688 17.0005C35.7911 17.0933 35.9061 17.172 36.03 17.2345C36.0705 17.1048 36.0937 16.9703 36.099 16.8345C36.052 16.3265 35.948 15.8235 35.936 15.3165C35.928 14.8905 36.05 14.4635 36.06 14.0365C36.0498 13.6582 36.0164 13.2808 35.96 12.9065C35.96 12.8705 35.913 12.8375 35.836 12.8165C35.8231 12.8746 35.82 12.9345 35.827 12.9935C35.9397 13.6103 35.9339 14.2429 35.81 14.8575C35.7208 15.4295 35.7439 16.0134 35.878 16.5765C35.8875 16.6482 35.8875 16.7209 35.878 16.7925L35.821 16.8165C35.745 16.7374 35.6748 16.6529 35.611 16.5635C35.3816 16.1641 35.2376 15.7215 35.188 15.2635C35.1479 14.9981 35.0323 14.7498 34.855 14.5482C34.6777 14.3466 34.4462 14.2002 34.188 14.1265C33.9731 14.0625 33.7517 14.0229 33.528 14.0085C33.465 14.0025 33.395 14.0695 33.328 14.1025C33.365 14.1745 33.384 14.2695 33.441 14.3135C33.602 14.4375 33.789 14.5265 33.949 14.6515C34.1692 14.8079 34.3455 15.0182 34.4609 15.2623C34.5763 15.5064 34.627 15.7762 34.608 16.0455C34.6034 16.4403 34.7064 16.8288 34.906 17.1694C35.1056 17.51 35.3943 17.7897 35.741 17.9785C35.8658 18.0154 35.9942 18.0388 36.124 18.0485C36.207 18.0605 36.29 18.0625 36.373 18.0715C36.381 18.0925 36.386 18.1135 36.395 18.1345C36.3087 18.1996 36.2158 18.2556 36.118 18.3015C35.8131 18.4071 35.487 18.4367 35.168 18.3875C34.8491 18.3384 34.547 18.212 34.288 18.0195C33.9285 17.7783 33.6311 17.4556 33.42 17.0775C33.393 17.0315 33.362 16.9935 33.336 16.9495C33.276 16.8495 33.202 16.7375 33.087 16.8415C33.0612 16.883 33.0455 16.93 33.0413 16.9787C33.0372 17.0273 33.0446 17.0763 33.063 17.1215C33.313 17.6625 33.611 18.1835 33.831 18.7345C34.0352 19.2396 34.1359 19.7805 34.1272 20.3252C34.1184 20.8699 34.0003 21.4073 33.78 21.9055C33.7367 21.984 33.684 22.0569 33.623 22.1225L33.566 22.1065C33.543 21.8945 33.525 21.6805 33.5 21.4695C33.4713 21.0383 33.3413 20.6199 33.1205 20.2484C32.8996 19.8769 32.5942 19.5627 32.229 19.3315C32.0484 19.2244 31.853 19.1445 31.649 19.0945C31.5946 19.0852 31.5388 19.0895 31.4865 19.1069C31.4341 19.1244 31.3869 19.1545 31.349 19.1945C31.335 19.2455 31.3328 19.299 31.3425 19.351C31.3522 19.403 31.3736 19.452 31.405 19.4945C31.543 19.6945 31.715 19.8635 31.872 20.0465C32.2072 20.4151 32.4464 20.8605 32.5685 21.3435C32.6906 21.8264 32.6918 22.332 32.572 22.8155C32.4013 23.5917 32.1162 24.3382 31.726 25.0305C31.694 25.0865 31.626 25.1205 31.575 25.1645C31.5299 25.1085 31.4959 25.0444 31.475 24.9755C31.3695 24.0142 30.994 23.1024 30.392 22.3455C30.32 22.2444 30.2319 22.1559 30.131 22.0835C30.0397 22.0543 29.9434 22.0441 29.848 22.0535C29.8353 22.1324 29.8353 22.2127 29.848 22.2915C29.985 22.6915 30.158 23.0755 30.272 23.4795C30.3086 23.6936 30.314 23.9119 30.288 24.1275C30.2201 24.753 30.3109 25.3854 30.552 25.9665C30.6469 26.146 30.7913 26.2946 30.968 26.3945C31.268 26.5605 31.595 26.6675 31.909 26.8065C31.9605 26.839 32.0076 26.878 32.049 26.9225C31.997 26.9655 31.955 27.0335 31.898 27.0485C31.4547 27.1738 30.9894 27.2015 30.5344 27.1297C30.0793 27.0579 29.6452 26.8883 29.262 26.6325C28.7183 26.3191 28.3135 25.8114 28.129 25.2115C28.0481 24.8129 27.9936 24.4094 27.966 24.0035C27.9588 23.8811 27.936 23.7601 27.898 23.6435C27.805 23.4115 27.637 23.3505 27.449 23.5135C27.1801 23.7474 26.9343 24.0066 26.715 24.2875C26.345 24.7755 26.015 25.2875 25.661 25.7875C25.327 26.25 24.9087 26.6453 24.428 26.9525C24.3644 26.9799 24.2969 26.9975 24.228 27.0045C24.2256 26.9322 24.2351 26.8599 24.256 26.7905C24.495 26.3095 24.777 25.8455 24.974 25.3485C25.0964 24.9633 25.1886 24.5691 25.25 24.1695L25.166 24.1485C25.1418 24.2031 25.1237 24.2601 25.112 24.3185C25.0216 25.0579 24.7623 25.7665 24.354 26.3895C24.244 26.5785 24.121 26.7595 24.018 26.9535C23.988 27.0135 23.972 27.1335 24.007 27.1665C24.0391 27.1873 24.0757 27.2003 24.1138 27.2043C24.1518 27.2083 24.1903 27.2032 24.226 27.1895C24.4182 27.1033 24.6023 26.9998 24.776 26.8805C24.982 26.7365 25.17 26.5675 25.364 26.4095C25.383 26.4235 25.404 26.4385 25.42 26.4525C25.257 26.7785 25.107 27.1135 24.92 27.4295C24.2415 28.6027 23.3162 29.6144 22.208 30.3945C21.6 30.8185 20.933 31.1565 20.289 31.5265C20.137 31.6135 20.041 31.5445 20.073 31.3695C20.217 30.6155 20.331 29.8475 20.534 29.1075C20.8329 28.0768 21.3127 27.1073 21.951 26.2445C22.022 26.1445 22.094 26.0445 22.179 25.9325C21.349 26.1405 19.679 30.6325 20.004 31.7795C22.0207 30.9705 23.7472 29.5732 24.959 27.7695C24.3425 29.1317 23.3189 30.2693 22.029 31.0255C22.26 31.0575 22.429 31.0925 22.603 31.0995C23.2731 31.1482 23.9467 31.0868 24.597 30.9175C25.492 30.6659 26.3096 30.1938 26.975 29.5445C27.0448 29.4898 27.1203 29.4425 27.2 29.4035L27.21 29.6575C27.227 30.1205 27.236 30.5855 27.268 31.0495C27.289 31.3685 27.368 31.6835 27.381 32.0025C27.3892 32.4674 27.2933 32.9283 27.1004 33.3513C26.9075 33.7744 26.6224 34.1489 26.266 34.4475C26.1189 34.5773 25.9818 34.718 25.856 34.8685C26.8345 34.8067 27.7733 34.459 28.556 33.8685C29.2941 33.2276 29.8635 32.4151 30.214 31.5025C30.24 31.5155 30.266 31.5305 30.291 31.5455C30.191 31.8455 30.091 32.1455 29.978 32.4335C29.865 32.7215 29.719 33.0115 29.565 33.3475C29.729 33.3105 29.858 33.2865 29.982 33.2535C30.6543 33.077 31.2821 32.7617 31.8252 32.3278C32.3682 31.894 32.8144 31.3512 33.135 30.7345L33.302 30.4225L33.382 30.4455C33.439 30.6215 33.491 30.7985 33.55 30.9755C33.9304 32.1059 34.6776 33.0766 35.673 33.7335C36.03 33.9805 36.427 34.1695 36.801 34.3945C36.8889 34.4406 36.9625 34.5098 37.014 34.5945C37.382 35.3795 37.766 36.1565 38.094 36.9575C38.684 38.3905 39.223 39.8465 39.812 41.2785C40.299 42.4655 40.795 43.6445 41.343 44.8015C42.0355 46.2923 42.9314 47.6799 44.005 48.9245C44.6246 49.6572 45.4021 50.2401 46.279 50.6295C46.752 50.8536 47.2878 50.9076 47.796 50.7825C48.0155 50.7113 48.2157 50.5905 48.3811 50.4296C48.5465 50.2687 48.6727 50.072 48.75 49.8545C48.9708 49.3284 49.0702 48.7593 49.041 48.1895C49.0125 47.514 48.936 46.8413 48.812 46.1765C48.666 45.3765 48.455 44.6015 48.268 43.8155C48.168 43.3785 48.052 42.9435 47.949 42.5035C47.9401 42.4184 47.9401 42.3326 47.949 42.2475L48.016 42.2275C48.301 42.4595 48.595 42.6865 48.874 42.9275C49.9036 43.7622 50.7269 44.823 51.28 46.0275C51.6792 46.9632 51.8394 47.9835 51.746 48.9965C51.6564 49.9321 51.4446 50.852 51.116 51.7325C51.086 51.8145 51.05 51.8935 51.016 51.9745C50.982 52.0555 50.954 52.1305 50.903 52.2545C50.9447 52.2371 50.9843 52.2149 51.021 52.1885C51.6774 51.5091 52.482 50.9906 53.372 50.6735C54.085 50.3625 54.803 50.0565 55.511 49.7365C55.689 49.6555 55.842 49.5225 56.011 49.4245C56.0688 49.4062 56.1295 49.3987 56.19 49.4025C56.19 49.4505 56.213 49.5025 56.197 49.5455C55.991 50.0455 55.811 50.5525 55.564 51.0265C55.1212 51.8623 54.3751 52.4968 53.479 52.7995C52.839 53.0325 52.169 53.1825 51.51 53.3695C51.459 53.3825 51.41 53.4005 51.329 53.4255C51.87 53.5255 52.382 53.6135 52.886 53.7255C53.579 53.8825 54.27 54.0635 54.961 54.2355C55.341 54.3355 55.716 54.4565 56.101 54.5265C56.318 54.5441 56.5362 54.535 56.751 54.4995C57.021 54.4805 57.289 54.4485 57.557 54.4295C57.6214 54.4325 57.6829 54.4575 57.731 54.5005C56.6569 55.5489 55.2169 56.1381 53.716 56.1435C52.9628 56.132 52.2205 55.9612 51.538 55.6423C50.8555 55.3235 50.2482 54.8638 49.756 54.2935C49.7685 54.3389 49.7842 54.3834 49.803 54.4265C50.1779 55.1511 50.4608 55.9198 50.645 56.7145C50.7897 57.4164 50.789 58.1406 50.6428 58.8421C50.4966 59.5437 50.208 60.2079 49.795 60.7935C49.587 61.1205 49.359 61.4325 49.142 61.7515C49.085 61.8315 49.02 61.9055 48.959 61.9815L48.88 61.9585C48.8767 61.869 48.8838 61.7794 48.901 61.6915C49.1411 60.9315 49.1848 60.123 49.028 59.3415C48.7297 57.9517 48.0472 56.6735 47.058 55.6525C46.588 55.1135 46.093 54.5945 45.578 54.0985C45.063 53.6025 44.499 53.1605 43.971 52.6765C42.9162 51.7059 42.0215 50.5746 41.32 49.3245C40.708 48.2405 40.155 47.1245 39.579 46.0195C39.179 45.2595 38.798 44.4945 38.408 43.7305L38.354 43.7475C38.3624 43.8092 38.3744 43.8703 38.39 43.9305C38.698 44.7485 38.99 45.5725 39.322 46.3805C39.8054 47.4347 40.0717 48.5753 40.105 49.7345C40.097 50.9845 40.072 52.2345 40.062 53.4815C40.062 54.2455 40.042 55.0125 40.075 55.7815C40.0899 56.0691 40.1636 56.3506 40.2916 56.6086C40.4196 56.8666 40.5991 57.0956 40.819 57.2815C41.619 58.0235 42.429 58.7625 43.277 59.4545C43.6 59.7235 44.001 59.8813 44.4207 59.9046C44.8403 59.9278 45.2563 59.8152 45.607 59.5835C45.6907 59.5545 45.7777 59.5363 45.866 59.5295C45.8781 59.6089 45.8814 59.6894 45.876 59.7695C45.818 60.0581 45.6791 60.3242 45.4754 60.5367C45.2718 60.7492 45.0118 60.8994 44.726 60.9695C44.209 61.1325 43.668 61.2135 43.137 61.3305C42.943 61.3725 42.744 61.4085 42.547 61.4475L42.555 61.5235C42.771 61.5075 42.987 61.5025 43.201 61.4735C43.678 61.4095 44.152 61.3295 44.628 61.2595C44.6949 61.2555 44.7621 61.2596 44.828 61.2715C44.8295 61.3395 44.819 61.4072 44.797 61.4715C44.5141 61.9649 44.0562 62.3339 43.514 62.5055C43.1426 62.6053 42.7651 62.6811 42.384 62.7325C42.3346 62.739 42.2881 62.7595 42.25 62.7915C43.2875 62.9709 44.3526 62.9066 45.361 62.6035C45.3352 62.7203 45.2851 62.8304 45.2139 62.9265C45.1428 63.0227 45.0522 63.1027 44.948 63.1615C44.4928 63.4676 43.9612 63.6408 43.413 63.6615C42.954 63.7175 42.5 63.8185 42.043 63.9095C41.9484 63.9387 41.858 63.9801 41.774 64.0325C41.774 64.0565 41.774 64.0805 41.781 64.1025C42.188 64.1265 42.594 64.1825 43 64.1715C43.406 64.1605 43.82 64.0855 44.277 64.0345C44.1445 64.307 43.9406 64.5386 43.687 64.7045C43.287 64.9502 42.8301 65.088 42.361 65.1045C42.011 65.1335 41.661 65.1385 41.311 65.1565C41.243 65.1565 41.175 65.1635 41.111 65.1675C41.101 65.1945 41.091 65.2215 41.082 65.2505C41.393 65.4075 41.696 65.5875 42.017 65.7185C42.5005 65.9095 43.0203 65.9908 43.539 65.9565C43.6197 65.9647 43.6986 65.9853 43.773 66.0175C43.7254 66.0902 43.6667 66.155 43.599 66.2095C43.0426 66.5195 42.4169 66.6839 41.78 66.6875C41.297 66.6965 40.809 66.6875 40.323 66.6875C40.317 66.7195 40.312 66.7495 40.309 66.7815C40.5057 66.8514 40.706 66.9109 40.909 66.9595C41.489 67.0695 42.071 67.1655 42.65 67.2695C42.698 67.2795 42.737 67.3275 42.781 67.3585C42.748 67.3995 42.723 67.4585 42.681 67.4815C42.2416 67.6933 41.7671 67.8224 41.281 67.8625C40.823 67.8865 40.364 67.8825 39.905 67.8925C39.836 67.8959 39.7696 67.9196 39.714 67.9605C39.896 68.0195 40.081 68.0775 40.264 68.1375C40.5934 68.2394 40.8796 68.4476 41.078 68.7295C41.099 68.7605 41.135 68.7855 41.142 68.8185C41.303 69.3815 41.683 69.8895 41.59 70.5185C41.563 70.6975 41.519 70.8725 41.484 71.0505H41.412C41.305 70.8985 41.204 70.7415 41.086 70.5995C41.0085 70.4742 40.888 70.3813 40.7471 70.3383C40.6061 70.2952 40.4543 70.3049 40.32 70.3655C40.134 70.4435 40.036 70.3115 39.958 70.1655C39.8586 69.988 39.8329 69.7785 39.8866 69.5822C39.9403 69.386 40.069 69.2187 40.245 69.1165C40.278 69.0905 40.317 69.0735 40.365 69.0435C40.089 68.9865 39.737 69.3255 39.665 69.7155C39.6176 69.9626 39.6685 70.2185 39.807 70.4285C39.8692 70.5335 39.9672 70.6124 40.0829 70.6508C40.1987 70.6892 40.3244 70.6845 40.437 70.6375C40.304 70.9755 39.603 71.1605 39.156 71.0375C38.7055 70.8666 38.3152 70.5668 38.034 70.1755C38.044 70.2755 38.053 70.3755 38.061 70.4835C38.061 70.5135 38.072 70.5415 38.074 70.5705C38.131 71.2205 38.046 71.3325 37.401 71.4705C37.333 71.4875 37.268 71.5125 37.147 71.5495C37.275 71.6405 37.368 71.7025 37.456 71.7695C37.8041 71.9919 38.0569 72.3359 38.165 72.7345C38.221 73.0145 38.206 73.3039 38.1214 73.5766C38.0369 73.8492 37.8855 74.0964 37.681 74.2955C37.3726 74.6582 36.9748 74.9339 36.527 75.0955C36.4423 75.1349 36.3693 75.1956 36.315 75.2715C36.126 75.4935 35.941 75.7185 35.767 75.9525C35.63 76.1365 35.515 76.3365 35.377 76.5525C35.344 76.5225 35.289 76.4955 35.265 76.4525C34.9769 75.979 34.7985 75.447 34.743 74.8955C34.732 74.7337 34.7721 74.5725 34.8577 74.4347C34.9433 74.2968 35.07 74.1894 35.22 74.1275C35.3532 74.0564 35.5042 74.0253 35.6546 74.0381C35.8051 74.0509 35.9487 74.1069 36.068 74.1995C36.122 74.2421 36.1812 74.2777 36.244 74.3055C36.2056 74.2091 36.1444 74.1233 36.0657 74.0556C35.987 73.9878 35.8931 73.9401 35.792 73.9165C35.6457 73.8694 35.4907 73.8553 35.3382 73.8752C35.1857 73.8952 35.0396 73.9486 34.9103 74.0319C34.781 74.1151 34.6717 74.2259 34.5904 74.3564C34.5091 74.4869 34.4577 74.6338 34.44 74.7865C34.403 75.0695 34.358 75.0865 34.124 74.9205C33.9586 74.8022 33.835 74.6346 33.7709 74.4416C33.7067 74.2486 33.7054 74.0403 33.767 73.8465C33.885 73.3325 34.051 72.8275 34.208 72.3215C34.4167 71.7838 34.513 71.209 34.491 70.6325C34.4677 70.4205 34.4107 70.2136 34.322 70.0195C34.305 70.0515 34.276 70.0855 34.276 70.1195C34.2116 70.8907 34.0189 71.6458 33.706 72.3535C33.336 73.2785 32.952 74.1985 32.563 75.1165C32.501 75.3331 32.3733 75.525 32.1976 75.666C32.0219 75.8069 31.8068 75.8899 31.582 75.9035C31.2713 75.8985 30.9635 75.8424 30.671 75.7375C30.5981 75.7105 30.5198 75.7012 30.4426 75.7104C30.3654 75.7197 30.2915 75.7471 30.227 75.7905C29.8482 75.9705 29.5499 76.2849 29.39 76.6725C29.381 76.7015 29.347 76.7255 29.303 76.7725C29.256 76.7155 29.195 76.6725 29.184 76.6235C29.0848 76.2683 29.059 75.8966 29.1082 75.5311C29.1574 75.1656 29.2805 74.8139 29.47 74.4975C29.5589 74.3575 29.6845 74.2446 29.8332 74.1711C29.9818 74.0976 30.1478 74.0662 30.313 74.0805C30.4747 74.0926 30.6281 74.1565 30.7504 74.2628C30.8728 74.3691 30.9575 74.5122 30.992 74.6705C31.0072 74.7104 31.0246 74.7495 31.044 74.7875L31.064 74.7935C31.0866 74.65 31.0676 74.503 31.0093 74.3699C30.951 74.2369 30.8558 74.1233 30.735 74.0425C30.6113 73.9436 30.4631 73.8801 30.3062 73.8588C30.1493 73.8375 29.9896 73.8592 29.844 73.9215C29.5692 74.0552 29.306 74.2114 29.057 74.3885C28.957 74.2445 29.043 74.0515 29.096 73.8745C29.2712 73.3613 29.5676 72.8979 29.96 72.5235C30.592 71.8585 31.248 71.2135 31.891 70.5565C32.2659 70.176 32.5817 69.7415 32.828 69.2675C32.8493 69.2181 32.8664 69.1669 32.879 69.1145C32.863 69.1055 32.848 69.0965 32.831 69.0855C32.617 69.3455 32.411 69.6155 32.183 69.8645C31.653 70.4445 31.123 71.0295 30.566 71.5835C30.3744 71.7378 30.1531 71.8511 29.916 71.9165C29.8215 71.9517 29.7177 71.9525 29.6226 71.9189C29.5276 71.8853 29.4473 71.8193 29.396 71.7325C29.268 71.5385 29.182 71.3195 29.064 71.1215C29.0107 71.0339 28.9391 70.9588 28.854 70.9015C28.727 70.8195 28.577 70.7715 28.447 70.6915C28.1426 70.4985 27.7767 70.4271 27.422 70.4915C27.3406 70.4943 27.2591 70.4883 27.179 70.4735C27.167 70.4455 27.156 70.4165 27.142 70.3875C27.431 70.1775 27.713 69.9545 28.01 69.7585C28.191 69.6405 28.41 69.5775 28.594 69.4685C28.8559 69.3452 29.1553 69.3277 29.4297 69.4197C29.7042 69.5118 29.9325 69.7062 30.067 69.9625C30.1078 70.1707 30.0643 70.3865 29.946 70.5625C29.926 70.6035 29.897 70.6415 29.86 70.6995C30.037 70.5945 30.1656 70.424 30.218 70.2249C30.2704 70.0258 30.2424 69.8141 30.14 69.6355C30.0206 69.4908 29.8865 69.3588 29.74 69.2415C29.698 69.1985 29.62 69.1325 29.631 69.1085C29.6439 69.077 29.6633 69.0485 29.688 69.0249C29.7126 69.0013 29.7419 68.9831 29.774 68.9715C30.252 68.8715 30.726 68.7815 31.207 68.7045C31.9147 68.7052 32.6122 68.5362 33.241 68.2115C33.6609 67.9081 34.0546 67.5699 34.418 67.2005C35.0697 66.55 35.6244 65.8091 36.065 65.0005C36.2906 64.6252 36.4442 64.2112 36.518 63.7795C36.5502 63.5373 36.5253 63.291 36.4455 63.0601C36.3656 62.8292 36.2329 62.6201 36.058 62.4495C35.814 62.1885 35.512 61.9825 35.265 61.7295C35.0068 61.4737 34.7725 61.1949 34.565 60.8965C34.4756 60.7383 34.4372 60.5564 34.455 60.3755C34.489 59.8245 34.555 59.2755 34.604 58.7235C34.6193 58.5196 34.6213 58.3148 34.61 58.1105C34.61 58.0565 34.546 58.0025 34.51 57.9475C34.47 58.0075 34.399 58.0655 34.399 58.1235C34.3877 58.6482 34.2928 59.1677 34.118 59.6625C33.8527 60.3882 33.4983 61.0782 33.063 61.7165C32.763 62.1755 32.463 62.6285 32.175 63.0965C31.5291 64.0225 31.1772 65.1216 31.165 66.2505C31.098 66.2015 31.03 66.1765 30.998 66.1295C30.709 65.7146 30.5307 65.2327 30.4802 64.7296C30.4296 64.2264 30.5084 63.7187 30.709 63.2545C31.1576 62.3129 31.7064 61.4224 32.346 60.5985C32.566 60.2805 32.787 59.9655 32.998 59.6415C33.026 59.6015 32.998 59.5215 32.99 59.4605C32.928 59.4795 32.839 59.4775 32.812 59.5195C32.0673 60.6249 31.3273 61.7342 30.592 62.8475C30.5492 62.9319 30.5115 63.0187 30.479 63.1075C30.423 63.2185 30.36 63.3255 30.3 63.4365C30.278 63.4365 30.259 63.4275 30.236 63.4235C30.2205 63.358 30.2131 63.2909 30.214 63.2235C30.351 61.9475 30.8554 60.7386 31.666 59.7435C31.7226 59.6864 31.771 59.6218 31.81 59.5515C31.8196 59.5255 31.8227 59.4975 31.819 59.4699C31.8154 59.4424 31.8051 59.4162 31.789 59.3935C31.751 59.3645 31.676 59.3775 31.62 59.3935C31.592 59.3995 31.573 59.4455 31.552 59.4735C31.3598 59.782 31.0559 60.0043 30.7038 60.0941C30.3517 60.1839 29.9784 60.1342 29.662 59.9555C29.3127 59.7473 28.9851 59.5048 28.684 59.2315C28.6502 59.1979 28.6239 59.1576 28.6067 59.1131C28.5894 59.0687 28.5817 59.0211 28.584 58.9735C28.6209 58.9838 28.6567 58.9975 28.691 59.0145C28.9494 59.19 29.2641 59.2624 29.5732 59.2174C29.8823 59.1724 30.1633 59.0134 30.361 58.7715C30.9077 58.1801 31.3213 57.4783 31.574 56.7135C31.868 55.9255 32.112 55.1195 32.342 54.3135C32.478 53.8405 32.542 53.3465 32.642 52.8615C32.762 52.3095 32.888 51.7565 33.02 51.2065C33.31 50.0195 33.607 48.8355 33.894 47.6505C34.0527 47.0005 34.202 46.3482 34.342 45.6935C34.3492 45.649 34.3455 45.6033 34.3312 45.5605C34.3169 45.5176 34.2925 45.4789 34.26 45.4475C34.12 45.3755 34.099 45.5155 34.072 45.6115C33.872 46.3395 33.6697 47.0672 33.465 47.7945C33.278 48.4675 33.087 49.1395 32.904 49.8135C32.7317 50.5004 32.4555 51.157 32.085 51.7605C31.8573 52.1196 31.5608 52.43 31.2126 52.6739C30.8643 52.9178 30.4712 53.0903 30.056 53.1815C28.7904 53.4794 27.4868 53.583 26.19 53.4885C25.8914 53.4718 25.5919 53.4886 25.297 53.5385C25.0821 53.5748 24.8835 53.6762 24.7282 53.8292C24.5729 53.9821 24.4685 54.1792 24.429 54.3935C24.271 54.9935 24.156 55.6125 24.038 56.2255C23.956 56.6535 23.899 57.0865 23.832 57.5165C23.7373 57.9759 23.761 58.4519 23.9009 58.8995C24.0409 59.3472 24.2925 59.7519 24.632 60.0755C24.6649 60.1035 24.6963 60.1332 24.726 60.1645C24.78 60.2215 24.832 60.2775 24.884 60.3335C24.811 60.3875 24.747 60.4705 24.664 60.4915C24.4016 60.571 24.124 60.5868 23.8543 60.5376C23.5845 60.4884 23.3304 60.3756 23.113 60.2085C22.9055 60.0253 22.7142 59.8245 22.541 59.6085C22.241 59.2865 21.952 58.9615 21.657 58.6415C21.647 58.6285 21.62 58.6255 21.557 58.6525C21.968 59.2865 22.375 59.9215 22.784 60.5525C22.774 60.5785 22.762 60.6035 22.75 60.6305C22.5317 60.6416 22.3129 60.6272 22.098 60.5875C21.6825 60.466 21.3264 60.1954 21.098 59.8275C20.83 59.4587 20.5436 59.1036 20.24 58.7635L20.174 58.8105C20.297 59.0405 20.415 59.2755 20.545 59.5045C20.723 59.8215 20.915 60.1315 21.091 60.4485C21.1204 60.5264 21.1372 60.6084 21.141 60.6915C21.0679 60.7091 20.9932 60.7191 20.918 60.7215C20.6563 60.6859 20.4124 60.5694 20.2202 60.3883C20.028 60.2072 19.8972 59.9706 19.846 59.7115C19.816 59.5835 19.78 59.5005 19.636 59.5405C19.492 59.5805 19.529 59.6785 19.553 59.7845C19.6896 60.4787 19.9614 61.1393 20.353 61.7285C20.427 61.8355 20.524 61.9285 20.597 62.0365C20.62 62.09 20.6329 62.1473 20.635 62.2055C20.5825 62.2103 20.5295 62.2069 20.478 62.1955C19.6717 61.8331 19.005 61.2186 18.578 60.4445C18.427 60.2005 18.289 59.9445 18.146 59.6975L18.089 59.7105C18.1 59.8745 18.105 60.0405 18.124 60.2045C18.2385 61.1728 18.6263 62.0885 19.242 62.8445C19.2949 62.9164 19.3233 63.0033 19.323 63.0925C18.3475 62.4083 17.6102 61.4363 17.214 60.3125H17.157C17.14 60.3765 17.121 60.4435 17.108 60.5125C17.0814 60.7144 17.044 60.9147 16.996 61.1125C16.934 61.3245 16.777 61.3595 16.62 61.1945C16.388 60.9545 16.171 60.6945 15.949 60.4455C15.9344 60.4276 15.9162 60.4131 15.8955 60.4029C15.8747 60.3927 15.8521 60.3871 15.829 60.3865C15.877 60.5535 15.929 60.7165 15.969 60.8865C16.1167 61.2532 16.1485 61.6563 16.06 62.0415C15.9997 62.2174 15.8996 62.377 15.7677 62.5079C15.6357 62.6388 15.4753 62.7376 15.299 62.7965C15.145 62.8575 15.128 62.7175 15.099 62.6125C15.0442 62.4527 14.9321 62.3188 14.7843 62.2368C14.6366 62.1548 14.4636 62.1305 14.299 62.1685C14.377 62.2065 14.427 62.2325 14.481 62.2555C14.898 62.4285 15.022 62.6655 14.86 63.0865C14.686 63.5631 14.3724 63.976 13.96 64.2715C13.922 64.2985 13.843 64.3235 13.827 64.3045C13.809 64.2851 13.7955 64.262 13.7874 64.2367C13.7793 64.2115 13.7767 64.1848 13.78 64.1585C13.826 63.8452 13.7665 63.5254 13.611 63.2495C13.5551 63.1681 13.5178 63.0754 13.5018 62.9779C13.4857 62.8804 13.4912 62.7806 13.518 62.6855C13.535 62.6425 13.485 62.5475 13.437 62.5145C13.1779 62.3379 12.9877 62.0773 12.8986 61.7766C12.8095 61.476 12.827 61.1538 12.948 60.8645C13.06 60.5645 13.141 60.2525 13.237 59.9445C13.219 59.9355 13.201 59.9285 13.184 59.9185C13.057 60.1005 12.944 60.2915 12.803 60.4605C12.6198 60.703 12.4102 60.9244 12.178 61.1205C12.114 61.1704 12.0401 61.206 11.9612 61.2251C11.8824 61.2442 11.8004 61.2463 11.7206 61.2313C11.6409 61.2162 11.5653 61.1844 11.4988 61.1379C11.4323 61.0914 11.3765 61.0313 11.335 60.9615C11.172 60.7405 11.035 60.4945 10.892 60.2615C10.8625 60.212 10.8165 60.1745 10.762 60.1555C10.7673 60.2275 10.774 60.2985 10.782 60.3685C10.8742 60.7732 10.8868 61.192 10.819 61.6015C10.7573 61.8162 10.6397 62.0105 10.4782 62.1648C10.3167 62.3191 10.1172 62.4277 9.90001 62.4795C9.41578 62.599 8.90595 62.5594 8.446 62.3665C8.424 62.3595 8.397 62.3525 8.388 62.3365C8.208 62.0365 7.98801 62.1985 7.81601 62.3165C7.6105 62.4743 7.41666 62.6468 7.23601 62.8325C7.20317 62.8677 7.16235 62.8945 7.117 62.9105C7.099 62.9105 7.04501 62.8545 7.04401 62.8215C6.94796 62.1723 7.10278 61.5108 7.47701 60.9715C7.55659 60.8577 7.65985 60.7624 7.77971 60.6923C7.89957 60.6221 8.03319 60.5787 8.1714 60.565C8.30962 60.5513 8.44914 60.5677 8.58043 60.613C8.71172 60.6583 8.83166 60.7315 8.93201 60.8275C9.03301 60.9677 9.11411 61.1211 9.173 61.2835C9.19272 61.3452 9.20876 61.408 9.22101 61.4715C9.26957 61.2575 9.24152 61.0332 9.14175 60.8377C9.04199 60.6422 8.87682 60.4878 8.675 60.4015C8.259 60.28 7.81223 60.323 7.427 60.5215C7.48002 60.2163 7.63516 59.9381 7.867 59.7325C8.22848 59.4108 8.66472 59.1846 9.136 59.0745C9.943 58.8535 10.761 58.6805 11.572 58.4855C11.6786 58.4633 11.7825 58.4298 11.882 58.3855C11.92 58.3665 11.93 58.2855 11.942 58.2365C11.942 58.2225 11.921 58.2005 11.909 58.1825C11.637 57.7645 11.64 57.7695 11.142 57.9645C10.507 58.2175 9.87801 58.4925 9.22701 58.6955C8.67823 58.8673 8.11538 58.9905 7.545 59.0635C7.27811 59.1114 7.00399 59.1004 6.74179 59.0313C6.47959 58.9622 6.23565 58.8367 6.02701 58.6635C5.709 58.3666 5.50844 57.9651 5.46201 57.5325C5.44952 57.3797 5.4042 57.2313 5.32913 57.0976C5.25407 56.9638 5.15102 56.8479 5.02704 56.7576C4.90306 56.6673 4.76107 56.6049 4.61075 56.5745C4.46042 56.5441 4.30531 56.5465 4.15601 56.5815C4.0762 56.5822 3.99662 56.5731 3.91901 56.5545C3.91901 56.5285 3.90601 56.5055 3.90001 56.4805C4.04201 56.3905 4.183 56.2975 4.327 56.2045C4.77284 55.8965 5.29338 55.7141 5.834 55.6765C6.18461 55.6544 6.53528 55.7189 6.855 55.8645C7.214 56.0385 7.27701 56.4125 6.98401 56.7815C6.83739 56.9446 6.6764 57.0942 6.50301 57.2285C6.68745 57.1989 6.86044 57.1199 7.00372 57.0001C7.147 56.8802 7.25524 56.7238 7.317 56.5475C7.498 56.0765 7.274 55.7855 6.871 55.5665L6.88701 55.5035C6.98802 55.481 7.09192 55.4742 7.19501 55.4835C7.90901 55.6465 8.629 55.8055 9.336 56.0005C10.043 56.1955 10.714 56.4245 11.402 56.6375C11.4709 56.6558 11.5431 56.6578 11.613 56.6435C11.198 56.2819 10.7109 56.0127 10.184 55.8535C9.73411 55.7355 9.29221 55.5889 8.86101 55.4145C8.73539 55.3689 8.6232 55.2925 8.5347 55.1924C8.4462 55.0922 8.3842 54.9715 8.35437 54.8412C8.32454 54.7109 8.32781 54.5753 8.36391 54.4466C8.4 54.3179 8.46777 54.2003 8.561 54.1045C8.65892 53.9773 8.7809 53.8707 8.92 53.7905C8.981 53.7599 9.03246 53.7131 9.06877 53.6553C9.10508 53.5975 9.12488 53.5308 9.12601 53.4625C9.16201 53.2415 9.24 53.0245 9.254 52.8025C9.274 52.4825 9.254 52.1595 9.243 51.8105C9.256 51.8105 9.327 51.8105 9.36 51.8395C9.723 52.2075 10.09 52.5735 10.436 52.9575C10.556 53.1137 10.6605 53.2812 10.748 53.4575C11.02 53.9075 10.574 54.7655 10.028 54.7195C9.851 54.7015 9.67601 54.6785 9.51001 54.6595C9.60242 54.7519 9.71743 54.8185 9.8436 54.8525C9.96976 54.8866 10.1027 54.8869 10.229 54.8535C10.3861 54.8423 10.5386 54.7953 10.6749 54.7162C10.8111 54.6371 10.9276 54.528 11.0153 54.3972C11.103 54.2664 11.1598 54.1172 11.1812 53.9612C11.2027 53.8051 11.1882 53.6462 11.139 53.4965L11.206 53.4665C11.3276 53.5627 11.4395 53.6705 11.54 53.7885C11.761 54.1025 11.958 54.4355 12.174 54.7515C12.3014 54.9501 12.3519 55.1884 12.316 55.4215C12.265 55.9295 12.378 56.1115 12.856 56.2985C13.6006 56.6073 14.4096 56.7285 15.212 56.6515C15.9384 56.5679 16.6047 56.2081 17.073 55.6465C17.5825 55.0347 17.9717 54.332 18.22 53.5755C18.4409 52.8365 18.7281 52.1189 19.078 51.4315C19.4767 50.8073 20.0506 50.3144 20.728 50.0145C21.577 49.5745 22.412 49.1145 23.253 48.6665C23.2941 48.6394 23.3332 48.6093 23.37 48.5765C23.362 48.5565 23.356 48.5375 23.35 48.5185C23.131 48.5885 22.908 48.6495 22.693 48.7275C21.8959 49.0308 21.0658 49.2392 20.22 49.3485C19.2106 49.462 18.1922 49.471 17.181 49.3755C16.563 49.3185 15.944 49.2815 15.327 49.2335C14.739 49.1875 14.15 49.1335 13.563 49.0895C13.331 49.0695 13.096 49.0675 12.863 49.0485C12.7729 49.0381 12.6834 49.0227 12.595 49.0025C12.583 48.9795 12.572 48.9555 12.561 48.9325C12.761 48.7505 12.944 48.5505 13.161 48.3865C13.4208 48.1856 13.7211 48.0435 14.0412 47.97C14.3613 47.8964 14.6935 47.8932 15.015 47.9605C15.954 48.1265 16.896 48.2605 17.841 48.4005C18.157 48.4485 18.19 48.4075 18.141 48.1315C17.482 48.0015 16.829 47.8515 16.17 47.7475C15.511 47.6435 14.862 47.5835 14.208 47.4615C14.964 46.9716 15.8581 46.7391 16.757 46.7985C17.6433 46.8726 18.5013 47.1461 19.267 47.5985C19.28 47.5815 19.294 47.5655 19.305 47.5485C19.2803 47.5067 19.2533 47.4663 19.224 47.4275C18.9465 47.166 18.7336 46.8435 18.602 46.4855C18.4834 46.0939 18.4865 45.6754 18.611 45.2855C18.695 45.0345 18.83 45.0155 19.003 45.2215C19.1004 45.3398 19.1874 45.4663 19.263 45.5995C19.33 45.7085 19.403 45.6995 19.503 45.6535C19.603 45.6075 19.616 45.5315 19.573 45.4225C19.5124 45.3147 19.48 45.1934 19.4788 45.0698C19.4776 44.9461 19.5076 44.8242 19.566 44.7152C19.6244 44.6062 19.7094 44.5138 19.8131 44.4463C19.9167 44.3789 20.0357 44.3388 20.159 44.3295C20.359 44.2855 20.559 44.2495 20.759 44.2205C20.8437 44.2222 20.928 44.2316 21.011 44.2485C20.9604 44.3253 20.9046 44.3984 20.844 44.4675C20.6777 44.635 20.5744 44.8549 20.5518 45.0899C20.5292 45.3249 20.5886 45.5604 20.72 45.7565C20.9057 46.0498 21.1538 46.2984 21.4466 46.4848C21.7394 46.6711 22.0697 46.7905 22.414 46.8345C23.1201 46.9 23.8322 46.8196 24.506 46.5985C25.6224 46.3192 26.7692 46.1801 27.92 46.1845C28.85 46.1745 29.778 46.1845 30.705 46.1575C31.698 46.1315 32.689 46.0855 33.681 46.0445C33.7128 46.041 33.744 46.0336 33.774 46.0225C33.7663 45.979 33.7549 45.9362 33.74 45.8945C33.1602 44.6717 32.3481 43.5733 31.349 42.6605C30.577 41.9935 29.749 41.3885 28.949 40.7605C28.633 40.5125 28.325 40.2605 27.996 40.0295C27.474 39.6655 26.932 39.3295 26.408 38.9655C26.127 38.7715 25.885 38.5225 25.599 38.3425C25.2479 38.1145 24.9233 37.8482 24.631 37.5485C24.5968 37.5265 24.568 37.4972 24.5464 37.4627C24.5248 37.4282 24.5111 37.3894 24.5063 37.349C24.5014 37.3086 24.5055 37.2677 24.5182 37.229C24.531 37.1904 24.5521 37.1551 24.58 37.1255C24.7809 36.7968 24.9615 36.4562 25.121 36.1055C25.3 35.7525 25.484 35.3985 25.635 35.0315C25.7027 34.8424 25.7388 34.6434 25.742 34.4425C25.7464 34.4056 25.7426 34.3681 25.7307 34.3328C25.7189 34.2975 25.6993 34.2653 25.6735 34.2384C25.6476 34.2116 25.6161 34.1909 25.5813 34.1778C25.5464 34.1647 25.5091 34.1595 25.472 34.1625C25.293 34.1625 25.226 34.2545 25.246 34.4465C25.2638 34.7425 25.2206 35.039 25.1189 35.3175C25.0172 35.596 24.8593 35.8507 24.655 36.0655C24.329 36.4655 23.963 36.8335 23.613 37.2125C23.5667 37.2419 23.5174 37.2664 23.466 37.2855C23.534 36.3725 23.595 35.4975 23.657 34.6215C22.8959 35.8601 22.5362 37.3036 22.627 38.7545C22.6 38.7645 22.573 38.7745 22.544 38.7835C22.4736 38.6923 22.417 38.5912 22.376 38.4835C22.276 37.9835 22.197 37.4835 22.11 36.9835C22.05 36.6335 21.988 36.2835 21.93 35.9415C21.63 35.8975 21.589 35.9215 21.612 36.1955C21.638 36.6305 21.5634 37.0657 21.394 37.4672C21.2245 37.8687 20.9648 38.2257 20.635 38.5105C20.5775 38.5567 20.5082 38.5858 20.435 38.5945C20.5714 37.6806 20.5559 36.7504 20.389 35.8415C19.939 37.4193 19.5976 39.0261 19.367 40.6505L19.276 40.6625C19.2143 40.575 19.167 40.4781 19.136 40.3755C19.059 39.7755 18.986 39.1635 18.936 38.5555C18.904 38.1925 18.913 37.8265 18.902 37.4615C18.902 37.3615 18.921 37.2415 18.762 37.2405C18.603 37.2395 18.576 37.3465 18.583 37.4775C18.6068 37.8979 18.5241 38.3175 18.3425 38.6974C18.1608 39.0773 17.8862 39.4051 17.544 39.6505C17.4849 39.6839 17.4207 39.7072 17.354 39.7195C17.3489 39.6554 17.3523 39.5908 17.364 39.5275C17.4077 39.4262 17.4299 39.3169 17.4293 39.2065C17.4287 39.0961 17.4053 38.9871 17.3605 38.8862C17.3157 38.7853 17.2505 38.6948 17.169 38.6203C17.0875 38.5459 16.9915 38.4891 16.887 38.4535C16.2093 38.2236 15.4898 38.1431 14.778 38.2175C14.486 38.2275 14.196 38.2455 13.905 38.2605C13.863 38.2605 13.822 38.2765 13.738 38.2935C13.806 38.3755 13.856 38.4405 13.907 38.5025C14.2093 38.7734 14.3929 39.1524 14.418 39.5575C14.3959 39.736 14.3495 39.9107 14.28 40.0765C14.26 40.1345 14.18 40.1765 14.133 40.2185C14.089 40.1665 14.02 40.1255 14.003 40.0655C13.9249 39.8883 13.7966 39.7377 13.6341 39.6324C13.4715 39.527 13.2817 39.4715 13.088 39.4725C13.0504 39.4795 13.014 39.492 12.98 39.5095C13.151 39.5795 13.29 39.6295 13.422 39.6925C13.5757 39.7564 13.7011 39.874 13.7746 40.0233C13.8482 40.1727 13.865 40.3437 13.822 40.5045C13.7271 40.8996 13.5544 41.2719 13.3141 41.5995C13.0737 41.9271 12.7704 42.2035 12.422 42.4125C12.358 42.4379 12.2906 42.4534 12.222 42.4585C12.2082 42.3928 12.2049 42.3253 12.212 42.2585C12.3209 41.8689 12.2854 41.4531 12.112 41.0875C12.012 40.8635 11.946 40.6265 11.865 40.3955C11.8471 40.484 11.8347 40.5735 11.828 40.6635C11.828 40.8165 11.774 40.8555 11.628 40.8025C11.3935 40.7239 11.1951 40.5635 11.069 40.3508C10.9429 40.138 10.8975 39.887 10.941 39.6435C10.9707 39.5309 10.9921 39.4163 11.005 39.3005C10.988 39.22 10.9561 39.1434 10.911 39.0745C10.849 39.1165 10.751 39.1435 10.727 39.2015C10.6588 39.3949 10.5472 39.5701 10.401 39.7137C10.2547 39.8574 10.0775 39.9658 9.883 40.0305C9.73839 40.0849 9.58214 40.1006 9.4296 40.0762C9.27705 40.0519 9.13348 39.9882 9.013 39.8915C8.664 39.6085 8.345 39.2845 8.013 38.9805C7.9991 38.9695 7.98279 38.962 7.96541 38.9585C7.94802 38.955 7.93007 38.9557 7.91301 38.9605C7.93301 39.0035 7.951 39.0505 7.974 39.0915C8.174 39.4475 8.39801 39.7915 8.57401 40.1595C8.71452 40.4794 8.74748 40.8363 8.66797 41.1765C8.58845 41.5168 8.40074 41.822 8.133 42.0465C7.8484 42.3204 7.50559 42.5265 7.13017 42.6492C6.75475 42.772 6.35643 42.8084 5.965 42.7555C5.85442 42.738 5.74116 42.7522 5.63832 42.7964C5.53548 42.8407 5.4473 42.9132 5.384 43.0055C5.20873 43.2531 5.04781 43.5105 4.90201 43.7765C4.87201 43.8245 4.85401 43.8765 4.81601 43.9575C4.75201 43.8985 4.68901 43.8645 4.66501 43.8155C4.40773 43.3656 4.26648 42.8587 4.254 42.3405C4.26543 42.0951 4.35068 41.8587 4.49858 41.6625C4.64649 41.4662 4.85018 41.3192 5.08301 41.2405C5.22099 41.2149 5.36357 41.2369 5.48746 41.3028C5.61134 41.3688 5.70918 41.4748 5.765 41.6035C5.79548 41.6573 5.82285 41.7127 5.847 41.7695C5.869 41.7095 5.895 41.6695 5.888 41.6415C5.86532 41.5304 5.81823 41.4257 5.75012 41.3351C5.68201 41.2444 5.59459 41.17 5.49419 41.1172C5.39379 41.0645 5.28292 41.0347 5.1696 41.0301C5.05629 41.0255 4.94336 41.0461 4.839 41.0905C4.68071 41.1771 4.52685 41.2716 4.37801 41.3735C4.32701 41.4045 4.251 41.4445 4.209 41.4255C4.167 41.4065 4.13701 41.3255 4.12601 41.2655C4.08616 41.0146 4.11904 40.7574 4.22076 40.5246C4.32249 40.2917 4.48879 40.0928 4.7 39.9515C5.35 39.4215 6.02 38.9145 6.7 38.4165C7.17606 38.0537 7.58867 37.6144 7.92101 37.1165C7.93661 37.0751 7.94637 37.0317 7.95 36.9875C7.75 37.1295 7.581 37.2365 7.427 37.3595C6.856 37.8155 6.29201 38.2775 5.72701 38.7335C5.01501 39.3035 4.30234 39.8719 3.589 40.4385C3.555 40.4665 3.51901 40.4895 3.48201 40.5155C3.04201 40.8565 2.768 40.7845 2.327 40.3935C2.02918 40.109 1.8272 39.7389 1.74901 39.3345C1.7348 39.2954 1.71195 39.26 1.68217 39.2309C1.6524 39.2018 1.61645 39.1798 1.577 39.1665C1.34165 39.1101 1.0957 39.1156 0.863129 39.1825C0.630554 39.2495 0.419305 39.3756 0.25 39.5485C0.172973 39.5944 0.08932 39.6282 0.0019989 39.6485L0 39.4105Z" fill="#0E2253"/>
<path fill-rule="evenodd" clip-rule="evenodd" d="M25.5949 2.23668C25.7261 2.25118 25.8563 2.27321 25.9849 2.30268C26.4381 2.47523 26.8309 2.77661 27.1149 3.16968C27.2449 3.31868 27.3459 3.39668 27.5579 3.30268C27.7919 3.19668 27.9269 3.29168 27.9889 3.54368C28.0279 3.69968 28.0679 3.85368 28.0979 4.01168C28.1153 4.08702 28.1063 4.16604 28.0724 4.23556C28.0386 4.30507 27.9819 4.36088 27.9119 4.39368C27.7119 4.51368 27.5119 4.63068 27.3119 4.75768C27.2084 4.82577 27.1285 4.92423 27.0832 5.03954C27.0379 5.15484 27.0294 5.28135 27.0589 5.40168C27.0849 5.46857 27.1266 5.5282 27.1806 5.57547C27.2346 5.62273 27.2992 5.65625 27.369 5.67314C27.4387 5.69004 27.5115 5.68982 27.5812 5.6725C27.6508 5.65518 27.7152 5.62127 27.7689 5.57368C27.8994 5.48119 28.0107 5.36439 28.0969 5.22968C28.1323 5.14869 28.1895 5.07913 28.2621 5.02876C28.3348 4.97839 28.42 4.94919 28.5082 4.94442C28.5965 4.93965 28.6843 4.9595 28.762 5.00174C28.8396 5.04399 28.904 5.10698 28.9479 5.18368C29.0237 5.30007 29.1275 5.39558 29.2498 5.46145C29.3721 5.52731 29.509 5.56143 29.6479 5.56068C29.6899 5.56273 29.7317 5.5539 29.7693 5.53503C29.8069 5.51617 29.839 5.48791 29.8624 5.45299C29.8859 5.41808 29.8999 5.3777 29.9031 5.33577C29.9064 5.29384 29.8987 5.25178 29.8809 5.21368C29.8099 5.0449 29.6757 4.91063 29.5069 4.83968C29.3173 4.75393 29.1515 4.62314 29.0239 4.45868C28.9342 4.22499 28.8845 3.97787 28.8769 3.72768C28.8712 3.63317 28.8803 3.53836 28.9039 3.44668C28.9087 3.38474 28.9257 3.32437 28.954 3.26907C28.9823 3.21377 29.0214 3.16464 29.0688 3.12454C29.1163 3.08444 29.1712 3.05417 29.2304 3.03548C29.2897 3.0168 29.352 3.01006 29.4139 3.01568C29.8849 3.02668 29.9839 2.96268 30.1039 2.50468C30.1364 2.19161 30.2665 1.89669 30.4759 1.66168C30.6766 1.49656 30.8929 1.35153 31.1219 1.22868C31.1749 1.19768 31.2839 1.24668 31.3629 1.27468C31.6218 1.37771 31.8469 1.55083 32.0129 1.77462C32.179 1.9984 32.2794 2.26402 32.3029 2.54168C32.3739 2.90068 32.5149 3.02368 32.8819 3.01968C33.3089 3.01368 33.4919 3.19168 33.4979 3.61968C33.4944 3.6863 33.4944 3.75306 33.4979 3.81968C33.5441 4.04875 33.4994 4.28681 33.3732 4.48351C33.2471 4.68021 33.0494 4.82013 32.8219 4.87368C32.7257 4.90205 32.6418 4.96195 32.5838 5.04375C32.5258 5.12556 32.4969 5.2245 32.5019 5.32468C32.4982 5.36492 32.5043 5.40546 32.5195 5.44288C32.5348 5.4803 32.5588 5.51349 32.5896 5.53967C32.6204 5.56585 32.657 5.58424 32.6964 5.59329C32.7358 5.60234 32.7768 5.60179 32.8159 5.59168C33.0531 5.54185 33.2654 5.4106 33.4159 5.22068C33.7089 4.83768 34.0269 4.85168 34.2989 5.25868C34.4187 5.45421 34.608 5.59713 34.8289 5.65868C34.8956 5.682 34.9673 5.68688 35.0365 5.67278C35.1058 5.65869 35.1699 5.62615 35.2222 5.57862C35.2744 5.53108 35.3128 5.4703 35.3334 5.40272C35.3539 5.33514 35.3558 5.26326 35.3389 5.19468C35.3224 5.09018 35.2813 4.99112 35.2188 4.90573C35.1564 4.82033 35.0745 4.75107 34.9799 4.70368C34.8079 4.61168 34.6439 4.50368 34.4799 4.39468C34.4252 4.36034 34.3785 4.31464 34.3429 4.26068C34.2856 3.94133 34.3498 3.6121 34.5229 3.33768C34.6412 3.2901 34.7727 3.28725 34.8929 3.32968C34.9465 3.35943 35.0095 3.36761 35.069 3.35256C35.1284 3.33751 35.1799 3.30036 35.2129 3.24868C35.3269 3.10868 35.4639 2.98468 35.5839 2.84868C35.8459 2.56166 36.1868 2.35848 36.5639 2.26468C36.6446 2.26004 36.7254 2.2709 36.8019 2.29668C36.7799 2.36076 36.7507 2.42215 36.7149 2.47968C36.1533 3.13597 35.7608 3.91978 35.5719 4.76268C35.3769 5.62131 35.2959 6.50188 35.3309 7.38168C35.3469 7.69568 35.3309 7.70168 35.0189 7.70168C34.2189 7.70168 33.4109 7.70168 32.6049 7.69568C31.7049 7.68668 30.7969 7.67968 29.8909 7.66568C29.3069 7.65768 28.7199 7.62768 28.1339 7.62768C27.8609 7.62768 27.5879 7.68568 27.3139 7.69868C27.0779 7.70968 27.0549 7.65968 27.0549 7.42068C27.094 6.80868 27.056 6.19421 26.9419 5.59168C26.8109 5.07968 26.7419 4.55268 26.5929 4.04868C26.4026 3.49693 26.1068 2.98746 25.7219 2.54868C25.6699 2.47968 25.6219 2.40868 25.5659 2.33968C25.5809 2.29868 25.5879 2.26768 25.5949 2.23668Z" fill="#0E2253"/>
<path fill-rule="evenodd" clip-rule="evenodd" d="M20.4099 12.3097C20.3759 12.4097 20.3489 12.5097 20.3099 12.6097C20.1215 13.0206 20.0821 13.4842 20.1986 13.921C20.315 14.3577 20.58 14.7402 20.9479 15.0027C21.3502 15.2464 21.8163 15.3634 22.2859 15.3387C23.1539 15.3448 24.0202 15.2637 24.8719 15.0967C25.4086 14.997 25.9607 15.0163 26.4891 15.1533C27.0175 15.2903 27.5094 15.5417 27.9299 15.8897C28.0579 15.9897 28.0779 16.1177 27.9109 16.1697C27.6158 16.2588 27.3152 16.3283 27.0109 16.3777C26.9509 16.3877 26.8699 16.3117 26.8109 16.2617C26.5649 16.0617 26.3259 15.8547 26.0819 15.6497C26.0659 15.6617 26.0489 15.6737 26.0319 15.6857C26.2009 15.9147 26.3689 16.1417 26.5399 16.3697C26.5319 16.3937 26.5239 16.4187 26.5179 16.4427C26.2795 16.4282 26.0422 16.4002 25.8069 16.3587C25.7469 16.3447 25.7069 16.1957 25.6799 16.1007C25.6705 16.0321 25.6705 15.9624 25.6799 15.8937C25.2739 16.0097 24.8909 16.1317 24.5019 16.2247C23.8719 16.3767 23.2429 16.5247 22.6079 16.6467C21.9442 16.7606 21.2616 16.6731 20.6479 16.3957C20.1486 16.2204 19.7161 15.8944 19.4099 15.4627C19.2309 15.1813 19.1283 14.858 19.1123 14.5248C19.0963 14.1916 19.1676 13.86 19.3189 13.5627C19.5128 13.1107 19.8033 12.7066 20.1699 12.3787C20.2289 12.3338 20.2918 12.2943 20.3579 12.2607C20.3649 12.2767 20.3889 12.2937 20.4099 12.3097Z" fill="#0E2253"/>
<path fill-rule="evenodd" clip-rule="evenodd" d="M26.4119 12.8966C26.8007 12.893 27.1816 13.0066 27.5049 13.2226C27.6175 13.3205 27.709 13.4404 27.7738 13.5748C27.8387 13.7092 27.8754 13.8555 27.8819 14.0046C27.9709 14.4476 28.0309 14.8956 28.0979 15.3416C28.1069 15.3936 28.0979 15.4896 28.0779 15.4976C28.049 15.5073 28.0183 15.5107 27.988 15.5076C27.9576 15.5045 27.9283 15.4949 27.9019 15.4796C27.4848 15.1848 27.0107 14.9804 26.5099 14.8796C26.2738 14.8349 26.0342 14.8108 25.7939 14.8076C25.7595 14.8114 25.7246 14.8075 25.6918 14.7962C25.659 14.785 25.6291 14.7666 25.6042 14.7424C25.5794 14.7182 25.5602 14.6888 25.548 14.6564C25.5359 14.6239 25.5311 14.5891 25.5339 14.5546C25.5129 14.2876 25.4469 14.0186 25.4519 13.7546C25.4629 13.2126 25.5179 13.0076 26.0849 12.9356C26.1929 12.9136 26.2989 12.9026 26.4119 12.8966Z" fill="#0E2253"/>
<path fill-rule="evenodd" clip-rule="evenodd" d="M7.37709 6.8367C7.2468 6.83225 7.11878 6.80143 7.00075 6.74609C6.88271 6.69075 6.77713 6.61205 6.69038 6.51474C6.60364 6.41743 6.53752 6.30353 6.49605 6.17995C6.45458 6.05636 6.43861 5.92564 6.4491 5.7957C6.5491 5.0767 6.42209 4.7827 5.58109 4.3957C5.54209 4.3777 5.48809 4.3777 5.46109 4.3487C5.42248 4.29992 5.38897 4.24731 5.36108 4.1917C5.41208 4.1617 5.4671 4.1037 5.5181 4.1087C5.72787 4.12094 5.93607 4.15241 6.14009 4.2027C6.85384 4.40325 7.48222 4.83213 7.92909 5.4237C8.02054 5.5198 8.08746 5.63654 8.12419 5.76402C8.16092 5.89149 8.16638 6.02595 8.14008 6.15598C8.11378 6.28601 8.0565 6.40778 7.97311 6.51096C7.88973 6.61414 7.7827 6.69569 7.66109 6.7487C7.57026 6.78922 7.47492 6.81876 7.37709 6.8367Z" fill="#0E2253"/>
<path fill-rule="evenodd" clip-rule="evenodd" d="M3.41295 32.3279C3.85638 32.3161 4.29311 32.438 4.66637 32.6777C5.03963 32.9174 5.33215 33.2638 5.50594 33.6719C5.56494 33.7745 5.58197 33.8959 5.55345 34.0107C5.52493 34.1256 5.45307 34.2249 5.35294 34.2879C5.19245 34.4191 4.98643 34.4812 4.78017 34.4606C4.5739 34.44 4.38427 34.3383 4.25294 34.1779C4.0706 34.0019 3.91102 33.8037 3.77794 33.5879C3.55086 33.2119 3.22227 32.9076 2.82994 32.7099C2.75755 32.6592 2.69288 32.5982 2.63794 32.5289C2.71343 32.4592 2.80037 32.4031 2.89494 32.3629C3.06652 32.3386 3.23966 32.3269 3.41295 32.3279Z" fill="#0E2253"/>
<path fill-rule="evenodd" clip-rule="evenodd" d="M25.101 13.231C25.1324 13.292 25.1556 13.3569 25.17 13.424C25.183 13.665 25.19 13.907 25.193 14.15C25.1862 14.2181 25.1714 14.2852 25.149 14.35C25.091 14.328 25.015 14.322 24.978 14.281C24.804 14.094 24.636 13.902 24.478 13.702C24.449 13.666 24.457 13.543 24.484 13.529C24.67 13.431 24.862 13.346 25.101 13.231Z" fill="#0E2253"/>
<path d="M71.7061 5.39404H74.1111V20.141H83.2271V22.233H71.7061V5.39404Z" fill="#0E2253"/>
<path d="M83.3469 13.8161C83.3469 8.8811 87.1469 5.2041 92.3189 5.2041C97.4429 5.2041 101.243 8.8581 101.243 13.8161C101.243 18.7741 97.4429 22.4261 92.3189 22.4261C87.1489 22.4281 83.3469 18.7441 83.3469 13.8161ZM98.8369 13.8161C98.852 12.5178 98.4805 11.2444 97.7697 10.1579C97.0588 9.07144 96.0408 8.221 94.8452 7.71484C93.6495 7.20867 92.3303 7.06967 91.0555 7.31551C89.7806 7.56136 88.6077 8.18094 87.686 9.09541C86.7643 10.0099 86.1355 11.1779 85.8797 12.4508C85.6238 13.7237 85.7524 15.0439 86.2492 16.2435C86.746 17.4431 87.5884 18.4678 88.6693 19.1871C89.7501 19.9065 91.0206 20.288 92.3189 20.2831C93.1778 20.31 94.0332 20.1615 94.8328 19.8466C95.6324 19.5318 96.3594 19.0573 96.9694 18.452C97.5794 17.8468 98.0596 17.1235 98.3807 16.3265C98.7018 15.5294 98.8571 14.6752 98.8369 13.8161Z" fill="#0E2253"/>
<path d="M118.44 5.39404V22.233H116.468L106.368 9.67604V22.233H103.961V5.39404H105.936L116.036 17.95V5.39404H118.44Z" fill="#0E2253"/>
<path d="M122.053 5.39404H129.147C134.559 5.39404 138.24 8.80904 138.24 13.816C138.24 18.823 134.559 22.233 129.147 22.233H122.053V5.39404ZM129.004 20.141C133.165 20.141 135.834 17.591 135.834 13.816C135.834 10.041 133.165 7.49004 129.004 7.49004H124.453V20.141H129.004Z" fill="#0E2253"/>
<path d="M140.062 13.8161C140.062 8.8811 143.862 5.2041 149.036 5.2041C154.158 5.2041 157.959 8.8581 157.959 13.8161C157.959 18.7741 154.159 22.4261 149.036 22.4261C143.864 22.4281 140.062 18.7441 140.062 13.8161ZM155.553 13.8161C155.568 12.5181 155.196 11.2449 154.485 10.1587C153.775 9.07256 152.757 8.2224 151.561 7.71646C150.366 7.21053 149.047 7.07169 147.772 7.31761C146.497 7.56353 145.325 8.1831 144.403 9.09747C143.482 10.0118 142.853 11.1797 142.598 12.4524C142.342 13.725 142.471 15.045 142.967 16.2444C143.464 17.4437 144.306 18.4682 145.387 19.1874C146.468 19.9065 147.738 20.288 149.036 20.2831C149.895 20.31 150.75 20.1615 151.55 19.8466C152.349 19.5318 153.076 19.0573 153.686 18.452C154.296 17.8467 154.776 17.1235 155.097 16.3264C155.418 15.5293 155.573 14.6751 155.553 13.8161Z" fill="#0E2253"/>
<path d="M175.156 5.39404V22.233H173.184L163.084 9.67604V22.233H160.676V5.39404H162.65L172.75 17.95V5.39404H175.156Z" fill="#0E2253"/>
<path d="M70.168 44.3211L71.057 42.4441C72.6249 43.7229 74.5908 44.4128 76.614 44.3941C79.524 44.3941 80.775 43.2621 80.775 41.7941C80.775 37.6811 70.575 40.2771 70.575 34.0231C70.575 31.4231 72.598 29.2111 77.022 29.2111C78.9324 29.1761 80.8122 29.6943 82.435 30.7031L81.639 32.6271C80.2591 31.7444 78.658 31.2692 77.02 31.2561C74.157 31.2561 72.933 32.4561 72.933 33.9271C72.933 38.0391 83.133 35.4671 83.133 41.6471C83.133 44.2211 81.066 46.4331 76.616 46.4331C74.2862 46.5021 72.0055 45.7551 70.168 44.3211Z" fill="#B90722"/>
<path d="M89.7429 31.5002H83.9729V29.4082H97.8989V31.5002H92.1259V46.2472H89.7429V31.5002Z" fill="#B90722"/>
<path d="M111.778 46.2472L108.146 41.0762C107.807 41.0992 107.446 41.1242 107.087 41.1242H102.925V46.2472H100.519V29.4082H107.087C111.463 29.4082 114.11 31.6202 114.11 35.2792C114.165 36.4496 113.831 37.6053 113.161 38.5665C112.491 39.5277 111.522 40.2406 110.405 40.5942L114.401 46.2472H111.778ZM111.701 35.2792C111.701 32.8732 110.089 31.5002 107.011 31.5002H102.922V39.0762H107.011C110.092 39.0762 111.701 37.6842 111.701 35.2792Z" fill="#B90722"/>
<path d="M128.735 42.0372H119.788L117.932 46.2472H115.458L123.083 29.4092H125.463L133.113 46.2472H130.585L128.735 42.0372ZM127.894 40.1122L124.261 31.8622L120.63 40.1122H127.894Z" fill="#B90722"/>
<path d="M138.115 31.5002H132.341V29.4082H146.268V31.5002H140.497V46.2472H138.115V31.5002Z" fill="#B90722"/>
<path d="M161.108 44.1522V46.2472H148.889V29.4082H160.773V31.5002H151.295V36.6722H159.735V38.7172H151.295V44.1522H161.108Z" fill="#B90722"/>
<path d="M176.601 37.7271H178.908V44.2931C177.097 45.7255 174.844 46.4825 172.535 46.4341C167.364 46.4341 163.565 42.8021 163.565 37.8211C163.565 32.8401 167.365 29.2111 172.584 29.2111C173.785 29.1589 174.984 29.3638 176.1 29.8122C177.216 30.2606 178.224 30.9421 179.055 31.8111L177.563 33.3021C176.923 32.6637 176.161 32.1619 175.321 31.827C174.482 31.4922 173.583 31.3313 172.68 31.3541C171.811 31.322 170.945 31.4653 170.133 31.7752C169.321 32.0852 168.579 32.5555 167.953 33.1582C167.326 33.7609 166.828 34.4836 166.486 35.2832C166.145 36.0828 165.969 36.9429 165.967 37.8122C165.966 38.6815 166.139 39.5422 166.477 40.343C166.816 41.1438 167.312 41.8682 167.936 42.4731C168.56 43.0781 169.3 43.5511 170.111 43.8639C170.922 44.1768 171.788 44.3231 172.657 44.2941C174.049 44.3265 175.421 43.9503 176.602 43.2121L176.601 37.7271Z" fill="#B90722"/>
<path d="M189.948 40.4252V46.2472H187.565V40.3772L180.879 29.4082H183.454L188.84 38.2842L194.253 29.4082H196.631L189.948 40.4252Z" fill="#B90722"/>
<path d="M70.334 61.8382C70.334 56.8602 74.134 53.2282 79.259 53.2282C80.4514 53.181 81.6401 53.3907 82.7444 53.8433C83.8486 54.2959 84.8426 54.9807 85.659 55.8512L84.092 57.3642C83.4902 56.7133 82.7564 56.1982 81.9398 55.8533C81.1231 55.5084 80.2422 55.3417 79.356 55.3642C78.4927 55.3427 77.6338 55.4942 76.8299 55.8098C76.026 56.1253 75.2934 56.5986 74.6752 57.2016C74.057 57.8046 73.5657 58.5252 73.2303 59.321C72.8949 60.1168 72.7221 60.9716 72.7221 61.8352C72.7221 62.6988 72.8949 63.5537 73.2303 64.3494C73.5657 65.1452 74.057 65.8658 74.6752 66.4688C75.2934 67.0719 76.026 67.5451 76.8299 67.8606C77.6338 68.1762 78.4927 68.3277 79.356 68.3062C80.2435 68.3245 81.1248 68.1539 81.9413 67.8057C82.7578 67.4574 83.4909 66.9395 84.092 66.2862L85.659 67.7992C84.8404 68.6749 83.8432 69.3643 82.7348 69.8207C81.6264 70.2771 80.4328 70.4897 79.235 70.4442C74.137 70.4492 70.334 66.8182 70.334 61.8382Z" fill="#0E2253"/>
<path d="M100.353 68.1639V70.2569H88.1331V53.4199H100.017V55.5119H90.5391V60.6849H98.9821V62.7289H90.5391V68.1639H100.353Z" fill="#0E2253"/>
<path d="M117.768 53.4199V70.2579H115.794L105.694 57.7019V70.2579H103.289V53.4199H105.262L115.362 65.9749V53.4199H117.768Z" fill="#0E2253"/>
<path d="M125.197 55.5119H119.424V53.4199H133.353V55.5119H127.578V70.2579H125.197V55.5119Z" fill="#0E2253"/>
<path d="M146.268 70.2579L142.637 65.0859C142.3 65.1099 141.937 65.1349 141.579 65.1349H137.417V70.2579H135.012V53.4199H141.579C145.954 53.4199 148.602 55.6329 148.602 59.2879C148.657 60.4578 148.325 61.6132 147.656 62.5745C146.986 63.5357 146.018 64.2488 144.902 64.6029L148.893 70.2569L146.268 70.2579ZM146.196 59.2889C146.196 56.8839 144.585 55.5129 141.506 55.5129H137.417V63.0909H141.506C144.585 63.0899 146.196 61.6959 146.196 59.2889Z" fill="#0E2253"/>
<path d="M163.754 68.1639V70.2569H151.535V53.4199H163.417V55.5119H153.94V60.6849H162.382V62.7289H153.94V68.1639H163.754Z" fill="#0E2253"/>
<path d="M63.7081 0H62.6841V77.808H63.7081V0Z" fill="#B90722"/>
</svg>
