<svg width="122" height="48" viewBox="0 0 122 48" fill="none" xmlns="http://www.w3.org/2000/svg">
<path fill-rule="evenodd" clip-rule="evenodd" d="M0 24.312C0.0573773 24.1434 0.124145 23.9781 0.199997 23.817C0.289909 23.6373 0.419413 23.4803 0.578766 23.3578C0.738119 23.2353 0.923185 23.1506 1.12001 23.11C1.203 23.094 1.28852 23.0969 1.37022 23.1186C1.45193 23.1402 1.52771 23.18 1.5919 23.235C1.6561 23.2899 1.70707 23.3587 1.74103 23.4361C1.77498 23.5135 1.79104 23.5975 1.78801 23.682C1.78501 23.717 1.79342 23.7521 1.812 23.782C1.82662 23.7622 1.8381 23.7403 1.84601 23.717C1.87247 23.5582 1.84124 23.3952 1.75797 23.2575C1.67469 23.1197 1.54488 23.0164 1.392 22.966C1.218 22.902 1.217 22.886 1.339 22.743C1.46816 22.5791 1.64834 22.4629 1.851 22.413C1.951 22.392 2.07 22.46 2.181 22.486C2.35591 22.541 2.53524 22.5808 2.717 22.605C3.062 22.624 3.41 22.622 3.755 22.605C4.03574 22.5775 4.29676 22.4484 4.489 22.242C4.512 22.219 4.50501 22.163 4.51201 22.122C4.46801 22.122 4.412 22.095 4.383 22.115C4.10883 22.3157 3.78061 22.4293 3.44101 22.441C3.28461 22.4461 3.12821 22.4303 2.976 22.394C2.642 22.325 2.315 22.224 1.976 22.169C1.87755 22.1623 1.78288 22.1285 1.70245 22.0713C1.62202 22.0142 1.55897 21.9359 1.52026 21.8451C1.48156 21.7543 1.46871 21.6546 1.48314 21.557C1.49756 21.4594 1.5387 21.3677 1.60201 21.292C1.7606 21.104 1.93381 20.9287 2.12001 20.768C2.18901 20.702 2.22001 20.763 2.24901 20.82C2.34925 21.0331 2.50635 21.2144 2.703 21.344C2.78247 21.3951 2.87262 21.4274 2.96651 21.4381C3.06039 21.4489 3.1555 21.438 3.24449 21.4062C3.33349 21.3744 3.41398 21.3226 3.47978 21.2548C3.54558 21.187 3.59493 21.1049 3.62401 21.015C3.65101 20.901 3.706 20.922 3.78 20.968C4.004 21.109 4.22501 21.258 4.45801 21.383C4.90604 21.6157 5.42265 21.6799 5.914 21.564C6.81161 21.3489 7.65519 20.951 8.392 20.395C9.35069 19.7072 10.2689 18.9646 11.142 18.171C11.2162 18.1129 11.2867 18.0501 11.353 17.983C11.377 17.956 11.369 17.898 11.375 17.856C11.335 17.856 11.285 17.848 11.256 17.868C10.9227 18.1127 10.5893 18.3607 10.256 18.612C10.146 18.696 10.096 18.692 10.083 18.553C10.0519 18.2822 10.0402 18.0095 10.048 17.737C10.0707 17.5916 10.1291 17.4542 10.2179 17.3369C10.3067 17.2196 10.4232 17.1262 10.557 17.065C10.711 16.965 10.878 16.886 11.039 16.794C11.0736 16.7718 11.107 16.7478 11.139 16.722C10.6977 16.5828 10.2264 16.5697 9.778 16.684C9.34349 16.8039 8.94402 17.0261 8.61301 17.332C8.56556 17.1265 8.57073 16.9124 8.62807 16.7094C8.6854 16.5065 8.79305 16.3213 8.94101 16.171C9.29206 15.9314 9.72076 15.8335 10.141 15.897C10.141 15.883 10.141 15.868 10.141 15.855C10.012 15.822 9.881 15.788 9.752 15.755C9.36837 15.6561 8.9731 15.6097 8.577 15.617C8.53024 15.6117 8.48466 15.5989 8.442 15.579C8.466 15.541 8.482 15.489 8.517 15.465C8.725 15.327 8.938 15.195 9.149 15.065C9.163 15.055 9.185 15.053 9.196 15.041C9.224 15.009 9.24901 14.972 9.27501 14.941C9.22893 14.9257 9.18053 14.9186 9.132 14.92C8.975 14.955 8.82101 15.005 8.66501 15.045C8.51143 15.0891 8.35058 15.1021 8.19191 15.0832C8.03324 15.0643 7.87993 15.0139 7.741 14.935C7.847 14.835 7.928 14.764 8.008 14.691C8.175 14.54 8.345 14.391 8.508 14.239C8.535 14.215 8.54201 14.17 8.55701 14.139C8.51701 14.139 8.464 14.11 8.437 14.127C8.086 14.3063 7.71466 14.4426 7.33101 14.533C7.07798 14.5907 6.84452 14.7138 6.65401 14.89C6.64067 14.8994 6.62551 14.906 6.6095 14.9093C6.59349 14.9125 6.57698 14.9124 6.561 14.909C6.549 14.909 6.53701 14.859 6.53801 14.833C6.55164 14.5907 6.62142 14.3549 6.74187 14.1442C6.86231 13.9335 7.03012 13.7537 7.23201 13.619C7.34644 13.5487 7.46814 13.4911 7.595 13.447C7.62463 13.4257 7.65121 13.4005 7.674 13.372C7.64 13.358 7.60401 13.326 7.57401 13.33C7.44601 13.348 7.321 13.388 7.192 13.398C6.9866 13.4326 6.77559 13.4075 6.58398 13.3258C6.39238 13.2441 6.22824 13.1092 6.11101 12.937C6.01947 12.7865 5.97264 12.6131 5.976 12.437C5.976 12.414 5.995 12.39 6.004 12.366C6.131 12.444 6.24701 12.527 6.37401 12.588C6.4787 12.6472 6.59918 12.6725 6.71883 12.6603C6.83847 12.6481 6.95139 12.5991 7.04201 12.52C7.12717 12.4273 7.18452 12.3124 7.2075 12.1887C7.23049 12.0649 7.21818 11.9371 7.172 11.82C6.98557 11.41 6.73847 11.0304 6.439 10.694C6.384 10.623 6.33201 10.553 6.26401 10.462L6.164 10.921C6.14897 11.0294 6.10598 11.132 6.03925 11.2187C5.97251 11.3054 5.88435 11.3733 5.78343 11.4155C5.68251 11.4578 5.57233 11.4731 5.46371 11.4599C5.3551 11.4466 5.2518 11.4053 5.164 11.34C5.27352 11.2337 5.35154 11.0991 5.38948 10.9513C5.42742 10.8034 5.42379 10.6479 5.379 10.502C5.36097 10.4454 5.32855 10.3944 5.2849 10.3541C5.24125 10.3138 5.18788 10.2855 5.13 10.272C5.14101 10.3 5.142 10.318 5.151 10.328C5.21407 10.3947 5.2602 10.4755 5.28551 10.5637C5.31081 10.652 5.31456 10.745 5.29643 10.8349C5.2783 10.9249 5.23882 11.0092 5.18132 11.0807C5.12382 11.1523 5.04997 11.209 4.966 11.246C4.79642 11.3195 4.61104 11.3491 4.427 11.332C4.17958 11.3212 3.93886 11.2483 3.72701 11.12C3.68712 11.0896 3.64967 11.0562 3.61501 11.02C3.66666 11.0055 3.71956 10.9958 3.77301 10.991C3.86364 10.9941 3.95339 10.9724 4.03265 10.9284C4.11192 10.8843 4.17772 10.8196 4.22301 10.741C4.27201 10.67 4.316 10.598 4.358 10.524C4.371 10.499 4.385 10.455 4.373 10.438C4.32325 10.3442 4.29299 10.2414 4.28403 10.1356C4.27506 10.0298 4.28759 9.92336 4.32085 9.82256C4.3541 9.72176 4.40739 9.62873 4.47754 9.54907C4.54768 9.4694 4.63322 9.40475 4.729 9.359C4.915 9.272 5.10601 9.195 5.29601 9.12C5.36601 9.093 5.37 9.061 5.323 9.013C5.09421 8.76684 4.79605 8.59597 4.468 8.523C4.123 8.452 3.76801 8.423 3.41701 8.37C3.11541 8.35377 2.82424 8.25407 2.576 8.082C2.48095 7.9994 2.40399 7.89804 2.34996 7.7843C2.29593 7.67055 2.26599 7.54687 2.26201 7.421C2.25001 7.31 2.17601 7.187 2.29401 7.084C2.27793 7.04839 2.25479 7.01642 2.226 6.99C2.014 6.83 1.80101 6.672 1.58701 6.515C1.52901 6.473 1.51401 6.427 1.58701 6.394C1.92622 6.19621 2.3159 6.10201 2.70801 6.123C2.78898 6.12807 2.86765 6.15201 2.93771 6.19292C3.00778 6.23383 3.06729 6.29057 3.11151 6.35859C3.15573 6.42662 3.18341 6.50405 3.19235 6.58469C3.20129 6.66533 3.19125 6.74694 3.16301 6.823C3.15191 6.85301 3.15191 6.88599 3.16301 6.916C3.18371 6.89545 3.20245 6.87301 3.21901 6.849C3.26481 6.75217 3.28561 6.64542 3.27953 6.53848C3.27344 6.43154 3.24065 6.32783 3.18416 6.23683C3.12767 6.14582 3.04928 6.07043 2.95615 6.01753C2.86301 5.96463 2.7581 5.93591 2.651 5.934C2.60465 5.92828 2.55904 5.91754 2.515 5.902C2.52873 5.8543 2.54928 5.80883 2.576 5.767C2.66186 5.6771 2.76854 5.60973 2.88661 5.57084C3.00469 5.53194 3.13053 5.52273 3.25301 5.544C3.49389 5.58038 3.71641 5.69409 3.88701 5.868C4.44651 6.32904 5.0596 6.72087 5.713 7.035C6.057 7.21 6.41301 7.363 6.76401 7.522C6.79601 7.536 6.843 7.522 6.883 7.514C6.86449 7.48317 6.84159 7.45521 6.815 7.431C6.326 7.113 5.834 6.798 5.345 6.478C4.83923 6.11157 4.29296 5.80455 3.717 5.563C3.68707 5.55301 3.66044 5.53503 3.64 5.511C3.47947 5.32473 3.33338 5.12649 3.203 4.918C3.09937 4.75324 3.05869 4.5566 3.08846 4.36424C3.11822 4.17188 3.21642 3.99674 3.36501 3.871C3.477 3.76713 3.59558 3.6706 3.72 3.582C3.75703 3.56325 3.79637 3.54946 3.83701 3.541C3.82021 3.64822 3.82708 3.75782 3.85713 3.86211C3.88718 3.9664 3.93968 4.06285 4.01096 4.1447C4.08223 4.22655 4.17055 4.29181 4.26971 4.33591C4.36888 4.38002 4.47649 4.40189 4.58501 4.4C4.93501 4.4 5.129 4.181 5.244 3.652C5.29132 3.66944 5.33633 3.69261 5.37801 3.721C5.72338 4.0387 6.00625 4.41824 6.21201 4.84C6.33201 5.079 6.39801 5.345 6.51201 5.588C6.65901 5.906 6.82901 6.212 6.98801 6.523C7.02601 6.595 7.05901 6.669 7.10001 6.739C7.12919 6.78474 7.1609 6.82881 7.19501 6.871L7.243 6.846C7.207 6.751 7.178 6.654 7.134 6.562C6.868 5.99 6.596 5.418 6.334 4.844C6.28753 4.75602 6.26225 4.6584 6.26016 4.55892C6.25808 4.45944 6.27926 4.36085 6.32201 4.271C6.37516 4.1903 6.45098 4.12712 6.53995 4.08939C6.62891 4.05167 6.72705 4.0411 6.82201 4.059C7.03361 4.06438 7.23915 4.1307 7.414 4.25C7.426 4.262 7.467 4.259 7.487 4.25C7.66 4.164 7.83601 4.083 8.00101 3.983C8.07001 3.942 8.114 3.86 8.174 3.802C8.19731 3.77736 8.22838 3.76147 8.26201 3.757C8.27701 3.757 8.30501 3.798 8.30901 3.825C8.3602 4.01955 8.35705 4.22441 8.29993 4.41729C8.2428 4.61018 8.13388 4.78371 7.985 4.919C7.94116 4.96931 7.88684 5.00941 7.82585 5.03648C7.76486 5.06355 7.69869 5.07693 7.63197 5.07569C7.56526 5.07445 7.49962 5.05862 7.43968 5.0293C7.37974 4.99999 7.32694 4.9579 7.285 4.906C7.277 4.896 7.26301 4.894 7.25101 4.886C7.25201 4.94228 7.27071 4.99682 7.30446 5.04187C7.3382 5.08692 7.38527 5.12021 7.439 5.137C7.56553 5.17616 7.69963 5.18439 7.83 5.161C7.93 5.138 7.97701 5.161 8.00101 5.241C8.07273 5.47197 8.12886 5.7075 8.16901 5.946C8.20496 6.21106 8.21533 6.47896 8.2 6.746C8.18456 7.12514 8.2523 7.50305 8.39845 7.85322C8.5446 8.20339 8.76562 8.51734 9.04601 8.773C9.925 9.689 10.814 10.597 11.701 11.507C12.3617 12.1843 13.023 12.8607 13.685 13.536C13.71 13.559 13.736 13.579 13.771 13.609C13.777 13.4494 13.791 13.2902 13.813 13.132C13.8589 12.8392 13.9878 12.5658 14.1846 12.3442C14.3814 12.1226 14.6377 11.9621 14.923 11.882C15.0014 11.8601 15.0833 11.8543 15.164 11.865C15.4382 11.8838 15.7128 11.8354 15.964 11.724C16.0557 11.7008 16.1524 11.7074 16.24 11.743C16.408 11.7718 16.5808 11.7447 16.732 11.666C16.786 11.65 16.839 11.63 16.895 11.611C16.931 11.744 16.953 11.862 16.995 11.974C17.0651 12.123 17.1687 12.2537 17.2978 12.3559C17.4269 12.4581 17.5779 12.529 17.739 12.563C17.7644 12.5636 17.7897 12.5584 17.8128 12.5476C17.8358 12.5368 17.8561 12.5209 17.872 12.501C17.88 12.4796 17.8832 12.4567 17.8815 12.4339C17.8798 12.4111 17.8731 12.389 17.862 12.369C17.819 12.286 17.752 12.215 17.711 12.132C17.6589 12.0139 17.6382 11.8845 17.6508 11.7561C17.6634 11.6276 17.709 11.5047 17.783 11.399L17.797 11.376L17.92 11.227C17.9429 11.2849 17.9714 11.3405 18.005 11.393C18.113 11.529 18.223 11.664 18.343 11.793C18.4054 11.8541 18.4831 11.8973 18.568 11.918C18.512 11.794 18.468 11.666 18.402 11.544C18.3677 11.4747 18.3577 11.3959 18.3736 11.3202C18.3896 11.2446 18.4306 11.1765 18.49 11.127C18.6037 11.0213 18.6784 10.8804 18.702 10.727C18.707 10.669 18.702 10.611 18.702 10.552L18.751 10.538C18.863 10.675 18.976 10.811 19.087 10.949C19.2174 11.0894 19.3794 11.1968 19.5596 11.2621C19.7397 11.3275 19.9329 11.3491 20.123 11.325C20.0871 11.2827 20.0483 11.243 20.007 11.206C19.8551 11.1149 19.7369 10.977 19.67 10.813C19.6447 10.7322 19.6292 10.6486 19.624 10.564C19.6077 10.4122 19.605 10.2593 19.616 10.107C19.6403 9.98442 19.6775 9.86476 19.727 9.75C19.7801 9.58906 19.7867 9.41638 19.746 9.25185C19.7053 9.08733 19.619 8.93763 19.497 8.82C19.4647 8.78107 19.4365 8.73884 19.413 8.694C19.4597 8.67624 19.5079 8.66252 19.557 8.653C19.661 8.63691 19.7604 8.59888 19.8485 8.54144C19.9367 8.48401 20.0116 8.40847 20.0684 8.31986C20.1251 8.23124 20.1624 8.13157 20.1777 8.02746C20.1929 7.92335 20.1859 7.81718 20.157 7.716C20.125 7.758 20.093 7.8 20.047 7.858C20.21 7.926 20.168 8.022 20.135 8.107C20.0806 8.24562 19.9867 8.36519 19.8649 8.45088C19.7431 8.53657 19.5988 8.5846 19.45 8.589C19.3414 8.56943 19.2372 8.53084 19.142 8.475C18.9428 8.36887 18.7196 8.31583 18.494 8.321C18.4722 8.32171 18.4506 8.32576 18.43 8.333C18.423 8.333 18.419 8.347 18.403 8.369C18.438 8.38509 18.4746 8.39782 18.512 8.407C18.9182 8.46674 19.2853 8.68185 19.536 9.007C19.6102 9.1086 19.6551 9.22855 19.6661 9.35386C19.677 9.47918 19.6535 9.6051 19.598 9.718C19.561 9.663 19.525 9.618 19.498 9.566C19.4156 9.42607 19.3003 9.30833 19.1621 9.22295C19.0239 9.13757 18.867 9.08714 18.705 9.076C18.6829 9.07127 18.6601 9.07127 18.638 9.076C18.6016 9.09213 18.5662 9.1105 18.532 9.131C18.563 9.15628 18.5966 9.17839 18.632 9.197C18.7618 9.22824 18.8881 9.27246 19.009 9.329C19.1611 9.43413 19.2859 9.57412 19.3729 9.7373C19.4599 9.90048 19.5065 10.0821 19.509 10.267C19.5135 10.3391 19.5108 10.4114 19.501 10.483C19.4726 10.6816 19.5232 10.8834 19.642 11.045C19.6551 11.0631 19.6656 11.0829 19.673 11.104C19.673 11.111 19.673 11.121 19.668 11.149C19.536 11.1368 19.4138 11.0741 19.327 10.974C19.093 10.701 18.87 10.417 18.643 10.139C18.6135 10.0938 18.58 10.0513 18.543 10.012C18.506 9.98956 18.4654 9.97366 18.423 9.965C18.413 10.012 18.384 10.065 18.395 10.106C18.434 10.248 18.495 10.384 18.532 10.525C18.5525 10.6015 18.5527 10.682 18.5328 10.7586C18.5128 10.8352 18.4732 10.9053 18.418 10.962C18.329 11.062 18.26 11.185 18.155 11.336C18.1417 11.2699 18.1324 11.2032 18.127 11.136C18.127 11.06 18.148 10.984 18.145 10.908C18.1448 10.8871 18.1402 10.8665 18.1314 10.8475C18.1226 10.8285 18.1098 10.8117 18.094 10.798C18.073 10.7923 18.051 10.7915 18.0297 10.7957C18.0084 10.7999 17.9883 10.8089 17.971 10.822C17.7902 10.9876 17.6538 11.196 17.5745 11.4281C17.4952 11.6601 17.4754 11.9083 17.517 12.15C17.5218 12.1785 17.5218 12.2075 17.517 12.236C17.4826 12.2335 17.4488 12.2254 17.417 12.212C17.2659 12.1101 17.1605 11.9534 17.1232 11.7751C17.0859 11.5968 17.1195 11.4109 17.217 11.257C17.2475 11.2127 17.272 11.1647 17.29 11.114C17.2927 11.0917 17.2907 11.069 17.2842 11.0475C17.2776 11.026 17.2667 11.0061 17.252 10.989C17.239 10.974 17.164 10.989 17.141 11.016C17.041 11.123 16.965 11.244 16.868 11.347C16.8033 11.4055 16.7338 11.4584 16.66 11.505L16.624 11.483C16.624 11.447 16.63 11.41 16.638 11.376C16.643 11.36 16.666 11.349 16.67 11.333C16.697 11.233 16.779 11.119 16.675 11.033C16.571 10.947 16.492 11.069 16.416 11.127C16.252 11.253 16.093 11.385 15.928 11.512C15.8736 11.548 15.8164 11.5798 15.757 11.607L16.004 10.807C15.9893 10.8019 15.9749 10.7959 15.961 10.789C15.895 10.877 15.827 10.962 15.761 11.051C15.5846 11.3104 15.3203 11.4972 15.017 11.577C14.976 11.5797 14.9348 11.576 14.895 11.566C14.8996 11.5277 14.9108 11.4905 14.928 11.456C15.086 11.25 15.246 11.043 15.413 10.842C15.4997 10.7379 15.5503 10.6084 15.557 10.473C15.569 10.29 15.606 10.264 15.787 10.298C16.2493 10.3772 16.7235 10.3523 17.175 10.225C17.288 10.2079 17.3899 10.1475 17.4591 10.0566C17.5283 9.96571 17.5595 9.85146 17.546 9.738C17.512 9.425 17.471 9.114 17.427 8.803C17.409 8.67 17.376 8.539 17.352 8.403C17.3256 8.27463 17.2638 8.15625 17.1734 8.06131C17.0831 7.96637 16.9679 7.8987 16.841 7.866C16.3981 7.72691 15.9185 7.76601 15.504 7.975C15.244 8.081 14.977 8.175 14.704 8.253C14.5988 8.27787 14.4898 8.28194 14.383 8.265C14.183 8.242 14.073 8.087 14.083 7.825C14.0732 7.73245 14.092 7.6391 14.1369 7.55756C14.1817 7.47602 14.2505 7.41021 14.334 7.369C14.377 7.35 14.434 7.31 14.44 7.269C14.463 7.20028 14.4598 7.1255 14.431 7.059C14.405 7.023 14.293 7.017 14.238 7.041C14.16 7.08402 14.0918 7.14296 14.038 7.214C13.987 7.276 13.963 7.363 13.854 7.291C13.716 7.198 13.665 7.115 13.754 7.024C13.8909 6.87592 14.0457 6.74557 14.215 6.636C14.4369 6.50908 14.6663 6.39587 14.902 6.297C15.4294 6.04844 15.8909 5.67914 16.249 5.219C16.3154 5.12343 16.4058 5.0471 16.5112 4.99776C16.6166 4.94841 16.7331 4.92779 16.849 4.938C17.249 4.967 17.649 4.961 18.049 4.962C18.192 4.962 18.334 4.925 18.476 4.925C18.827 4.925 19.176 4.937 19.527 4.938C19.727 4.938 19.927 4.923 20.134 4.924C20.666 4.924 21.196 4.934 21.728 4.944C21.762 4.944 21.797 4.973 21.828 4.989C21.8129 5.02482 21.793 5.05845 21.769 5.089C21.669 5.189 21.555 5.269 21.461 5.371C21.261 5.587 21.253 5.593 20.976 5.512C21.021 5.575 21.054 5.672 21.114 5.692C21.1531 5.70117 21.1938 5.70152 21.233 5.69305C21.2723 5.68457 21.3092 5.66748 21.341 5.643C21.578 5.443 21.793 5.216 22.03 5.017C22.2895 4.80198 22.6205 4.69272 22.957 4.711C23.0422 4.71442 23.1258 4.73482 23.203 4.771C23.2573 4.79348 23.3034 4.83211 23.3351 4.88165C23.3667 4.93119 23.3824 4.98926 23.38 5.048C23.385 5.248 23.409 5.448 23.425 5.648C23.4264 5.65796 23.4305 5.66732 23.437 5.675C23.6917 5.64606 23.9496 5.67451 24.1919 5.75826C24.4341 5.84201 24.6546 5.97894 24.837 6.159C25.0932 6.44494 25.4146 6.66483 25.774 6.8C25.8728 6.83847 25.9791 6.8537 26.0847 6.84451C26.1903 6.83532 26.2924 6.80196 26.383 6.747C26.4183 6.73379 26.4554 6.72604 26.493 6.724C26.4971 6.76156 26.4971 6.79945 26.493 6.837C26.4704 6.98701 26.4045 7.12717 26.3034 7.24031C26.2024 7.35345 26.0705 7.43466 25.924 7.474C25.8442 7.50444 25.7575 7.51186 25.6737 7.49542C25.5899 7.47898 25.5124 7.43933 25.45 7.381C25.2818 7.25807 25.0905 7.17028 24.8876 7.12286C24.6847 7.07545 24.4743 7.06937 24.269 7.105C24.7565 7.21583 25.2006 7.46762 25.546 7.829C25.7166 8.00954 25.8489 8.22277 25.9348 8.45583C26.0207 8.68888 26.0586 8.93693 26.046 9.185C26.0075 9.16052 25.9719 9.13166 25.94 9.099C25.5808 8.66774 25.1069 8.34703 24.573 8.174C24.5082 8.15342 24.4409 8.14132 24.373 8.138C24.3357 8.14106 24.2991 8.15053 24.265 8.166C24.286 8.202 24.296 8.253 24.326 8.272C24.526 8.395 24.732 8.504 24.926 8.633C25.4917 8.98743 25.9204 9.52331 26.142 10.153C26.2009 10.3692 26.2414 10.59 26.263 10.813C26.2624 10.8534 26.2491 10.8926 26.225 10.925C26.0434 10.6669 25.8135 10.4465 25.548 10.276C25.2789 10.1203 24.9865 10.0089 24.682 9.946C24.682 9.958 24.672 9.968 24.666 9.979C24.752 10.03 24.837 10.079 24.924 10.129C25.4735 10.4226 25.8936 10.9108 26.102 11.498C26.277 11.978 26.473 12.451 26.662 12.926C26.811 13.2772 27.0644 13.574 27.388 13.776C27.4233 13.8104 27.4533 13.8498 27.477 13.893C27.437 13.917 27.3944 13.9365 27.35 13.951C27.2021 13.9878 27.0517 14.0139 26.9 14.029C26.6357 14.0445 26.3714 13.9965 26.1294 13.8889C25.8874 13.7814 25.6747 13.6175 25.509 13.411C25.3113 13.1841 25.1276 12.9453 24.959 12.696C24.6531 12.244 24.1858 11.9263 23.653 11.808C23.481 11.764 23.311 11.708 23.141 11.664L23.122 11.7C23.1603 11.7272 23.2 11.7522 23.241 11.775C23.7906 12.0293 24.2788 12.3994 24.672 12.86C25.2355 13.5277 25.5173 14.3883 25.458 15.26C25.426 15.7166 25.3384 16.1676 25.197 16.603C25.1783 16.6559 25.156 16.7073 25.13 16.757H25.09C25.06 16.616 25.03 16.475 25 16.335C24.8543 15.5785 24.474 14.8871 23.913 14.359C23.538 14.0289 23.1022 13.7752 22.63 13.612C22.571 13.59 22.514 13.567 22.455 13.547C22.45 13.547 22.439 13.553 22.413 13.565L22.863 13.934C23.5681 14.4829 24.0778 15.2441 24.317 16.105C24.47 16.668 24.637 17.226 24.785 17.79C24.8455 18.089 24.9529 18.3765 25.103 18.642C25.3152 18.973 25.5992 19.2519 25.934 19.458C25.9756 19.4928 26.0126 19.5328 26.044 19.577C25.9956 19.6025 25.9442 19.622 25.891 19.635C25.5329 19.6767 25.1701 19.6519 24.821 19.562C24.5138 19.4969 24.2273 19.3571 23.9869 19.155C23.7466 18.9528 23.5598 18.6945 23.443 18.403C23.3914 18.2783 23.3681 18.1438 23.375 18.009C23.3928 17.7298 23.3547 17.4498 23.2628 17.1855C23.171 16.9212 23.0272 16.6779 22.84 16.47C22.74 16.343 22.651 16.205 22.556 16.07L22.523 16.089C22.623 16.308 22.723 16.526 22.823 16.746C22.9723 17.0286 23.0532 17.3424 23.059 17.662C23.0407 17.9026 22.9906 18.1396 22.91 18.367C22.6971 18.9098 22.5765 19.4844 22.553 20.067C22.5519 20.3458 22.6102 20.6215 22.724 20.876C22.7388 20.9118 22.7423 20.9512 22.734 20.989C22.1117 20.7332 21.5816 20.2945 21.214 19.731C20.8551 19.1633 20.6712 18.5025 20.685 17.831H20.641C20.596 17.991 20.552 18.154 20.503 18.314C20.3883 18.733 20.1807 19.1208 19.8956 19.4485C19.6104 19.7762 19.2551 20.0355 18.856 20.207C18.7892 20.2298 18.7201 20.2455 18.65 20.254C18.6609 20.1863 18.6766 20.1195 18.697 20.054C18.9701 19.3361 19.0692 18.5636 18.986 17.8C18.9803 17.7335 18.978 17.6667 18.979 17.6V17.4L18.939 17.392C18.9184 17.4632 18.9024 17.5357 18.891 17.609C18.8327 18.1949 18.702 18.7713 18.502 19.325C18.2807 20.048 17.7918 20.6593 17.135 21.034C16.9585 21.1221 16.7772 21.2002 16.592 21.268C16.573 21.276 16.544 21.26 16.492 21.251C16.57 21.139 16.638 21.041 16.706 20.946C17.0049 20.5172 17.1241 19.9885 17.038 19.473C16.998 19.13 16.956 18.786 16.95 18.44C16.956 18.1255 17.0491 17.8188 17.219 17.554C17.392 17.2293 17.5472 16.8955 17.684 16.554C17.69 16.542 17.684 16.524 17.663 16.496C17.539 16.675 17.406 16.849 17.292 17.033C17.1988 17.1873 17.1147 17.3469 17.04 17.511C16.852 17.8665 16.5823 18.1722 16.253 18.403C15.9319 18.666 15.5561 18.8539 15.153 18.953C14.8139 19.0143 14.4717 19.0577 14.128 19.083C14.1 19.083 14.069 19.057 14.039 19.043C14.0563 19.0089 14.0786 18.9776 14.105 18.95C14.6736 18.5392 15.1364 17.999 15.455 17.374C15.6498 17.039 15.7781 16.6696 15.833 16.286C15.883 16.0529 15.9922 15.8366 16.15 15.658C16.3658 15.2936 16.6306 14.9605 16.937 14.668C16.9811 14.6367 17.0292 14.6114 17.08 14.593C17.1119 14.6438 17.1362 14.6991 17.152 14.757C17.177 14.98 17.187 15.205 17.211 15.428C17.2483 15.7258 17.3838 16.0028 17.596 16.215C17.8253 16.4727 18.1158 16.6685 18.4406 16.7846C18.7655 16.9006 19.1143 16.9331 19.455 16.879C19.6395 16.8486 19.8206 16.8007 19.996 16.736C20.048 16.718 20.079 16.636 20.119 16.591C20.0706 16.5426 20.0161 16.5006 19.957 16.466C19.724 16.366 19.484 16.271 19.252 16.166C19.1622 16.1224 19.0849 16.0567 19.0276 15.975C18.9702 15.8933 18.9345 15.7983 18.924 15.699C18.8569 15.4038 18.8441 15.0988 18.886 14.799C18.8904 14.6964 18.8827 14.5937 18.863 14.493C18.863 14.448 18.863 14.403 18.854 14.326C18.9735 14.4169 19.0522 14.5513 19.073 14.7C19.152 14.979 19.208 15.265 19.273 15.548C19.2808 15.5923 19.2935 15.6356 19.311 15.677C19.3216 15.7034 19.3386 15.7268 19.3605 15.745C19.3823 15.7631 19.4084 15.7756 19.4363 15.7811C19.4642 15.7867 19.4931 15.7852 19.5203 15.7768C19.5474 15.7684 19.5721 15.7533 19.592 15.733C19.6884 15.6476 19.7693 15.5461 19.831 15.433C20.0816 14.964 20.2542 14.4574 20.342 13.933C20.3872 13.6473 20.3707 13.3552 20.2938 13.0763C20.2169 12.7974 20.0813 12.5382 19.896 12.316C19.856 12.267 19.819 12.216 19.766 12.143C19.816 12.143 19.842 12.134 19.856 12.143C20.0156 12.2533 20.1511 12.395 20.2542 12.5593C20.3574 12.7237 20.426 12.9073 20.456 13.099C20.494 13.299 20.498 13.51 20.52 13.715C20.5252 13.7685 20.538 13.8211 20.558 13.871C20.606 13.971 20.713 14.014 20.788 13.935C20.8973 13.8305 20.9858 13.7064 21.049 13.569C21.1977 13.211 21.2686 12.8255 21.257 12.438C21.2454 12.0871 21.1727 11.7409 21.042 11.415C21.0314 11.3748 21.0254 11.3335 21.024 11.292C21.0682 11.2968 21.1116 11.3076 21.153 11.324C21.408 11.4841 21.709 11.5549 22.0086 11.5252C22.3082 11.4956 22.5894 11.3671 22.808 11.16C22.875 11.093 22.979 11.015 22.908 10.911C22.837 10.807 22.73 10.869 22.639 10.911C22.5102 10.9783 22.3616 10.9974 22.2199 10.9649C22.0782 10.9325 21.9527 10.8506 21.866 10.734C21.6507 10.4942 21.5283 10.1852 21.521 9.863C21.5305 9.66567 21.4877 9.46934 21.3972 9.29378C21.3066 9.11822 21.1713 8.96963 21.005 8.863C21.074 8.863 21.117 8.845 21.146 8.863C21.2666 8.91758 21.3721 9.00075 21.4533 9.1053C21.5345 9.20985 21.589 9.33264 21.612 9.463C21.6524 9.83609 21.7977 10.1901 22.031 10.484C22.0946 10.5415 22.1656 10.5902 22.242 10.629C22.2667 10.5492 22.2808 10.4665 22.284 10.383C22.255 10.07 22.191 9.759 22.184 9.447C22.184 9.184 22.255 8.921 22.261 8.657C22.2557 8.42268 22.236 8.1889 22.202 7.957C22.202 7.935 22.173 7.915 22.125 7.901C22.1172 7.9368 22.1156 7.97365 22.12 8.01C22.1897 8.3905 22.1863 8.78077 22.11 9.16C22.0551 9.51271 22.0693 9.87274 22.152 10.22C22.1579 10.2641 22.1579 10.3089 22.152 10.353L22.117 10.368C22.07 10.3192 22.0265 10.2671 21.987 10.212C21.8457 9.96619 21.7569 9.69382 21.726 9.412C21.7011 9.24892 21.63 9.09636 21.5212 8.97234C21.4124 8.84831 21.2704 8.75798 21.112 8.712C20.9795 8.67243 20.843 8.64794 20.705 8.639C20.666 8.639 20.623 8.677 20.582 8.697C20.605 8.742 20.616 8.797 20.652 8.827C20.752 8.904 20.867 8.959 20.965 9.035C21.1007 9.13149 21.2094 9.26128 21.2805 9.41189C21.3516 9.5625 21.3828 9.72887 21.371 9.895C21.3682 10.1387 21.4318 10.3786 21.5552 10.5888C21.6785 10.799 21.8569 10.9716 22.071 11.088C22.1479 11.1106 22.227 11.1251 22.307 11.131C22.358 11.139 22.407 11.14 22.461 11.145C22.461 11.158 22.469 11.171 22.475 11.184C22.4216 11.2231 22.3643 11.2566 22.304 11.284C22.1159 11.3492 21.9147 11.3674 21.7179 11.337C21.5212 11.3067 21.3348 11.2288 21.175 11.11C20.9535 10.961 20.7702 10.762 20.64 10.529C20.624 10.501 20.604 10.477 20.588 10.45C20.551 10.39 20.505 10.319 20.434 10.384C20.4179 10.4096 20.4082 10.4386 20.4056 10.4687C20.403 10.4988 20.4076 10.529 20.419 10.557C20.573 10.891 20.757 11.212 20.893 11.557C21.0189 11.8686 21.0809 12.2023 21.0754 12.5382C21.0699 12.8742 20.997 13.2057 20.861 13.513C20.8333 13.5616 20.7997 13.6066 20.761 13.647L20.726 13.637C20.712 13.506 20.701 13.374 20.686 13.244C20.6683 12.978 20.5881 12.7198 20.4519 12.4906C20.3157 12.2614 20.1273 12.0676 19.902 11.925C19.7905 11.859 19.6699 11.8098 19.544 11.779C19.511 11.7733 19.4771 11.7757 19.4452 11.786C19.4134 11.7962 19.3845 11.8141 19.361 11.838C19.3521 11.8695 19.3506 11.9027 19.3565 11.9349C19.3624 11.9672 19.3755 11.9976 19.395 12.024C19.48 12.145 19.586 12.252 19.683 12.365C19.89 12.5939 20.0372 12.8705 20.1113 13.1701C20.1855 13.4697 20.1844 13.783 20.108 14.082C20.0027 14.561 19.8268 15.0217 19.586 15.449C19.566 15.483 19.524 15.505 19.493 15.532C19.4654 15.4973 19.4447 15.4575 19.432 15.415C19.3669 14.8221 19.1353 14.2598 18.764 13.793C18.7197 13.7305 18.6652 13.6757 18.603 13.631C18.5466 13.6128 18.487 13.6063 18.428 13.612C18.4201 13.6607 18.4201 13.7103 18.428 13.759C18.512 14.004 18.619 14.243 18.69 14.492C18.7127 14.6241 18.716 14.7589 18.7 14.892C18.6564 15.2764 18.71 15.6657 18.856 16.024C18.9144 16.1346 19.0032 16.2263 19.112 16.288C19.296 16.388 19.499 16.457 19.693 16.542C19.7246 16.5619 19.7535 16.5857 19.779 16.613C19.747 16.64 19.721 16.682 19.686 16.69C19.4126 16.7674 19.1256 16.7846 18.8449 16.7404C18.5642 16.6962 18.2964 16.5916 18.06 16.434C17.7241 16.2407 17.474 15.9273 17.36 15.557C17.3103 15.3111 17.2769 15.0623 17.26 14.812C17.2556 14.7365 17.2415 14.6619 17.218 14.59C17.16 14.447 17.057 14.409 16.941 14.51C16.775 14.6544 16.6233 14.8145 16.488 14.988C16.26 15.288 16.057 15.608 15.838 15.916C15.6319 16.2015 15.3737 16.4454 15.077 16.635C15.0385 16.6516 14.9977 16.6624 14.956 16.667C14.9545 16.6224 14.9602 16.5778 14.973 16.535C15.12 16.235 15.294 15.952 15.416 15.645C15.4914 15.4074 15.5482 15.1644 15.586 14.918L15.534 14.905C15.5192 14.937 15.5078 14.9706 15.5 15.005C15.4445 15.4612 15.2847 15.8985 15.033 16.283C14.965 16.4 14.889 16.511 14.826 16.631C14.808 16.668 14.798 16.742 14.819 16.763C14.8388 16.7758 14.8614 16.7837 14.8848 16.7861C14.9083 16.7886 14.932 16.7854 14.954 16.777C15.0725 16.7236 15.186 16.6597 15.293 16.586C15.42 16.497 15.536 16.393 15.656 16.295C15.668 16.304 15.681 16.313 15.69 16.322C15.59 16.522 15.497 16.73 15.384 16.922C14.9654 17.6457 14.3946 18.2698 13.711 18.751C13.336 19.013 12.924 19.221 12.527 19.451C12.433 19.504 12.374 19.462 12.394 19.351C12.483 18.886 12.553 18.412 12.678 17.951C12.8624 17.3152 13.1583 16.7172 13.552 16.185L13.693 15.992C13.181 16.12 12.152 18.892 12.351 19.599C13.5952 19.0999 14.6604 18.2378 15.408 17.125C15.0279 17.9654 14.3966 18.6673 13.601 19.134C13.744 19.154 13.848 19.175 13.955 19.18C14.3684 19.2101 14.7839 19.1723 15.185 19.068C15.7371 18.9128 16.2415 18.6215 16.652 18.221C16.6952 18.1872 16.7417 18.158 16.791 18.134L16.797 18.291C16.807 18.577 16.813 18.863 16.833 19.15C16.846 19.35 16.896 19.541 16.903 19.738C16.9082 20.0249 16.8491 20.3094 16.73 20.5705C16.611 20.8316 16.435 21.0627 16.215 21.247C16.1242 21.3271 16.0396 21.4141 15.962 21.507C16.5651 21.4696 17.144 21.2561 17.627 20.893C18.0825 20.4975 18.4338 19.9961 18.65 19.433C18.666 19.441 18.682 19.45 18.697 19.46C18.634 19.642 18.576 19.828 18.504 20.008C18.432 20.188 18.344 20.364 18.249 20.572C18.349 20.549 18.43 20.534 18.506 20.514C18.9207 20.4051 19.308 20.2105 19.643 19.9429C19.978 19.6752 20.2532 19.3404 20.451 18.96L20.551 18.767L20.6 18.781C20.635 18.889 20.667 18.999 20.7 19.108C20.9351 19.8048 21.3961 20.4031 22.01 20.808C22.23 20.96 22.475 21.077 22.71 21.216C22.7646 21.2448 22.8103 21.288 22.842 21.341C23.069 21.826 23.306 22.305 23.508 22.799C23.872 23.683 24.208 24.581 24.568 25.464C24.868 26.196 25.175 26.924 25.512 27.637C25.9392 28.5565 26.4918 29.4123 27.154 30.18C27.5354 30.6317 28.014 30.9913 28.554 31.232C28.8457 31.3707 29.1764 31.4043 29.49 31.327C29.6254 31.2832 29.749 31.2088 29.8511 31.1096C29.9532 31.0104 30.0312 30.8891 30.079 30.755C30.2154 30.4305 30.2769 30.0795 30.259 29.728C30.2415 29.3112 30.1944 28.8961 30.118 28.486C30.028 27.995 29.898 27.514 29.782 27.03C29.718 26.761 29.649 26.492 29.582 26.221C29.5765 26.1685 29.5765 26.1155 29.582 26.063L29.623 26.051C29.799 26.194 29.98 26.334 30.152 26.482C30.7876 26.9973 31.2958 27.6523 31.637 28.396C31.883 28.9731 31.9816 29.6023 31.924 30.227C31.8686 30.8042 31.7378 31.3717 31.535 31.915C31.517 31.966 31.495 32.015 31.475 32.064C31.455 32.113 31.437 32.164 31.405 32.237C31.4308 32.2264 31.4552 32.213 31.478 32.197C31.8828 31.7777 32.3791 31.4578 32.928 31.262C33.368 31.07 33.811 30.882 34.247 30.684C34.357 30.634 34.447 30.552 34.555 30.491C34.5905 30.4795 34.6278 30.4748 34.665 30.477C34.665 30.506 34.679 30.541 34.665 30.565C34.538 30.871 34.427 31.186 34.274 31.479C34.0012 31.9949 33.5409 32.3864 32.988 32.573C32.593 32.717 32.18 32.809 31.773 32.925C31.741 32.933 31.709 32.944 31.661 32.959C31.995 33.023 32.311 33.075 32.621 33.145C33.049 33.245 33.475 33.353 33.901 33.46C34.135 33.52 34.367 33.596 34.601 33.64C34.7345 33.6509 34.8688 33.6456 35.001 33.624C35.168 33.612 35.333 33.592 35.501 33.581C35.541 33.5827 35.5792 33.5983 35.609 33.625C34.9464 34.272 34.0581 34.6356 33.132 34.639C32.6673 34.632 32.2094 34.5267 31.7884 34.33C31.3673 34.1333 30.9926 33.8498 30.689 33.498C30.6967 33.526 30.7064 33.5534 30.718 33.58C30.9495 34.0268 31.1242 34.5008 31.238 34.991C31.3273 35.4239 31.3269 35.8706 31.2367 36.3033C31.1466 36.7361 30.9687 37.1457 30.714 37.507C30.586 37.707 30.445 37.901 30.314 38.098C30.279 38.147 30.239 38.198 30.201 38.24L30.152 38.226C30.1501 38.171 30.1544 38.116 30.165 38.062C30.313 37.593 30.3399 37.0942 30.243 36.612C30.059 35.7549 29.638 34.9666 29.028 34.337C28.738 34.005 28.428 33.685 28.115 33.378C27.802 33.071 27.45 32.8 27.124 32.501C26.4735 31.9021 25.9216 31.2042 25.489 30.433C25.111 29.764 24.77 29.075 24.415 28.394C24.171 27.925 23.933 27.453 23.693 26.982L23.659 26.992C23.6641 27.0301 23.6714 27.0678 23.681 27.105C23.871 27.605 24.05 28.118 24.256 28.616C24.5542 29.2663 24.7185 29.9699 24.739 30.685C24.739 31.456 24.718 32.227 24.712 32.997C24.712 33.469 24.7 33.941 24.72 34.413C24.7295 34.5872 24.774 34.7578 24.8508 34.9145C24.9275 35.0711 25.0351 35.2108 25.167 35.325C25.661 35.783 26.16 36.239 26.683 36.666C26.8821 36.832 27.1294 36.9294 27.3883 36.9439C27.6471 36.9583 27.9037 36.8889 28.12 36.746C28.1717 36.7278 28.2254 36.7164 28.28 36.712C28.2874 36.761 28.2894 36.8106 28.286 36.86C28.2502 37.0379 28.1646 37.202 28.039 37.333C27.9135 37.4641 27.7532 37.5567 27.577 37.6C27.258 37.7 26.925 37.751 26.597 37.823C26.477 37.849 26.354 37.871 26.233 37.895V37.942C26.366 37.932 26.5 37.929 26.633 37.911C26.927 37.871 27.22 37.822 27.513 37.779C27.5538 37.7769 27.5948 37.7795 27.635 37.787C27.6359 37.8288 27.6295 37.8704 27.616 37.91C27.4413 38.2144 27.1586 38.4421 26.824 38.548C26.5939 38.6096 26.3601 38.6564 26.124 38.688C26.0935 38.6918 26.0647 38.7043 26.041 38.724C26.681 38.8347 27.338 38.795 27.96 38.608C27.9441 38.68 27.9131 38.7479 27.8692 38.8072C27.8252 38.8665 27.7693 38.9158 27.705 38.952C27.424 39.1403 27.0961 39.2466 26.758 39.259C26.475 39.293 26.195 39.359 25.913 39.412C25.8546 39.4301 25.7988 39.4556 25.747 39.488C25.747 39.503 25.747 39.517 25.747 39.531C25.998 39.546 26.247 39.58 26.499 39.574C26.751 39.568 27.005 39.521 27.287 39.49C27.2052 39.658 27.0794 39.8007 26.923 39.903C26.676 40.0536 26.3942 40.1376 26.105 40.147C25.889 40.165 25.673 40.168 25.457 40.179L25.332 40.186C25.326 40.202 25.32 40.22 25.314 40.237C25.506 40.337 25.693 40.445 25.891 40.526C26.1966 40.6509 26.5267 40.7042 26.856 40.682C26.906 40.6871 26.9549 40.6999 27.001 40.72C26.9715 40.7651 26.935 40.8053 26.893 40.839C26.5498 41.0302 26.1639 41.1317 25.771 41.134C25.471 41.139 25.171 41.134 24.871 41.134C24.871 41.154 24.864 41.172 24.862 41.192C24.9823 41.2351 25.1048 41.2718 25.229 41.302C25.587 41.37 25.946 41.429 26.303 41.493C26.332 41.499 26.356 41.529 26.384 41.548C26.363 41.573 26.348 41.612 26.321 41.624C26.0492 41.7549 25.7557 41.8345 25.455 41.859C25.173 41.874 24.89 41.871 24.606 41.877C24.5634 41.8791 24.5224 41.8937 24.488 41.919L24.827 42.028C25.0294 42.0912 25.2052 42.2195 25.327 42.393C25.34 42.412 25.362 42.427 25.367 42.448C25.467 42.795 25.701 43.109 25.643 43.497C25.627 43.607 25.599 43.716 25.578 43.825H25.533C25.467 43.731 25.405 43.634 25.333 43.547C25.2854 43.4696 25.2112 43.4122 25.1243 43.3855C25.0375 43.3589 24.9439 43.3647 24.861 43.402C24.747 43.45 24.686 43.368 24.638 43.281C24.5767 43.1715 24.5608 43.0423 24.594 42.9212C24.6271 42.8002 24.7065 42.697 24.815 42.634C24.836 42.618 24.86 42.607 24.889 42.589C24.719 42.554 24.502 42.763 24.458 43.004C24.4293 43.1565 24.4609 43.3142 24.546 43.444C24.5843 43.5088 24.6449 43.5576 24.7164 43.5813C24.7879 43.605 24.8655 43.6021 24.935 43.573C24.853 43.781 24.42 43.896 24.145 43.82C23.8671 43.7145 23.6264 43.5295 23.453 43.288C23.459 43.352 23.465 43.414 23.469 43.478C23.469 43.497 23.476 43.514 23.477 43.531C23.512 43.931 23.46 44.001 23.062 44.089C23.02 44.099 22.98 44.115 22.905 44.138C22.984 44.194 23.041 44.233 23.096 44.274C23.3115 44.4124 23.4674 44.6264 23.533 44.874C23.5674 45.0468 23.5579 45.2255 23.5055 45.3937C23.4531 45.5619 23.3594 45.7143 23.233 45.837C23.0429 46.0613 22.7974 46.2319 22.521 46.332C22.4688 46.3561 22.4236 46.3933 22.39 46.44C22.273 46.577 22.159 46.716 22.052 46.86C21.968 46.974 21.896 47.097 21.811 47.229C21.79 47.21 21.757 47.194 21.742 47.167C21.5644 46.875 21.4543 46.547 21.42 46.207C21.4131 46.1071 21.4377 46.0076 21.4905 45.9225C21.5433 45.8375 21.6215 45.7712 21.714 45.733C21.7962 45.6892 21.8893 45.6701 21.9822 45.6781C22.075 45.686 22.1635 45.7208 22.237 45.778C22.2702 45.8041 22.3065 45.8259 22.345 45.843C22.3211 45.7836 22.2833 45.7308 22.2347 45.689C22.1862 45.6472 22.1283 45.6178 22.066 45.603C21.9757 45.574 21.8801 45.5654 21.7861 45.5777C21.692 45.5901 21.6019 45.6231 21.5221 45.6745C21.4424 45.7258 21.375 45.7942 21.3248 45.8747C21.2747 45.9552 21.243 46.0458 21.232 46.14C21.209 46.315 21.181 46.328 21.037 46.223C20.935 46.1499 20.8588 46.0464 20.8192 45.9273C20.7797 45.8082 20.7789 45.6796 20.817 45.56C20.89 45.243 20.992 44.931 21.089 44.619C21.2179 44.2873 21.2774 43.9326 21.264 43.577C21.251 43.4465 21.2172 43.3189 21.164 43.199C21.154 43.219 21.136 43.239 21.136 43.26C21.0961 43.7357 20.9771 44.2014 20.784 44.638C20.556 45.209 20.319 45.776 20.079 46.338C20.0406 46.4714 19.9619 46.5897 19.8535 46.6766C19.7452 46.7634 19.6126 46.8146 19.474 46.823C19.2825 46.8207 19.0926 46.7869 18.912 46.723C18.867 46.7062 18.8187 46.7004 18.771 46.7061C18.7233 46.7119 18.6777 46.729 18.638 46.756C18.4045 46.8671 18.2206 47.061 18.122 47.3C18.117 47.318 18.095 47.333 18.069 47.364C18.04 47.329 18.003 47.304 17.996 47.272C17.9347 47.0528 17.9187 46.8235 17.949 46.5979C17.9792 46.3723 18.0551 46.1553 18.172 45.96C18.2269 45.8737 18.3044 45.8041 18.3961 45.7588C18.4877 45.7135 18.5901 45.6942 18.692 45.703C18.7917 45.7104 18.8864 45.7499 18.9619 45.8154C19.0374 45.881 19.0897 45.9693 19.111 46.067C19.1204 46.0915 19.1311 46.1156 19.143 46.139H19.155C19.1692 46.0508 19.158 45.9604 19.1225 45.8783C19.0871 45.7963 19.029 45.7261 18.955 45.676C18.8787 45.6149 18.7872 45.5756 18.6904 45.5624C18.5935 45.5492 18.4949 45.5625 18.405 45.601C18.2357 45.6835 18.0734 45.7798 17.92 45.889C17.856 45.8 17.911 45.681 17.944 45.572C18.0522 45.2555 18.235 44.9698 18.477 44.739C18.867 44.328 19.271 43.931 19.668 43.526C19.8997 43.2898 20.0945 43.0201 20.246 42.726C20.2594 42.6953 20.2701 42.6635 20.278 42.631L20.249 42.613C20.117 42.773 19.99 42.94 19.849 43.093C19.522 43.451 19.195 43.812 18.849 44.153C18.7312 44.2483 18.595 44.3184 18.449 44.359C18.3906 44.3808 18.3265 44.3813 18.2678 44.3604C18.2091 44.3396 18.1596 44.2987 18.128 44.245C18.049 44.125 17.996 43.99 17.928 43.868C17.895 43.8138 17.8507 43.7674 17.798 43.732C17.72 43.681 17.627 43.652 17.547 43.602C17.3587 43.4836 17.1327 43.4404 16.914 43.481C16.8638 43.4827 16.8135 43.479 16.764 43.47C16.756 43.453 16.75 43.435 16.741 43.417C16.919 43.287 17.093 43.15 17.276 43.029C17.388 42.956 17.521 42.917 17.637 42.85C17.798 42.7735 17.9823 42.762 18.1516 42.8178C18.3209 42.8737 18.4622 42.9927 18.546 43.15C18.5586 43.2137 18.5585 43.2793 18.5456 43.343C18.5327 43.4067 18.5074 43.4672 18.471 43.521C18.459 43.546 18.441 43.57 18.418 43.605C18.5273 43.5402 18.6068 43.4349 18.6391 43.312C18.6715 43.189 18.6542 43.0583 18.591 42.948C18.5179 42.8588 18.4358 42.7774 18.346 42.705C18.32 42.678 18.272 42.638 18.279 42.623C18.287 42.6037 18.299 42.5862 18.3142 42.5717C18.3293 42.5573 18.3473 42.5461 18.367 42.539C18.662 42.48 18.954 42.422 19.251 42.375C19.6873 42.3768 20.1177 42.2739 20.506 42.075C20.765 41.8877 21.0079 41.679 21.232 41.451C21.6339 41.05 21.9761 40.5934 22.248 40.095C22.3873 39.8636 22.4823 39.6082 22.528 39.342C22.5477 39.1926 22.5323 39.0407 22.483 38.8984C22.4337 38.756 22.3519 38.6272 22.244 38.522C22.093 38.361 21.907 38.234 21.755 38.078C21.5967 37.92 21.4531 37.748 21.326 37.564C21.2709 37.4665 21.2471 37.3545 21.258 37.243C21.279 36.903 21.321 36.564 21.35 36.224C21.3582 36.0981 21.3582 35.9719 21.35 35.846C21.35 35.812 21.31 35.78 21.289 35.746C21.264 35.783 21.22 35.819 21.22 35.854C21.2131 36.1775 21.1547 36.4979 21.047 36.803C20.8829 37.255 20.6629 37.6847 20.392 38.082C20.21 38.365 20.021 38.645 19.844 38.933C19.4456 39.5044 19.2285 40.1825 19.221 40.879C19.18 40.849 19.137 40.833 19.121 40.804C18.9427 40.5479 18.8328 40.2506 18.8016 39.9401C18.7705 39.6297 18.8192 39.3164 18.943 39.03C19.2197 38.4489 19.5583 37.8994 19.953 37.391C20.089 37.191 20.225 37 20.353 36.801C20.37 36.776 20.353 36.727 20.353 36.689C20.315 36.701 20.26 36.699 20.243 36.725C19.7837 37.407 19.3273 38.0913 18.874 38.778C18.8475 38.8299 18.8242 38.8833 18.804 38.938C18.77 39.007 18.731 39.072 18.694 39.138L18.654 39.13C18.6443 39.0897 18.6396 39.0484 18.64 39.007C18.7257 38.2193 19.0384 37.4734 19.54 36.86C19.575 36.8246 19.6049 36.7846 19.629 36.741C19.6353 36.7246 19.6374 36.7068 19.6352 36.6894C19.6329 36.6719 19.6263 36.6553 19.616 36.641C19.593 36.623 19.546 36.631 19.516 36.641C19.499 36.641 19.487 36.673 19.474 36.69C19.3558 36.8807 19.1685 37.0184 18.9513 37.0743C18.734 37.1302 18.5035 37.1 18.308 36.99C18.0937 36.8613 17.8927 36.7115 17.708 36.543C17.6875 36.5221 17.6716 36.4972 17.6613 36.4698C17.651 36.4424 17.6464 36.4132 17.648 36.384C17.6707 36.3902 17.6928 36.3986 17.714 36.409C17.8734 36.5172 18.0675 36.5618 18.2581 36.534C18.4488 36.5063 18.6221 36.4082 18.744 36.259C19.0811 35.8943 19.3361 35.4616 19.492 34.99C19.674 34.504 19.824 34.006 19.966 33.507C20.05 33.215 20.087 32.907 20.15 32.607C20.224 32.266 20.301 31.925 20.383 31.586C20.562 30.854 20.745 30.123 20.922 29.392C21.02 28.992 21.112 28.5897 21.198 28.185C21.2022 28.1576 21.1998 28.1296 21.1909 28.1033C21.1821 28.077 21.167 28.0532 21.147 28.034C21.061 27.989 21.047 28.076 21.031 28.134C20.907 28.5827 20.7823 29.0317 20.657 29.481C20.542 29.896 20.424 30.311 20.311 30.726C20.2047 31.1493 20.0344 31.554 19.806 31.926C19.6652 32.1469 19.482 32.3377 19.2672 32.4875C19.0523 32.6373 18.8099 32.7432 18.554 32.799C17.7732 32.9827 16.969 33.0464 16.169 32.988C15.9848 32.9777 15.7999 32.9881 15.618 33.019C15.4854 33.0414 15.3629 33.1042 15.2672 33.1986C15.1715 33.2931 15.1072 33.4147 15.083 33.547C14.983 33.92 14.914 34.299 14.842 34.677C14.791 34.941 14.756 35.208 14.715 35.477C14.6567 35.7603 14.6715 36.0538 14.7579 36.3299C14.8443 36.6059 14.9996 36.8555 15.209 37.055C15.2293 37.0723 15.2487 37.0906 15.267 37.11C15.301 37.145 15.332 37.18 15.367 37.21C15.322 37.244 15.283 37.294 15.231 37.31C15.0691 37.359 14.8978 37.3687 14.7313 37.3383C14.5649 37.3079 14.4081 37.2382 14.274 37.135C14.1461 37.0229 14.028 36.9002 13.921 36.768C13.739 36.568 13.558 36.368 13.375 36.168C13.369 36.16 13.352 36.158 13.311 36.175C13.565 36.566 13.811 36.958 14.068 37.349C14.062 37.365 14.054 37.381 14.047 37.397C13.9131 37.4035 13.7788 37.3944 13.647 37.37C13.3902 37.2952 13.1702 37.1282 13.029 36.901C12.8638 36.6733 12.6872 36.454 12.5 36.244L12.46 36.273C12.536 36.415 12.609 36.56 12.689 36.701C12.799 36.901 12.917 37.088 13.026 37.284C13.0442 37.3321 13.0546 37.3827 13.057 37.434C13.0118 37.445 12.9655 37.4514 12.919 37.453C12.7577 37.4309 12.6073 37.359 12.4888 37.2473C12.3703 37.1356 12.2896 36.9897 12.258 36.83C12.24 36.751 12.218 36.7 12.128 36.724C12.038 36.748 12.062 36.809 12.077 36.875C12.1604 37.3033 12.3272 37.7111 12.568 38.075C12.614 38.141 12.674 38.198 12.719 38.265C12.7326 38.2967 12.7403 38.3306 12.742 38.365C12.7086 38.3683 12.6748 38.3663 12.642 38.359C12.1458 38.1349 11.7356 37.756 11.473 37.279C11.38 37.128 11.295 36.972 11.206 36.818L11.171 36.826C11.178 36.926 11.181 37.026 11.193 37.126C11.2638 37.7232 11.5031 38.2878 11.883 38.754C11.9156 38.7983 11.9331 38.852 11.933 38.907C11.3316 38.4847 10.8771 37.8851 10.633 37.192H10.598C10.588 37.232 10.576 37.273 10.568 37.314C10.5516 37.4381 10.5286 37.5613 10.499 37.683C10.461 37.814 10.364 37.835 10.267 37.734C10.124 37.586 9.99 37.427 9.853 37.272C9.84392 37.2611 9.83263 37.2522 9.81987 37.246C9.80711 37.2398 9.79319 37.2364 9.77901 37.236C9.80801 37.336 9.84001 37.436 9.86501 37.543C9.95615 37.7693 9.97569 38.0182 9.92101 38.256C9.88383 38.3645 9.82219 38.4629 9.74086 38.5437C9.65953 38.6245 9.56069 38.6855 9.452 38.722C9.352 38.76 9.346 38.673 9.327 38.608C9.29321 38.5079 9.22306 38.4242 9.13045 38.3735C9.03783 38.3227 8.92951 38.3086 8.827 38.334C8.875 38.357 8.906 38.374 8.939 38.387C9.196 38.494 9.273 38.64 9.173 38.9C9.06544 39.1941 8.87167 39.4488 8.617 39.631C8.594 39.647 8.545 39.663 8.535 39.652C8.5239 39.64 8.51555 39.6258 8.51054 39.6102C8.50553 39.5947 8.50397 39.5782 8.506 39.562C8.53565 39.3691 8.50049 39.1718 8.40601 39.001C8.37143 38.9508 8.34831 38.8936 8.33829 38.8335C8.32826 38.7733 8.33158 38.7117 8.34801 38.653C8.35801 38.626 8.327 38.568 8.298 38.547C8.13848 38.4378 8.02153 38.2768 7.96687 38.0914C7.91222 37.9059 7.92321 37.7073 7.998 37.529C8.067 37.344 8.11701 37.151 8.17601 36.961L8.14301 36.945C8.06501 37.057 7.995 37.175 7.908 37.279C7.79482 37.4286 7.66535 37.5651 7.522 37.686C7.48238 37.7166 7.43669 37.7385 7.38797 37.7501C7.33925 37.7617 7.28861 37.7628 7.23943 37.7534C7.19024 37.7439 7.14364 37.7241 7.10271 37.6952C7.06177 37.6664 7.02743 37.6291 7.002 37.586C6.902 37.45 6.82 37.298 6.729 37.154C6.71079 37.1236 6.68247 37.1006 6.649 37.089C6.65234 37.1337 6.65633 37.1777 6.661 37.221C6.71797 37.4708 6.72579 37.7292 6.68401 37.982C6.64582 38.1143 6.57322 38.2341 6.4736 38.3291C6.37399 38.4242 6.25093 38.4911 6.117 38.523C5.8173 38.5973 5.5016 38.5728 5.217 38.453C5.203 38.453 5.187 38.444 5.181 38.434C5.07 38.248 4.935 38.349 4.828 38.422C4.70116 38.5192 4.58151 38.6255 4.47 38.74C4.44987 38.7616 4.42484 38.7781 4.397 38.788C4.386 38.788 4.35201 38.754 4.35201 38.733C4.2928 38.3326 4.38827 37.9246 4.619 37.592C4.66805 37.5214 4.73185 37.4622 4.806 37.4187C4.88015 37.3751 4.96287 37.3481 5.04845 37.3397C5.13403 37.3312 5.22042 37.3414 5.30167 37.3696C5.38291 37.3978 5.45706 37.4433 5.519 37.503C5.5814 37.5893 5.63154 37.6839 5.668 37.784C5.67997 37.8221 5.68966 37.8608 5.69701 37.9C5.72686 37.7679 5.70949 37.6296 5.64792 37.509C5.58635 37.3884 5.48448 37.2933 5.36 37.24C5.10334 37.1651 4.82769 37.1916 4.59 37.314C4.6225 37.1256 4.71807 36.9539 4.86101 36.827C5.08403 36.6284 5.3532 36.4889 5.644 36.421C6.144 36.285 6.644 36.178 7.144 36.058C7.20965 36.0445 7.27369 36.0241 7.33501 35.997C7.35801 35.985 7.36401 35.937 7.37201 35.905C7.37201 35.896 7.359 35.883 7.351 35.871C7.183 35.613 7.18501 35.616 6.87801 35.737C6.48601 35.893 6.098 36.063 5.696 36.188C5.35734 36.294 5.01 36.37 4.658 36.415C4.49327 36.4441 4.32416 36.437 4.16249 36.3939C4.00082 36.3509 3.85048 36.2731 3.722 36.166C3.52518 35.9823 3.40125 35.7337 3.373 35.466C3.36568 35.372 3.33822 35.2806 3.2925 35.1981C3.24677 35.1156 3.18384 35.0439 3.10797 34.9878C3.0321 34.9318 2.94505 34.8927 2.85275 34.8732C2.76045 34.8538 2.66504 34.8544 2.573 34.875C2.52386 34.8756 2.47484 34.8702 2.427 34.859C2.427 34.843 2.41901 34.829 2.41501 34.813C2.50301 34.757 2.59001 34.7 2.67801 34.643C2.95284 34.453 3.27371 34.3404 3.60701 34.317C3.82335 34.3033 4.03972 34.3431 4.237 34.433C4.458 34.541 4.49701 34.771 4.31601 34.998C4.22453 35.0989 4.12412 35.1912 4.01601 35.274C4.12937 35.2553 4.23562 35.2065 4.32359 35.1326C4.41157 35.0587 4.47804 34.9624 4.51601 34.854C4.62801 34.563 4.489 34.384 4.241 34.249L4.25101 34.21C4.31334 34.1962 4.37744 34.1922 4.44101 34.198C4.88201 34.298 5.32601 34.398 5.76201 34.517C6.19801 34.636 6.612 34.779 7.037 34.91C7.07976 34.92 7.12425 34.92 7.16701 34.91C6.91107 34.6872 6.61079 34.5212 6.286 34.423C6.0085 34.3501 5.73595 34.2596 5.47 34.152C5.39219 34.1243 5.32262 34.0774 5.2677 34.0157C5.21278 33.954 5.17428 33.8794 5.15575 33.7989C5.13722 33.7184 5.13925 33.6346 5.16167 33.5551C5.18408 33.4755 5.22614 33.403 5.284 33.344C5.34424 33.2655 5.41933 33.1996 5.505 33.15C5.54226 33.1312 5.57374 33.1027 5.5961 33.0675C5.61846 33.0323 5.63086 32.9917 5.632 32.95C5.654 32.814 5.703 32.68 5.711 32.543C5.723 32.343 5.71101 32.143 5.70401 31.931C5.71201 31.931 5.756 31.931 5.776 31.949C6 32.176 6.226 32.402 6.439 32.639C6.51311 32.7348 6.57776 32.8377 6.632 32.946C6.8 33.224 6.524 33.753 6.188 33.725C6.079 33.714 5.971 33.7 5.869 33.688C5.92593 33.745 5.99679 33.786 6.07451 33.8071C6.15223 33.8281 6.23411 33.8284 6.312 33.808C6.40889 33.801 6.50292 33.772 6.58693 33.7232C6.67094 33.6744 6.74271 33.6071 6.7968 33.5264C6.85089 33.4457 6.88586 33.3538 6.89906 33.2575C6.91227 33.1613 6.90336 33.0633 6.873 32.971L6.914 32.952C6.98908 33.0117 7.05809 33.0787 7.12001 33.152C7.25601 33.346 7.378 33.552 7.511 33.746C7.58941 33.8685 7.62068 34.0152 7.599 34.159C7.567 34.472 7.63701 34.585 7.93201 34.7C8.39151 34.8906 8.8908 34.9655 9.386 34.918C9.83406 34.8663 10.2451 34.6444 10.534 34.298C10.848 33.9203 11.0879 33.4867 11.241 33.02C11.3772 32.564 11.5542 32.1212 11.77 31.697C12.016 31.3119 12.3701 31.0079 12.788 30.823C13.312 30.552 13.827 30.269 14.346 29.992C14.3713 29.9751 14.3954 29.9564 14.418 29.936C14.418 29.924 14.409 29.912 14.406 29.9C14.271 29.943 14.133 29.981 14.001 30.029C13.5091 30.2161 12.9969 30.3446 12.475 30.412C11.8522 30.4818 11.2239 30.4872 10.6 30.428C10.219 30.393 9.83701 30.37 9.45601 30.34C9.09301 30.312 8.73 30.279 8.368 30.251C8.225 30.239 8.08 30.237 7.937 30.226C7.88153 30.2197 7.82646 30.2103 7.772 30.198L7.75101 30.155C7.87301 30.043 7.98701 29.919 8.12001 29.818C8.2803 29.694 8.46558 29.6062 8.6631 29.5608C8.86062 29.5154 9.06565 29.5134 9.26401 29.555C9.84301 29.655 10.424 29.741 11.008 29.826C11.203 29.855 11.223 29.826 11.196 29.66C10.79 29.58 10.387 29.487 9.98 29.423C9.573 29.359 9.173 29.323 8.77 29.247C9.23624 28.9448 9.78761 28.8014 10.342 28.838C10.8885 28.8836 11.4177 29.0522 11.89 29.331C11.898 29.321 11.906 29.31 11.913 29.3C11.8978 29.2741 11.8811 29.249 11.863 29.225C11.6917 29.0637 11.5602 28.8648 11.479 28.644C11.4053 28.4019 11.407 28.1431 11.484 27.902C11.536 27.747 11.619 27.735 11.726 27.862C11.786 27.9349 11.8395 28.0129 11.886 28.095C11.927 28.162 11.972 28.159 12.034 28.129C12.096 28.099 12.104 28.054 12.077 27.986C12.0399 27.9195 12.0201 27.8448 12.0194 27.7686C12.0187 27.6925 12.0372 27.6174 12.0732 27.5503C12.1091 27.4831 12.1614 27.4261 12.2251 27.3845C12.2889 27.3429 12.3621 27.3179 12.438 27.312C12.56 27.285 12.683 27.263 12.808 27.245C12.8604 27.2459 12.9126 27.2516 12.964 27.262C12.9338 27.3092 12.9003 27.3543 12.864 27.397C12.7602 27.5006 12.6957 27.6372 12.6817 27.7832C12.6676 27.9292 12.7049 28.0755 12.787 28.197C12.9015 28.3779 13.0546 28.5313 13.2352 28.6463C13.4158 28.7612 13.6196 28.8349 13.832 28.862C14.2677 28.9026 14.7071 28.8533 15.123 28.717C15.8116 28.5445 16.5191 28.4585 17.229 28.461C17.803 28.455 18.375 28.461 18.947 28.445C19.56 28.429 20.171 28.4 20.783 28.375C20.8028 28.3727 20.8223 28.368 20.841 28.361C20.8363 28.3341 20.8292 28.3077 20.82 28.282C20.4629 27.5259 19.9619 26.8466 19.345 26.282C18.869 25.871 18.359 25.497 17.865 25.109C17.67 24.956 17.48 24.799 17.277 24.658C16.955 24.433 16.62 24.226 16.298 24.001C16.125 23.881 15.975 23.728 15.798 23.617C15.5804 23.4765 15.3792 23.3121 15.198 23.127C15.1769 23.1134 15.159 23.0954 15.1457 23.0741C15.1323 23.0528 15.1239 23.0289 15.1208 23.004C15.1177 22.9791 15.1202 22.9538 15.128 22.93C15.1358 22.9061 15.1488 22.8843 15.166 22.866C15.29 22.6633 15.4015 22.4533 15.5 22.237C15.61 22.019 15.724 21.801 15.817 21.574C15.8587 21.4574 15.881 21.3348 15.883 21.211C15.8858 21.1881 15.8834 21.165 15.8761 21.1431C15.8687 21.1213 15.8566 21.1014 15.8406 21.0848C15.8246 21.0682 15.8052 21.0554 15.7836 21.0473C15.762 21.0392 15.7389 21.0361 15.716 21.038C15.606 21.038 15.565 21.095 15.577 21.213C15.5881 21.3958 15.5615 21.579 15.4987 21.751C15.4359 21.9231 15.3383 22.0803 15.212 22.213C15.012 22.46 14.785 22.687 14.569 22.92C14.5406 22.9381 14.5105 22.9531 14.479 22.965C14.521 22.402 14.559 21.865 14.597 21.321C14.1276 22.0852 13.9058 22.9759 13.962 23.871L13.911 23.889C13.8687 23.8319 13.835 23.7689 13.811 23.702C13.75 23.394 13.701 23.084 13.647 22.774C13.61 22.558 13.572 22.342 13.536 22.131C13.349 22.104 13.326 22.119 13.336 22.288C13.3524 22.5561 13.3067 22.8244 13.2027 23.072C13.0986 23.3197 12.939 23.54 12.736 23.716C12.7007 23.7445 12.6581 23.7625 12.613 23.768C12.6975 23.2037 12.688 22.6292 12.585 22.068C12.3073 23.0411 12.0965 24.0321 11.954 25.034L11.898 25.042C11.8601 24.988 11.8311 24.9282 11.812 24.865C11.765 24.492 11.719 24.117 11.688 23.742C11.668 23.518 11.674 23.292 11.667 23.067C11.667 23.005 11.679 22.931 11.581 22.931C11.483 22.931 11.467 22.996 11.471 23.077C11.4857 23.3364 11.4347 23.5953 11.3226 23.8298C11.2106 24.0642 11.0411 24.2665 10.83 24.418C10.7936 24.4387 10.7541 24.4532 10.713 24.461C10.7097 24.4212 10.7118 24.3812 10.719 24.342C10.746 24.2795 10.7597 24.212 10.7593 24.1439C10.759 24.0758 10.7445 24.0085 10.7169 23.9462C10.6893 23.884 10.6491 23.8281 10.5989 23.7821C10.5487 23.7361 10.4895 23.701 10.425 23.679C10.0072 23.5375 9.56372 23.488 9.125 23.534C8.945 23.54 8.766 23.551 8.586 23.561C8.56 23.561 8.53501 23.571 8.48601 23.582L8.586 23.711C8.77246 23.8782 8.88562 24.112 8.901 24.362C8.8874 24.472 8.85881 24.5797 8.81601 24.682C8.80401 24.718 8.757 24.742 8.726 24.77C8.699 24.738 8.656 24.712 8.646 24.675C8.5978 24.5655 8.51864 24.4725 8.41824 24.4075C8.31785 24.3425 8.20062 24.3082 8.08101 24.309C8.058 24.3134 8.03576 24.3212 8.015 24.332C8.121 24.375 8.20601 24.406 8.28801 24.445C8.38286 24.4842 8.46027 24.5565 8.50587 24.6484C8.55148 24.7404 8.56218 24.8458 8.536 24.945C8.47762 25.1886 8.37134 25.4181 8.22334 25.6202C8.07535 25.8222 7.8886 25.9928 7.674 26.122C7.63432 26.1376 7.59252 26.147 7.55 26.15C7.54167 26.1096 7.53965 26.0681 7.54401 26.027C7.61164 25.787 7.59034 25.5306 7.48401 25.305C7.42301 25.167 7.384 25.021 7.332 24.878C7.32091 24.9325 7.31323 24.9876 7.30901 25.043C7.30901 25.138 7.275 25.162 7.183 25.129C7.0383 25.0805 6.91587 24.9816 6.83803 24.8504C6.76019 24.7191 6.73214 24.5642 6.759 24.414C6.7775 24.3444 6.79086 24.2736 6.799 24.202C6.78846 24.1525 6.76879 24.1053 6.741 24.063C6.703 24.089 6.641 24.105 6.627 24.141C6.58483 24.2602 6.51597 24.3683 6.42567 24.4568C6.33538 24.5454 6.22604 24.6122 6.106 24.652C6.01673 24.6855 5.92027 24.6952 5.82611 24.6802C5.73195 24.6651 5.64333 24.6257 5.569 24.566C5.354 24.391 5.157 24.192 4.951 24.004C4.94215 23.9969 4.93167 23.9921 4.9205 23.99C4.90934 23.9879 4.89784 23.9886 4.88701 23.992C4.89901 24.019 4.91 24.048 4.925 24.073C5.049 24.292 5.18701 24.506 5.29601 24.732C5.38206 24.9294 5.40208 25.1494 5.35307 25.3591C5.30406 25.5688 5.18864 25.7571 5.024 25.896C4.84845 26.0648 4.63701 26.1918 4.4055 26.2675C4.17399 26.3432 3.92838 26.3656 3.687 26.333C3.61887 26.3222 3.54909 26.331 3.48573 26.3582C3.42237 26.3855 3.36804 26.4301 3.32901 26.487C3.21998 26.6398 3.11981 26.7987 3.02901 26.963C3.01001 26.992 3 27.026 2.976 27.075C2.936 27.039 2.898 27.017 2.883 26.987C2.72413 26.7094 2.63684 26.3967 2.629 26.077C2.6365 25.9261 2.68925 25.7809 2.78038 25.6603C2.87152 25.5397 2.99682 25.4494 3.14 25.401C3.22516 25.3852 3.31316 25.3988 3.38962 25.4395C3.46608 25.4802 3.5265 25.5456 3.561 25.625C3.57986 25.6574 3.59689 25.6907 3.612 25.725C3.626 25.688 3.64101 25.665 3.63701 25.646C3.62301 25.5775 3.59396 25.5129 3.55196 25.457C3.50995 25.401 3.45602 25.3551 3.3941 25.3226C3.33219 25.2901 3.26381 25.2717 3.19392 25.2688C3.12403 25.266 3.05439 25.2787 2.99001 25.306C2.89248 25.3596 2.79769 25.418 2.70601 25.481C2.67401 25.5 2.628 25.525 2.606 25.513C2.584 25.501 2.56101 25.451 2.55501 25.413C2.5304 25.2581 2.55065 25.0994 2.61339 24.9557C2.67612 24.812 2.7787 24.6893 2.909 24.602C3.309 24.275 3.723 23.963 4.14 23.655C4.43344 23.4317 4.68788 23.1614 4.89301 22.855C4.90271 22.8293 4.90876 22.8024 4.911 22.775C4.788 22.863 4.683 22.929 4.588 23.005C4.236 23.286 3.888 23.571 3.537 23.853C3.09767 24.2043 2.658 24.555 2.218 24.905C2.197 24.922 2.17501 24.937 2.15201 24.952C1.88101 25.162 1.711 25.118 1.439 24.877C1.25552 24.7015 1.13113 24.4733 1.08301 24.224C1.0738 24.2006 1.05951 24.1794 1.04118 24.1621C1.02286 24.1449 1.00095 24.1318 0.977005 24.124C0.831885 24.0894 0.680261 24.0929 0.536911 24.1343C0.393561 24.1756 0.263364 24.2534 0.158997 24.36C0.111497 24.3884 0.0598875 24.4093 0.0059967 24.422L0 24.312Z" fill="#0E2253"/>
<path fill-rule="evenodd" clip-rule="evenodd" d="M15.789 1.38C15.87 1.38869 15.9505 1.40205 16.03 1.42C16.3107 1.526 16.554 1.71201 16.73 1.955C16.81 2.047 16.873 2.095 17.003 2.037C17.133 1.979 17.231 2.03 17.269 2.186C17.293 2.286 17.318 2.377 17.336 2.475C17.347 2.52145 17.3416 2.57024 17.3208 2.61321C17.3001 2.65618 17.2652 2.69071 17.222 2.711C17.099 2.785 16.974 2.857 16.854 2.936C16.7895 2.97807 16.7398 3.03925 16.7118 3.11097C16.6839 3.1827 16.679 3.26138 16.698 3.336C16.7141 3.37718 16.7399 3.41387 16.7733 3.44295C16.8066 3.47203 16.8464 3.49265 16.8894 3.50305C16.9324 3.51346 16.9772 3.51334 17.0202 3.50271C17.0631 3.49208 17.1028 3.47125 17.136 3.442C17.2156 3.38478 17.2835 3.31282 17.336 3.23C17.3578 3.17998 17.3931 3.13701 17.4379 3.10591C17.4828 3.07481 17.5354 3.05679 17.5899 3.05389C17.6443 3.05098 17.6986 3.0633 17.7464 3.08946C17.7943 3.11561 17.834 3.15458 17.861 3.202C17.908 3.27401 17.9724 3.33302 18.0483 3.37356C18.1241 3.41411 18.209 3.43489 18.295 3.434C18.321 3.43547 18.3469 3.43015 18.3702 3.41858C18.3935 3.407 18.4134 3.38956 18.4279 3.36798C18.4424 3.34639 18.4511 3.3214 18.453 3.29546C18.455 3.26951 18.4501 3.24351 18.439 3.22C18.3956 3.11549 18.3125 3.03243 18.208 2.989C18.0903 2.93639 17.9873 2.8557 17.908 2.754C17.8529 2.60978 17.8225 2.45732 17.818 2.303C17.8143 2.24485 17.8197 2.18648 17.834 2.13C17.8369 2.09173 17.8474 2.05442 17.8648 2.02024C17.8823 1.98607 17.9064 1.95571 17.9357 1.93095C17.965 1.90619 17.999 1.88751 18.0356 1.87602C18.0722 1.86453 18.1108 1.86044 18.149 1.864C18.44 1.871 18.501 1.831 18.575 1.549C18.5952 1.35582 18.6756 1.17389 18.805 1.029C18.9292 0.927098 19.0632 0.837665 19.205 0.761998C19.238 0.742998 19.305 0.772998 19.354 0.789998C19.5138 0.853267 19.6528 0.959901 19.7552 1.09789C19.8577 1.23587 19.9196 1.39973 19.934 1.571C19.978 1.792 20.065 1.871 20.291 1.866C20.554 1.866 20.667 1.972 20.671 2.238C20.6689 2.27831 20.6689 2.31869 20.671 2.359C20.6987 2.50021 20.6708 2.64667 20.5931 2.76779C20.5154 2.88892 20.3939 2.97533 20.254 3.009C20.1942 3.02605 20.142 3.06278 20.1057 3.11323C20.0694 3.16368 20.0512 3.22491 20.054 3.287C20.0517 3.31183 20.0555 3.33684 20.0649 3.35991C20.0744 3.38298 20.0893 3.40343 20.1083 3.41953C20.1273 3.43562 20.15 3.44689 20.1743 3.45237C20.1986 3.45785 20.2239 3.45738 20.248 3.451C20.3946 3.42036 20.5259 3.33934 20.619 3.222C20.8 2.986 20.996 2.994 21.164 3.245C21.2382 3.365 21.355 3.45252 21.491 3.49C21.5321 3.5044 21.5764 3.50742 21.6191 3.49875C21.6618 3.49009 21.7014 3.47005 21.7336 3.44076C21.7659 3.41147 21.7896 3.37401 21.8024 3.33233C21.8151 3.29066 21.8164 3.24632 21.806 3.204C21.7955 3.14009 21.77 3.07959 21.7316 3.02744C21.6931 2.9753 21.6429 2.933 21.585 2.904C21.479 2.847 21.378 2.78 21.275 2.713C21.2414 2.69167 21.2127 2.66336 21.191 2.63C21.1553 2.4328 21.1949 2.22939 21.302 2.06C21.3755 2.03228 21.4565 2.03228 21.53 2.06C21.5634 2.07905 21.6028 2.08449 21.64 2.07517C21.6773 2.06586 21.7095 2.04251 21.73 2.01C21.801 1.924 21.885 1.847 21.959 1.763C22.1193 1.58644 22.3279 1.4609 22.559 1.402C22.6088 1.3992 22.6587 1.40599 22.706 1.422C22.6926 1.46154 22.6749 1.49945 22.653 1.535C22.3066 1.93977 22.0646 2.42317 21.948 2.943C21.8277 3.47246 21.7776 4.01546 21.799 4.558C21.809 4.752 21.799 4.758 21.606 4.758C21.106 4.758 20.614 4.758 20.117 4.758C19.56 4.753 19.002 4.748 18.443 4.739C18.082 4.739 17.721 4.716 17.359 4.716C17.19 4.716 17.022 4.752 16.853 4.76C16.708 4.767 16.693 4.736 16.693 4.589C16.717 4.21155 16.6935 3.83259 16.623 3.461C16.542 3.145 16.498 2.82 16.408 2.509C16.2909 2.16806 16.1085 1.8532 15.871 1.582L15.771 1.453C15.78 1.418 15.785 1.399 15.789 1.38Z" fill="#0E2253"/>
<path fill-rule="evenodd" clip-rule="evenodd" d="M12.591 7.594C12.57 7.655 12.553 7.718 12.527 7.776C12.4109 8.02938 12.3867 8.31527 12.4584 8.5846C12.5301 8.85393 12.6933 9.0899 12.92 9.252C13.1681 9.40209 13.4555 9.47421 13.745 9.459C14.282 9.46316 14.8181 9.41324 15.345 9.31C15.676 9.24851 16.0165 9.26043 16.3424 9.34493C16.6683 9.42942 16.9716 9.58443 17.231 9.799C17.31 9.862 17.322 9.94 17.219 9.972C17.0364 10.0269 16.8503 10.0697 16.662 10.1C16.625 10.106 16.575 10.06 16.537 10.029C16.386 9.904 16.237 9.778 16.087 9.651L16.056 9.673C16.156 9.814 16.264 9.954 16.369 10.095C16.369 10.11 16.359 10.125 16.355 10.14C16.2078 10.131 16.0613 10.1136 15.916 10.088C15.879 10.079 15.855 9.988 15.838 9.929C15.8323 9.88686 15.8323 9.84414 15.838 9.802C15.588 9.873 15.351 9.949 15.111 10.002C14.722 10.096 14.334 10.185 13.942 10.262C13.5326 10.3322 13.1115 10.2782 12.733 10.107C12.4249 9.99875 12.1579 9.79749 11.969 9.531C11.8588 9.3575 11.7956 9.15826 11.7858 8.95292C11.776 8.74758 11.8198 8.54323 11.913 8.36C12.0326 8.08092 12.2118 7.83141 12.438 7.629C12.4744 7.60119 12.5132 7.57676 12.554 7.556C12.564 7.574 12.578 7.584 12.591 7.594Z" fill="#0E2253"/>
<path fill-rule="evenodd" clip-rule="evenodd" d="M16.294 7.957C16.5336 7.95451 16.7685 8.0242 16.968 8.157C17.0376 8.2174 17.0941 8.29142 17.134 8.37449C17.1739 8.45756 17.1963 8.54792 17.2 8.64C17.255 8.913 17.292 9.19 17.333 9.465C17.338 9.497 17.333 9.556 17.321 9.565C17.3032 9.57093 17.2844 9.57301 17.2658 9.57112C17.2472 9.56922 17.2292 9.56339 17.213 9.554C16.9556 9.37214 16.663 9.24611 16.354 9.184C16.2086 9.15629 16.061 9.14124 15.913 9.139C15.8918 9.14128 15.8703 9.13884 15.8501 9.13187C15.8299 9.12489 15.8116 9.11355 15.7963 9.09865C15.781 9.08375 15.7692 9.06565 15.7617 9.04566C15.7542 9.02567 15.7512 9.00427 15.753 8.983C15.74 8.819 15.7 8.653 15.702 8.489C15.709 8.155 15.742 8.028 16.093 7.984C16.159 7.966 16.226 7.957 16.294 7.957Z" fill="#0E2253"/>
<path fill-rule="evenodd" clip-rule="evenodd" d="M4.55096 4.218C4.47089 4.21446 4.39234 4.19492 4.31995 4.16052C4.24755 4.12612 4.18279 4.07757 4.12947 4.01772C4.07615 3.95788 4.03536 3.88796 4.00951 3.81209C3.98366 3.73623 3.97327 3.65595 3.97896 3.576C4.04196 3.133 3.96295 2.951 3.44395 2.714C3.41995 2.703 3.38596 2.703 3.36996 2.685C3.3462 2.65388 3.32575 2.62037 3.30896 2.585C3.34096 2.566 3.37397 2.531 3.40897 2.534C3.53847 2.54154 3.667 2.56095 3.79295 2.592C4.23192 2.71634 4.61821 2.98077 4.89296 3.345C4.9495 3.40427 4.99091 3.4763 5.01366 3.55499C5.03641 3.63368 5.03983 3.7167 5.02364 3.797C5.00744 3.87729 4.9721 3.9525 4.92062 4.01621C4.86915 4.07993 4.80306 4.13029 4.72797 4.163C4.67139 4.18838 4.61196 4.20684 4.55096 4.218Z" fill="#0E2253"/>
<path fill-rule="evenodd" clip-rule="evenodd" d="M2.10902 19.943C2.38254 19.9358 2.6519 20.0109 2.88213 20.1588C3.11235 20.3066 3.2928 20.5203 3.40002 20.772C3.4365 20.8353 3.44698 20.9103 3.42926 20.9812C3.41154 21.0521 3.367 21.1133 3.30502 21.152C3.20592 21.2329 3.07876 21.2712 2.95146 21.2584C2.82416 21.2457 2.70712 21.1829 2.62602 21.084C2.51354 20.9754 2.41511 20.8531 2.33302 20.72C2.19279 20.4882 1.99004 20.3007 1.74803 20.179C1.70316 20.1476 1.66307 20.1099 1.62903 20.067C1.67561 20.0249 1.72904 19.9911 1.78702 19.967C1.89361 19.9511 2.00125 19.9431 2.10902 19.943Z" fill="#0E2253"/>
<path fill-rule="evenodd" clip-rule="evenodd" d="M15.487 8.161C15.5061 8.19867 15.5203 8.23867 15.529 8.28C15.537 8.429 15.541 8.58 15.543 8.728C15.5387 8.76923 15.5296 8.80982 15.516 8.849C15.48 8.835 15.433 8.832 15.41 8.807C15.302 8.692 15.199 8.573 15.102 8.45C15.084 8.428 15.089 8.35 15.102 8.343C15.219 8.283 15.337 8.233 15.487 8.161Z" fill="#0E2253"/>
<path d="M44.235 3.328H45.719V12.428H51.343V13.719H44.235V3.328Z" fill="#0E2253"/>
<path d="M51.417 8.523C51.3748 7.423 51.6622 6.33548 52.2423 5.39993C52.8224 4.46439 53.6688 3.7235 54.6729 3.27232C55.677 2.82115 56.793 2.68025 57.8777 2.86772C58.9625 3.05519 59.9664 3.56246 60.7608 4.32447C61.5553 5.08648 62.1039 6.06846 62.3364 7.14444C62.5688 8.22042 62.4746 9.34132 62.0656 10.3633C61.6566 11.3853 60.9516 12.2619 60.041 12.8804C59.1305 13.499 58.0559 13.8314 56.9551 13.835C56.2375 13.8703 55.5204 13.7587 54.8475 13.5072C54.1745 13.2556 53.5601 12.8694 53.0416 12.3721C52.5232 11.8748 52.1117 11.277 51.8323 10.6151C51.553 9.95326 51.4117 9.24136 51.417 8.523ZM60.973 8.523C60.9824 7.72194 60.7532 6.93622 60.3146 6.26584C59.876 5.59545 59.2478 5.07072 58.5101 4.75842C57.7723 4.44611 56.9584 4.36037 56.1718 4.51209C55.3851 4.66381 54.6614 5.04614 54.0928 5.61041C53.5241 6.17469 53.1362 6.8954 52.9784 7.68081C52.8206 8.46623 52.9001 9.28084 53.2066 10.021C53.5132 10.7611 54.0331 11.3933 54.7001 11.837C55.367 12.2808 56.1509 12.5161 56.952 12.513C57.4819 12.5296 58.0097 12.438 58.503 12.2437C58.9963 12.0495 59.4448 11.7567 59.8211 11.3833C60.1975 11.0098 60.4937 10.5636 60.6918 10.0718C60.8898 9.58002 60.9855 9.05302 60.973 8.523Z" fill="#0E2253"/>
<path d="M73.0659 3.328V13.716H71.8489L65.618 5.969V13.715H64.1329V3.328H65.3519L71.5829 11.074V3.328H73.0659Z" fill="#0E2253"/>
<path d="M75.295 3.328H79.6711C83.0101 3.328 85.28 5.435 85.28 8.528C85.28 11.621 83.0091 13.721 79.6711 13.721H75.295V3.328ZM79.583 12.428C82.15 12.428 83.7961 10.855 83.7961 8.528C83.7961 6.201 82.15 4.628 79.583 4.628H76.778V12.428H79.583Z" fill="#0E2253"/>
<path d="M86.404 8.52299C86.3617 7.42291 86.6491 6.3353 87.2293 5.39971C87.8095 4.46412 88.656 3.72324 89.6603 3.27211C90.6645 2.82099 91.7806 2.68021 92.8654 2.86784C93.9502 3.05547 94.9541 3.56295 95.7485 4.32516C96.5428 5.08737 97.0913 6.06954 97.3236 7.14565C97.5558 8.22176 97.4612 9.34273 97.052 10.3647C96.6427 11.3867 95.9373 12.2631 95.0265 12.8814C94.1157 13.4997 93.0408 13.8318 91.94 13.835C91.2226 13.87 90.5057 13.7582 89.833 13.5066C89.1603 13.2549 88.5461 12.8686 88.0278 12.3713C87.5096 11.8741 87.0983 11.2763 86.8191 10.6146C86.5399 9.9529 86.3986 9.24118 86.404 8.52299ZM95.96 8.52299C95.9691 7.72217 95.7397 6.93674 95.3011 6.26665C94.8625 5.59656 94.2345 5.07211 93.4969 4.76004C92.7593 4.44797 91.9456 4.36239 91.1593 4.51419C90.3729 4.66598 89.6495 5.0483 89.081 5.61247C88.5126 6.17665 88.1249 6.89719 87.9672 7.68238C87.8096 8.46758 87.889 9.28194 88.1956 10.0218C88.5021 10.7617 89.0218 11.3937 89.6886 11.8373C90.3554 12.2809 91.1391 12.5161 91.94 12.513C92.4698 12.5295 92.9974 12.4377 93.4906 12.2434C93.9838 12.0491 94.4322 11.7563 94.8084 11.3829C95.1846 11.0095 95.4808 10.5633 95.6788 10.0716C95.8768 9.57985 95.9725 9.05293 95.96 8.52299Z" fill="#0E2253"/>
<path d="M108.058 3.328V13.716H106.841L100.609 5.97V13.716H99.124V3.328H100.342L106.573 11.074V3.328H108.058Z" fill="#0E2253"/>
<path d="M43.287 27.342L43.835 26.184C44.8026 26.9718 46.0153 27.3963 47.263 27.384C49.063 27.384 49.83 26.684 49.83 25.784C49.83 23.247 43.537 24.848 43.537 20.99C43.537 19.39 44.785 18.022 47.514 18.022C48.6924 18.0003 49.852 18.3198 50.853 18.942L50.363 20.129C49.5119 19.5845 48.5244 19.2913 47.514 19.283C45.748 19.283 44.992 20.025 44.992 20.931C44.992 23.468 51.283 21.881 51.283 25.694C51.283 27.282 50.008 28.647 47.263 28.647C45.8261 28.6885 44.4198 28.227 43.287 27.342Z" fill="#B90722"/>
<path d="M55.362 19.433H51.803V18.142H60.394V19.433H56.833V28.533H55.363L55.362 19.433Z" fill="#B90722"/>
<path d="M68.956 28.529L66.715 25.339C66.506 25.353 66.284 25.368 66.062 25.368H63.492V28.528H62.007V18.142H66.059C68.759 18.142 70.391 19.507 70.391 21.764C70.4247 22.4861 70.2188 23.1991 69.8054 23.7921C69.3919 24.3851 68.7942 24.8249 68.105 25.043L70.568 28.53L68.956 28.529ZM68.91 21.764C68.91 20.279 67.916 19.433 66.017 19.433H63.492V24.107H66.014C67.915 24.106 68.91 23.247 68.91 21.764Z" fill="#B90722"/>
<path d="M79.416 25.933H73.8969L72.752 28.533H71.226L75.926 18.146H77.394L82.114 28.533H80.562L79.416 25.933ZM78.8969 24.745L76.6559 19.655L74.416 24.745H78.8969Z" fill="#B90722"/>
<path d="M85.203 19.433H81.641V18.142H90.232V19.433H86.672V28.533H85.203V19.433Z" fill="#B90722"/>
<path d="M99.387 27.238V28.529H91.849V18.142H99.18V19.433H93.334V22.623H98.541V23.881H93.334V27.234L99.387 27.238Z" fill="#B90722"/>
<path d="M108.94 23.277H110.363V27.328C109.246 28.2116 107.856 28.6787 106.432 28.649C105.565 28.6139 104.719 28.3669 103.969 27.9297C103.22 27.4925 102.588 26.8783 102.13 26.1408C101.673 25.4033 101.402 24.5649 101.343 23.6989C101.284 22.8329 101.438 21.9656 101.792 21.1728C102.145 20.38 102.687 19.6858 103.371 19.1509C104.054 18.6159 104.859 18.2565 105.713 18.104C106.568 17.9515 107.447 18.0106 108.273 18.2761C109.099 18.5416 109.848 19.0054 110.454 19.627L109.534 20.547C109.139 20.1535 108.669 19.8443 108.151 19.638C107.633 19.4317 107.079 19.3327 106.522 19.347C105.986 19.3271 105.452 19.4154 104.95 19.6066C104.449 19.7977 103.992 20.0879 103.605 20.4597C103.219 20.8316 102.911 21.2775 102.7 21.7708C102.49 22.2642 102.381 22.7949 102.38 23.3312C102.379 23.8676 102.486 24.3987 102.695 24.8928C102.904 25.3869 103.21 25.8338 103.595 26.207C103.98 26.5802 104.437 26.872 104.937 27.0649C105.438 27.2579 105.972 27.348 106.508 27.33C107.367 27.3498 108.213 27.1176 108.942 26.662L108.94 23.277Z" fill="#B90722"/>
<path d="M117.18 24.938V28.529H115.71V24.909L111.585 18.142H113.174L116.497 23.618L119.836 18.142H121.303L117.18 24.938Z" fill="#B90722"/>
<path d="M43.389 38.149C43.3804 37.4325 43.5184 36.7218 43.7946 36.0606C44.0708 35.3994 44.4793 34.8016 44.995 34.3041C45.5107 33.8066 46.1226 33.4198 46.7933 33.1675C47.464 32.9152 48.1792 32.8027 48.895 32.837C49.6305 32.8079 50.3638 32.9373 51.045 33.2165C51.7262 33.4956 52.3394 33.918 52.843 34.455L51.877 35.389C51.5055 34.9877 51.0527 34.6703 50.5489 34.4578C50.045 34.2454 49.5016 34.1428 48.955 34.157C48.4232 34.1451 47.8944 34.2396 47.3997 34.4348C46.9049 34.6301 46.4542 34.9222 46.0739 35.2941C45.6936 35.666 45.3915 36.1101 45.1852 36.6003C44.9789 37.0906 44.8726 37.6171 44.8726 38.149C44.8726 38.6809 44.9789 39.2074 45.1852 39.6977C45.3915 40.1879 45.6936 40.632 46.0739 41.0039C46.4542 41.3758 46.9049 41.6679 47.3997 41.8632C47.8944 42.0584 48.4232 42.1529 48.955 42.141C49.5025 42.1524 50.0462 42.0472 50.55 41.8323C51.0538 41.6175 51.5061 41.298 51.877 40.895L52.843 41.829C52.338 42.3693 51.7228 42.7946 51.039 43.0762C50.3552 43.3578 49.6189 43.489 48.88 43.461C48.1653 43.4938 47.4515 43.3801 46.7823 43.1271C46.1131 42.8741 45.5027 42.487 44.9885 41.9895C44.4744 41.4921 44.0672 40.8949 43.7922 40.2344C43.5171 39.574 43.3799 38.8644 43.389 38.149Z" fill="#0E2253"/>
<path d="M61.908 42.052V43.343H54.369V32.956H61.699V34.247H55.852V37.438H61.06V38.699H55.852V42.052H61.908Z" fill="#0E2253"/>
<path d="M72.652 32.956V43.343H71.4341L65.201 35.597V43.343H63.717V32.956H64.9341L71.166 40.701V32.956H72.652Z" fill="#0E2253"/>
<path d="M77.239 34.247H73.678V32.956H82.271V34.247H78.708V43.347H77.239V34.247Z" fill="#0E2253"/>
<path d="M90.233 43.343L87.993 40.153C87.785 40.168 87.563 40.183 87.341 40.183H84.774V43.343H83.29V32.956H87.341C90.041 32.956 91.673 34.321 91.673 36.576C91.7071 37.298 91.5015 38.0111 91.0883 38.6042C90.675 39.1972 90.0772 39.637 89.388 39.855L91.85 43.343H90.233ZM90.188 36.576C90.188 35.092 89.194 34.246 87.295 34.246H84.773V38.922H87.295C89.194 38.922 90.188 38.061 90.188 36.576Z" fill="#0E2253"/>
<path d="M101.02 42.052V43.343H93.4821V32.956H100.812V34.247H94.966V37.438H100.174V38.699H94.966V42.052H101.02Z" fill="#0E2253"/>
<path d="M39.302 0H38.67V48H39.302V0Z" fill="#B90722"/>
</svg>
