<svg width="22" height="16" viewBox="0 0 22 16" fill="none" xmlns="http://www.w3.org/2000/svg">
<path d="M21.0142 1.38119C21.0142 0.417194 20.6082 0.00518009 19.6562 0.00418009C14.3562 0.00418009 8.55614 0.00418009 1.40414 0.00418009C1.21646 -0.0109091 1.02775 0.0149653 0.851043 0.0799858C0.674339 0.145006 0.513906 0.247628 0.380767 0.380767C0.247628 0.513906 0.145006 0.674339 0.0799858 0.851043C0.0149653 1.02775 -0.0109091 1.21646 0.00418009 1.40414C0.00418009 5.73748 0.00418009 10.0708 0.00418009 14.4041C0.00418009 15.4131 0.43615 15.8432 1.44815 15.8432H17.8831H18.4752H19.0652C19.3302 15.8432 19.5981 15.8432 19.8651 15.8342C20.6531 15.8132 20.9982 15.4642 21.0192 14.6642C21.0192 14.6062 21.0192 14.5492 21.0192 14.4912L21.0142 1.38119ZM19.6862 2.64419V13.3362L14.4862 8.04416L19.6862 2.64419ZM10.9782 8.89017L10.9492 8.91214C10.8282 9.01961 10.672 9.07901 10.5102 9.07901C10.3483 9.07901 10.1922 9.01961 10.0712 8.91214C9.76132 8.67984 9.46542 8.42941 9.18515 8.16214C7.32715 6.31614 5.44514 4.43419 3.62314 2.61319L2.44119 1.43118C2.41219 1.40318 2.38616 1.37216 2.34116 1.32516L2.31418 1.29416H18.6872L18.6491 1.33914C18.5891 1.40914 18.5421 1.46514 18.4901 1.51614L17.5192 2.48819C15.6482 4.35919 13.7141 6.29414 11.8051 8.18814C11.5448 8.43921 11.2679 8.67369 10.9782 8.89017ZM7.73416 9.11117C7.82716 9.20017 7.91914 9.29019 8.01114 9.38119C8.30874 9.76487 8.68368 10.0817 9.1116 10.3111C9.53953 10.5406 10.0109 10.6776 10.4951 10.7132H10.5282C11.0419 10.6686 11.5405 10.5163 11.9914 10.2661C12.4423 10.0159 12.8355 9.6735 13.1452 9.2612L13.3362 9.0712L18.5551 14.3822H2.49814L7.73416 9.11117ZM6.52817 8.06314L1.32815 13.3582V2.61514L6.52817 8.06314Z" fill="#0E2253"/>
</svg>
