<svg width="12" height="13" viewBox="0 0 12 13" fill="none" xmlns="http://www.w3.org/2000/svg">
<path d="M10.171 7.93561L3.2 12.5136C2.9071 12.72 2.5649 12.8454 2.208 12.8771C1.8511 12.9088 1.49214 12.8457 1.16743 12.6943C0.842727 12.5428 0.563772 12.3082 0.35878 12.0143C0.153788 11.7205 0.0300229 11.3777 0 11.0206V1.86461C0.0301585 1.50762 0.153986 1.16491 0.358971 0.87108C0.563955 0.577254 0.842839 0.342716 1.16747 0.191156C1.49209 0.0395962 1.85097 -0.023618 2.20784 0.00789021C2.56471 0.0393985 2.90696 0.164521 3.2 0.370615L10.171 4.94861C10.4274 5.10454 10.6393 5.32385 10.7864 5.58542C10.9335 5.84699 11.0107 6.14202 11.0107 6.44211C11.0107 6.74219 10.9335 7.03722 10.7864 7.2988C10.6393 7.56037 10.4274 7.77968 10.171 7.93561Z" fill="#0E2253"/>
</svg>
