<svg width="33" height="33" viewBox="0 0 33 33" fill="none" xmlns="http://www.w3.org/2000/svg">
<path d="M16.487 32.974C13.2262 32.974 10.0387 32.0071 7.32741 30.1955C4.61616 28.3839 2.50298 25.8091 1.25509 22.7965C0.00719547 19.784 -0.319341 16.469 0.316732 13.2709C0.952806 10.0728 2.52292 7.13504 4.82857 4.82925C7.13422 2.52346 10.0718 0.953188 13.2699 0.31692C16.468 -0.319347 19.783 0.00701666 22.7956 1.25473C25.8082 2.50243 28.3832 4.61542 30.195 7.32656C32.0067 10.0377 32.9738 13.2252 32.974 16.486C32.9695 20.8573 31.2311 25.0483 28.1402 28.1394C25.0492 31.2305 20.8583 32.9693 16.487 32.974ZM16.487 1.43099C13.5092 1.43119 10.5983 2.31442 8.12249 3.96896C5.64665 5.6235 3.71706 7.97502 2.57769 10.7262C1.43832 13.4774 1.14035 16.5047 1.72149 19.4253C2.30262 22.3458 3.73676 25.0284 5.84252 27.1339C7.94828 29.2394 10.6311 30.6731 13.5517 31.2539C16.4723 31.8346 19.4996 31.5363 22.2506 30.3966C25.0016 29.2568 27.353 27.3269 29.0072 24.8509C30.6614 22.3748 31.5442 19.4638 31.544 16.486C31.5392 12.4943 29.9513 8.66744 27.1285 5.84506C24.3058 3.02267 20.4787 1.43523 16.487 1.43099Z" fill="#0E2253"/>
<path d="M23.7029 14.8861C23.1144 14.8245 22.5378 14.6783 21.9909 14.4521C21.4579 14.2201 20.947 13.9411 20.417 13.6791C20.417 13.7061 20.407 13.7581 20.407 13.8101C20.407 15.7651 20.423 17.7201 20.407 19.6751C20.4307 20.6505 20.1898 21.614 19.7098 22.4634C19.2299 23.3128 18.5287 24.0163 17.6809 24.4991C16.6278 25.1125 15.4046 25.3688 14.1939 25.2298C12.9831 25.0909 11.8497 24.5641 10.963 23.7281C10.0051 22.806 9.40936 21.5712 9.28369 20.2475C9.15803 18.9239 9.51076 17.599 10.278 16.5131C10.8386 15.684 11.6206 15.0289 12.5351 14.6223C13.4496 14.2157 14.4599 14.0739 15.451 14.2131C15.538 14.2221 15.6079 14.2301 15.6079 14.3461C15.6029 15.3141 15.601 16.2821 15.597 17.2461C15.597 17.2511 15.5899 17.2561 15.5729 17.2781C15.4819 17.2621 15.3809 17.2461 15.2799 17.2271C14.7846 17.1402 14.2746 17.2013 13.8138 17.4026C13.353 17.604 12.9617 17.9366 12.6889 18.3591C12.4125 18.7804 12.272 19.2764 12.2863 19.7802C12.3006 20.2839 12.469 20.7711 12.769 21.1761C13.0842 21.6102 13.5289 21.9331 14.0391 22.0986C14.5494 22.2641 15.099 22.2636 15.609 22.0971C16.1091 21.9367 16.5457 21.6222 16.8564 21.1987C17.1671 20.7752 17.336 20.2643 17.339 19.7391C17.339 15.8224 17.339 11.9058 17.339 7.9891C17.339 7.7141 17.347 7.7051 17.619 7.7051C18.202 7.7051 18.786 7.7101 19.369 7.7051C19.4021 7.69944 19.436 7.70078 19.4686 7.70901C19.5012 7.71724 19.5317 7.73218 19.5582 7.75289C19.5846 7.77361 19.6064 7.79965 19.6223 7.82931C19.6381 7.85897 19.6475 7.89162 19.6499 7.92514C19.8667 8.87106 20.4023 9.71356 21.167 10.3111C21.844 10.8651 22.6855 11.1791 23.5599 11.2041C23.6749 11.2101 23.7259 11.2331 23.7249 11.3611C23.7249 12.4971 23.7249 13.6321 23.7249 14.7681C23.7199 14.8078 23.7125 14.8473 23.7029 14.8861Z" fill="#0E2253"/>
</svg>
