<svg width="33" height="33" viewBox="0 0 33 33" fill="none" xmlns="http://www.w3.org/2000/svg">
<path d="M16.487 32.974C13.2262 32.974 10.0387 32.0071 7.32741 30.1955C4.61616 28.3839 2.50298 25.8091 1.25509 22.7965C0.00719547 19.784 -0.319341 16.469 0.316732 13.2709C0.952806 10.0728 2.52292 7.13504 4.82857 4.82925C7.13422 2.52346 10.0718 0.953188 13.2699 0.31692C16.468 -0.319347 19.783 0.00701666 22.7956 1.25473C25.8082 2.50243 28.3832 4.61542 30.195 7.32656C32.0067 10.0377 32.9738 13.2252 32.974 16.486C32.9695 20.8573 31.2311 25.0483 28.1402 28.1394C25.0492 31.2305 20.8584 32.9693 16.487 32.974ZM16.487 1.43099C13.5092 1.43099 10.5982 2.31405 8.12224 3.96847C5.64628 5.62289 3.71651 7.97437 2.57699 10.7256C1.43746 13.4767 1.13937 16.504 1.72039 19.4246C2.30141 22.3453 3.73546 25.028 5.84118 27.1336C7.9469 29.2391 10.6297 30.673 13.5503 31.2538C16.471 31.8346 19.4983 31.5363 22.2494 30.3966C25.0005 29.2569 27.3518 27.327 29.0061 24.8509C30.6603 22.3748 31.5432 19.4638 31.543 16.486C31.5382 12.4944 29.9504 8.66778 27.1279 5.84542C24.3053 3.02307 20.4786 1.43549 16.487 1.43099Z" fill="#0E2253"/>
<path d="M25.7571 16.3991C25.7571 17.7191 25.7621 19.0401 25.7571 20.3601C25.77 21.0195 25.5203 21.6571 25.0631 22.1325C24.6059 22.6079 23.9786 22.8822 23.3191 22.895C22.4191 22.945 21.5191 23.044 20.6191 23.095C19.7911 23.145 18.9601 23.17 18.1311 23.195C16.0451 23.259 13.9611 23.2011 11.8801 23.0661C11.0401 23.0111 10.2011 22.944 9.36312 22.858C8.79975 22.7919 8.27773 22.5292 7.88888 22.1162C7.50003 21.7032 7.26928 21.1664 7.23715 20.6C7.20415 19.352 7.21812 18.1 7.21612 16.854C7.21612 15.454 7.22312 14.046 7.21612 12.642C7.20559 12.3129 7.26021 11.9849 7.37683 11.6769C7.49344 11.3689 7.66976 11.0869 7.89566 10.8473C8.12155 10.6077 8.39257 10.415 8.69314 10.2804C8.99371 10.1458 9.31791 10.072 9.64712 10.0631C10.5771 10.0101 11.5031 9.89902 12.4331 9.85402C13.6681 9.79502 14.9051 9.73705 16.1401 9.74605C17.7821 9.75805 19.4242 9.82103 21.0652 9.89003C21.9172 9.92603 22.7651 10.009 23.6181 10.096C24.1782 10.1635 24.6968 10.4256 25.0834 10.8364C25.47 11.2473 25.6999 11.7809 25.7332 12.3441C25.7682 13.6161 25.7511 14.8891 25.7571 16.1621V16.3991ZM14.6151 13.6491V19.528L19.5941 16.828L14.6151 13.6491Z" fill="#0E2253"/>
</svg>
